<svg xmlns="http://www.w3.org/2000/svg" width="584.841" height="273.483" viewBox="0 0 584.841 273.483" style="overflow: visible">
  <g id="_404" data-name="404" transform="translate(-107.109 -78.387)">
    <ellipse id="Oval" cx="32.418" cy="38.332" rx="32.418" ry="38.332" transform="translate(339.21 245.831)" fill="#264ae7"/>
    <circle id="Oval-2" data-name="Oval" cx="22.886" cy="22.886" r="22.886" transform="translate(237.834 95.385)" fill="#fff"/>
    <path id="Path" d="M.014,21.04S-.672,6.668,7.636,5.969,18.285,15,16.14,16.217C11.056,19.1,9.356,4.029,17.141.694c5.917-2.525,11.094,2.652,11.094,2.652" transform="translate(405.843 298.345)" fill="none" stroke="#264ae7" stroke-linecap="round" stroke-miterlimit="10" stroke-width="0.776"/>
    <rect id="Rectangle" width="78.941" height="138.164" rx="39.47" transform="translate(332.548 205.99)" fill="#a6b4ed"/>
    <path id="Path-2" data-name="Path" d="M9.909,0,0,31.716l13.389-.235L23.437,16.3,9.909,0Z" transform="translate(326.093 319.307)" fill="#a6b4ed"/>
    <path id="Path-3" data-name="Path" d="M13.528,0l9.909,31.716-13.365-.2L0,16.3,13.528,0Z" transform="translate(392.328 319.387)" fill="#a6b4ed"/>
    <path id="Shape" d="M110.437,174.494l-24.814-.075a5.325,5.325,0,0,1-4.01-1.757,6.251,6.251,0,0,1-1.64-4.489l.093-29.9-74.416-.23a5.31,5.31,0,0,1-4.01-1.757A6.227,6.227,0,0,1,0,131.8l.062-20.18a11.824,11.824,0,0,1,.719-3.984,16.566,16.566,0,0,1,1.9-3.733L72.212,4.209A10.141,10.141,0,0,1,80.964,0l30.011.091a5.574,5.574,0,0,1,4.245,1.76,6.216,6.216,0,0,1,1.641,4.488l-.3,98.663,21.023.064a5.58,5.58,0,0,1,4.245,1.757,6.214,6.214,0,0,1,1.641,4.489L143.4,132.24a6.243,6.243,0,0,1-1.666,4.481,5.609,5.609,0,0,1-4.259,1.731l-21.023-.065-.094,29.9a6.237,6.237,0,0,1-1.666,4.478,5.6,5.6,0,0,1-4.235,1.731Z" transform="translate(158.546 175.647)" fill="#264ae7"/>
    <path id="Shape-2" data-name="Shape" d="M110.435,174.5l-24.814-.083a5.31,5.31,0,0,1-4.01-1.757,6.227,6.227,0,0,1-1.641-4.489l.091-29.9L5.65,138.048a5.325,5.325,0,0,1-4.01-1.757A6.251,6.251,0,0,1,0,131.8l.062-20.18a11.917,11.917,0,0,1,.722-3.984,16.436,16.436,0,0,1,1.9-3.731l69.521-99.7A10.163,10.163,0,0,1,80.959,0L110.97.094a5.582,5.582,0,0,1,4.246,1.756,6.217,6.217,0,0,1,1.64,4.492l-.3,98.665,21.023.065a5.629,5.629,0,0,1,4.249,1.757,6.269,6.269,0,0,1,1.637,4.491l-.065,20.929a6.2,6.2,0,0,1-1.666,4.478,5.637,5.637,0,0,1-4.256,1.731l-21.026-.065-.091,29.9a6.191,6.191,0,0,1-1.669,4.48,5.642,5.642,0,0,1-4.248,1.732Z" transform="translate(447.624 176.53)" fill="#264ae7"/>
    <path id="Path-4" data-name="Path" d="M0,16.442,21.787,0l.683,27.8L0,16.442Z" transform="translate(382.398 192.092)"/>
    <path id="Path-5" data-name="Path" d="M0,0V22.889H22.886S23.665.613,0,0Z" transform="translate(260.72 95.385)" fill="#a6b4ed"/>
    <path id="Path-6" data-name="Path" d="M0,0,14.814,17.443S23.9,11.335,22.886,0Z" transform="translate(260.72 118.274)" fill="#264ae7"/>
    <rect id="Rectangle-2" data-name="Rectangle" width="15.885" height="18.54" transform="translate(121.974 331.361)" fill="#264ae7"/>
    <rect id="Rectangle-3" data-name="Rectangle" width="15.885" height="32.042" transform="translate(143.424 317.856)" fill="#a6b4ed"/>
    <rect id="Rectangle-4" data-name="Rectangle" width="15.885" height="15.885" transform="translate(165.503 334.015)"/>
    <path id="Path-7" data-name="Path" d="M26.063,21.489,0,0,2.383,31.1v-.517l.14,1.34L26.063,21.489Z" transform="translate(335.381 192.682)" fill="#a6b4ed"/>
    <path id="Path-8" data-name="Path" d="M0,0C1.917,1.019,9.169,4.975,9.169,4.975" transform="translate(317.814 188.804)" fill="none" stroke="#000" stroke-linecap="round" stroke-miterlimit="10" stroke-width="0.776"/>
    <path id="Path-9" data-name="Path" d="M0,0,6.4,9.239" transform="translate(339.404 168.802)" fill="none" stroke="#000" stroke-linecap="round" stroke-miterlimit="10" stroke-width="0.776"/>
    <path id="Path-10" data-name="Path" d="M.129,0V12.8" transform="translate(373.217 159.674)" fill="none" stroke="#000" stroke-linecap="round" stroke-miterlimit="10" stroke-width="0.776"/>
    <path id="Path-11" data-name="Path" d="M4.644,0,0,9.288" transform="translate(405.844 167.829)" fill="none" stroke="#000" stroke-linecap="round" stroke-miterlimit="10" stroke-width="0.776"/>
    <path id="Path-12" data-name="Path" d="M9.8,0,0,3.741" transform="translate(425.871 191.908)" fill="none" stroke="#000" stroke-linecap="round" stroke-miterlimit="10" stroke-width="0.776"/>
    <path id="Path-13" data-name="Path" d="M6.7,0,0,11.834H12.726L6.7,0Z" transform="translate(507.402 123.666)"/>
    <path id="Path-14" data-name="Path" d="M13.278.166,50.942,0S37.357,10.413,43.253,26.829c4.4,12.214,4.4,23.264-3.4,28.382H0S12.227,43.77,7.894,32.123h0C1.863,16.2,6.181,5.819,11.071,2.184Z" transform="translate(620.496 138.159)" fill="#fff" stroke="#a6b4ed" stroke-linecap="round" stroke-miterlimit="10" stroke-width="0.776"/>
    <path id="Path-15" data-name="Path" d="M0,.129H15.187" transform="translate(639.269 177.371)" fill="none" stroke="#a6b4ed" stroke-linecap="round" stroke-miterlimit="10" stroke-width="0.776"/>
    <path id="Path-16" data-name="Path" d="M0,.129H18.364" transform="translate(633.354 183.298)" fill="none" stroke="#a6b4ed" stroke-linecap="round" stroke-miterlimit="10" stroke-width="0.776"/>
    <path id="Path-17" data-name="Path" d="M39.47,8.74,4.5,9A4.509,4.509,0,0,1,0,4.5H0A4.512,4.512,0,0,1,4.5,0H39.47a4.512,4.512,0,0,1,4.5,4.5h0A4.3,4.3,0,0,1,39.47,8.74Z" transform="translate(136.369 195.22)" fill="#a6b4ed"/>
    <circle id="Oval-3" data-name="Oval" cx="3.938" cy="3.938" r="3.938" transform="translate(528.674 145.152)" fill="none" stroke="#000" stroke-linecap="round" stroke-miterlimit="10" stroke-width="0.776"/>
    <path id="Path-18" data-name="Path" d="M.129,0V10.884" transform="translate(173.192 163.361)" fill="none" stroke="#264ae7" stroke-linecap="round" stroke-miterlimit="10" stroke-width="0.776"/>
    <path id="Path-19" data-name="Path" d="M10.884.176,0,.083" transform="translate(168.002 168.673)" fill="none" stroke="#264ae7" stroke-linecap="round" stroke-miterlimit="10" stroke-width="0.776"/>
    <path id="Path-20" data-name="Path" d="M38.482,0H4.168C1.865,0,0,2.287,0,5.107V31.5C0,34.317,1.865,36.6,4.168,36.6H14.561L21.168,50.8l6.4-14.193H38.482c2.3,0,4.165-2.287,4.165-5.107V5.107C42.647,2.292,40.782,0,38.482,0Z" transform="translate(383.224 78.775)" fill="#fff" stroke="#000" stroke-miterlimit="10" stroke-width="0.776"/>
    <path id="Path-21" data-name="Path" d="M0,12.126c.869-4.975,4.931-9.9,6.67-4.375,1.664,5.28,4.14,10.245,7.857,1.384s8.6-7.575,9.459-4.119c1.1,4.4,1.552,10.4,4.755,10.411,4.422,0,4.551-19.921,13.578-14.488" transform="translate(638.948 226.049)" fill="none" stroke="#264ae7" stroke-linecap="round" stroke-miterlimit="10" stroke-width="0.776"/>
    <rect id="Rectangle-5" data-name="Rectangle" width="16.462" height="7.58" rx="3.79" transform="translate(129.877 201.721)" fill="#fff" stroke="#000" stroke-miterlimit="10" stroke-width="0.776"/>
    <circle id="Oval-4" data-name="Oval" cx="39.463" cy="39.463" r="39.463" transform="translate(332.548 201.548)" fill="#a6b4ed"/>
    <rect id="Rectangle-6" data-name="Rectangle" width="24.679" height="24.679" rx="5.431" transform="translate(344.496 211.964)" fill="none" stroke="#264ae7" stroke-miterlimit="10" stroke-width="2.07"/>
    <rect id="Rectangle-7" data-name="Rectangle" width="24.679" height="24.679" rx="5.205" transform="translate(374.489 211.964)" fill="none" stroke="#264ae7" stroke-miterlimit="10" stroke-width="2.07"/>
    <path id="Path-22" data-name="Path" d="M0,.129H5.314" transform="translate(369.175 222.103)" fill="none" stroke="#264ae7" stroke-miterlimit="10" stroke-width="2.07"/>
    <ellipse id="Oval-5" data-name="Oval" cx="13.999" cy="11.482" rx="13.999" ry="11.482" transform="translate(358.829 231.461)" fill="#a6b4ed" stroke="#000" stroke-miterlimit="10" stroke-width="0.776"/>
    <ellipse id="Oval-6" data-name="Oval" cx="1.93" cy="3.079" rx="1.93" ry="3.079" transform="translate(365.822 239.432)"/>
    <ellipse id="Oval-7" data-name="Oval" cx="1.93" cy="3.079" rx="1.93" ry="3.079" transform="translate(375.506 239.432)"/>
    <path id="Path-23" data-name="Path" d="M0,.129H11.614" transform="translate(353.714 257.049)" fill="none" stroke="#000" stroke-linecap="round" stroke-miterlimit="10" stroke-width="0.776"/>
    <path id="Path-24" data-name="Path" d="M0,2.961s4.724-6.662,9.451,0" transform="translate(354.796 225.944)" fill="none" stroke="#000" stroke-linecap="round" stroke-miterlimit="10" stroke-width="0.776"/>
    <path id="Path-25" data-name="Path" d="M0,2.944s4.727-6.623,9.451,0" transform="translate(379.366 225.954)" fill="none" stroke="#000" stroke-linecap="round" stroke-miterlimit="10" stroke-width="0.776"/>
    <path id="Path-26" data-name="Path" d="M0,0,584.063,1.156" transform="translate(107.498 350.325)" fill="#fff" stroke="#000" stroke-linecap="round" stroke-miterlimit="10" stroke-width="0.776"/>
    <path id="Shape-3" data-name="Shape" d="M9.1,21.524l-3.475-.008a.6.6,0,0,1-.489-.228.8.8,0,0,1-.192-.53V17.312a.8.8,0,0,1,.192-.531.6.6,0,0,1,.489-.227H9.093a.643.643,0,0,1,.5.227.774.774,0,0,1,.2.531v3.453a.772.772,0,0,1-.2.531.647.647,0,0,1-.492.228Zm.268-6.432h-3.8a.513.513,0,0,1-.38-.166.562.562,0,0,1-.163-.409v-.7a5.824,5.824,0,0,1,.636-1.925,9.089,9.089,0,0,1,1.112-1.589c.425-.486.836-.939,1.234-1.364A10.183,10.183,0,0,0,9.023,7.685a2.4,2.4,0,0,0,.447-1.26A1.769,1.769,0,0,0,9.239,5.3a1.835,1.835,0,0,0-.776-.7,2.679,2.679,0,0,0-2.778.334,3.27,3.27,0,0,0-.9,1.695,1.111,1.111,0,0,1-.258.53.763.763,0,0,1-.57.2H.651A.586.586,0,0,1,.19,7.14.9.9,0,0,1,0,6.547,6.225,6.225,0,0,1,.518,4.185,6.741,6.741,0,0,1,1.983,2.079,6.967,6.967,0,0,1,4.384.563,9.19,9.19,0,0,1,7.721,0a9.052,9.052,0,0,1,3.363.544A5.551,5.551,0,0,1,13.2,1.973a5.392,5.392,0,0,1,1.1,1.863,5.3,5.3,0,0,1,.3,1.834,6.048,6.048,0,0,1-.406,1.968,7.829,7.829,0,0,1-.883,1.623c-.352.494-.724.967-1.112,1.423s-.745.908-1.071,1.364a5.2,5.2,0,0,0-.732,1.438c-.037.142-.073.28-.109.409a2.574,2.574,0,0,0-.08.411,2.083,2.083,0,0,1-.342.59.627.627,0,0,1-.457.2Z" transform="translate(397.077 86.559)" fill="#264ae7"/>
    <path id="Path-27" data-name="Path" d="M0,32.49,32.485,0h0L31.362,12.812l9.914.667-35,39.9L0,32.49Z" transform="translate(404.002 225.953)" fill="#a6b4ed"/>
    <path id="Path-28" data-name="Path" d="M18.837,0,0,22.012,21.67,47.423V35.463l9.115,3.5L18.17,21.546l9.7-9.974L18.837,0Z" transform="translate(314.849 258.443)" fill="#a6b4ed"/>
    <path id="Path-29" data-name="Path" d="M21.541,0,14.2,9.322l14.149,19.1H18.028l-1.25,10.737L0,17.867" transform="translate(321.183 270.016)" fill="none" stroke="#000" stroke-linecap="round" stroke-miterlimit="10" stroke-width="0.776"/>
    <path id="Path-30" data-name="Path" d="M0,32.49,32.485,0,31.362,12.812l9.914.667L5.283,54.52" transform="translate(404.002 225.953)" fill="none" stroke="#000" stroke-linecap="round" stroke-miterlimit="10" stroke-width="0.776"/>
    <path id="Path-31" data-name="Path" d="M13.19,0c-3.3,3.754-7.609,13.285-5.324,25.7S8.879,54.008,0,58.339H41.853s10.941-8.2,4.09-26.974S56.057,0,56.057,0Z" transform="translate(587.429 102.238)" fill="#fff" stroke="#000" stroke-miterlimit="10" stroke-width="0.776"/>
    <path id="Path-32" data-name="Path" d="M0,.129H16.136" transform="translate(605.317 142.407)" fill="#f6f6f8" stroke="#000" stroke-linecap="round" stroke-miterlimit="10" stroke-width="0.776"/>
    <path id="Path-33" data-name="Path" d="M0,.129H18.672" transform="translate(599.871 148.824)" fill="#f6f6f8" stroke="#000" stroke-linecap="round" stroke-miterlimit="10" stroke-width="0.776"/>
    <path id="Path-34" data-name="Path" d="M9.8,4.977A2.97,2.97,0,0,0,8.618,2.8a4.14,4.14,0,0,0-2.543-.776,4.287,4.287,0,0,0-1.925.406A3.12,3.12,0,0,0,2.856,3.543,2.913,2.913,0,0,0,2.4,5.158a2.507,2.507,0,0,0,.321,1.294,2.869,2.869,0,0,0,.823.9,5.309,5.309,0,0,0,1.053.58,10.061,10.061,0,0,0,1.012.365l1.687.517a13.826,13.826,0,0,1,1.446.536,6.665,6.665,0,0,1,1.532.926,4.639,4.639,0,0,1,1.211,1.5,4.8,4.8,0,0,1,.479,2.243,5.521,5.521,0,0,1-.7,2.766,5.073,5.073,0,0,1-2.041,1.966,7.614,7.614,0,0,1-6.336.072A5.048,5.048,0,0,1,.841,16.989,5.632,5.632,0,0,1,0,14.27H2.07a3.141,3.141,0,0,0,.636,1.764,3.327,3.327,0,0,0,1.41,1.035,5.022,5.022,0,0,0,1.842.336,4.835,4.835,0,0,0,2.07-.429,3.547,3.547,0,0,0,1.449-1.2,3.071,3.071,0,0,0,.536-1.811,2.409,2.409,0,0,0-.461-1.529,3.431,3.431,0,0,0-1.216-.96,11.95,11.95,0,0,0-1.63-.647l-2.041-.662A7.322,7.322,0,0,1,1.586,8.355,4.273,4.273,0,0,1,.453,5.266,5.011,5.011,0,0,1,1.211,2.5,5.174,5.174,0,0,1,3.252.648,6.225,6.225,0,0,1,6.147,0,6.062,6.062,0,0,1,8.993.651a5.174,5.174,0,0,1,1.982,1.775,4.825,4.825,0,0,1,.776,2.556Z" transform="translate(640.045 147.852)" fill="#a6b4ed"/>
    <path id="Path-35" data-name="Path" d="M.129,0V23.489" transform="translate(644.766 145.817)" fill="none" stroke="#a6b4ed" stroke-linecap="round" stroke-miterlimit="10" stroke-width="1.294"/>
    <path id="Path-36" data-name="Path" d="M.129,0V23.567" transform="translate(647.77 145.781)" fill="none" stroke="#a6b4ed" stroke-linecap="round" stroke-miterlimit="10" stroke-width="1.294"/>
    <path id="Path-37" data-name="Path" d="M.536.406c1.656.517,14.08,7.9,14.08,7.9L29.269,0l.259,17.544L14.781,11.2,0,17.148Z" transform="translate(357.541 264.433)" fill="#fff"/>
    <path id="Path-38" data-name="Path" d="M11.907,4.27a4.61,4.61,0,0,0-3.79-2.031A5.079,5.079,0,0,0,5.711,2.8,5.63,5.63,0,0,0,3.871,4.355,7.319,7.319,0,0,0,2.683,6.647,9.265,9.265,0,0,0,2.264,9.47a8.7,8.7,0,0,0,.4,2.657,6.877,6.877,0,0,0,1.151,2.2,5.469,5.469,0,0,0,1.842,1.506,5.348,5.348,0,0,0,2.46.551,4.455,4.455,0,0,0,2.372-.626,5.4,5.4,0,0,0,1.728-1.757l1.8,1.532a8.346,8.346,0,0,1-.621.789,6.432,6.432,0,0,1-1.175,1.035,7.9,7.9,0,0,1-1.762.9,6.747,6.747,0,0,1-2.383.388,6.985,6.985,0,0,1-3.363-.8,8.279,8.279,0,0,1-2.548-2.106A9.467,9.467,0,0,1,.554,12.8,10.3,10.3,0,0,1,0,9.478a11.661,11.661,0,0,1,.6-3.8A9.218,9.218,0,0,1,2.272,2.671,7.526,7.526,0,0,1,4.859.7,7.762,7.762,0,0,1,8.184,0a7.355,7.355,0,0,1,3.05.675,5.821,5.821,0,0,1,2.447,2.07Z" transform="translate(607.037 113.557)"/>
    <path id="Path-39" data-name="Path" d="M0,.129H8.429" transform="translate(605.149 124.387)" fill="none" stroke="#000" stroke-linecap="round" stroke-miterlimit="10" stroke-width="1.294"/>
    <path id="Path-40" data-name="Path" d="M0,.129H8.429" transform="translate(605.149 121.128)" fill="none" stroke="#000" stroke-linecap="round" stroke-miterlimit="10" stroke-width="1.294"/>
    <path id="Path-41" data-name="Path" d="M35.26,3.18C43.878,3.18,63.877,0,70.063,0c.8,0,.755,7.568.259,9.9-.776,3.622-15.7,6.727-35.062,6.727S.38,13.614.2,9.9C.028,6.471-.246.706.457.6,6.734-.321,26.086,3.18,35.26,3.18Z" transform="translate(605.069 334.453)" fill="#fff" stroke="#000" stroke-linecap="round" stroke-miterlimit="10" stroke-width="0.776"/>
    <ellipse id="Oval-8" data-name="Oval" cx="35.062" cy="6.722" rx="35.062" ry="6.722" transform="translate(605.444 328.789)" fill="#fff" stroke="#000" stroke-linecap="round" stroke-miterlimit="10" stroke-width="0.776"/>
    <path id="Path-42" data-name="Path" d="M35.258,3.2c8.621,0,28.617-3.2,34.8-3.2.8,0,.758,7.6.259,9.945-.776,3.648-15.7,6.753-35.062,6.753S.38,13.671.2,9.945C.028,6.5-.246.709.455.605,6.735-.323,26.087,3.2,35.258,3.2Z" transform="translate(608.059 323.545)" fill="#fff" stroke="#000" stroke-linecap="round" stroke-miterlimit="10" stroke-width="0.776"/>
    <ellipse id="Oval-9" data-name="Oval" cx="35.062" cy="6.753" rx="35.062" ry="6.753" transform="translate(608.434 317.856)" fill="#fff" stroke="#000" stroke-linecap="round" stroke-miterlimit="10" stroke-width="0.776"/>
    <path id="Path-43" data-name="Path" d="M35.258,3.193C43.879,3.193,63.875,0,70.061,0c.8,0,.758,7.6.259,9.945-.776,3.648-15.7,6.753-35.062,6.753S.38,13.671.2,9.945C.028,6.5-.246.709.455.605,6.735-.326,26.087,3.193,35.258,3.193Z" transform="translate(603.19 312.353)" fill="#fff" stroke="#000" stroke-linecap="round" stroke-miterlimit="10" stroke-width="0.776"/>
    <ellipse id="Oval-10" data-name="Oval" cx="35.062" cy="6.753" rx="35.062" ry="6.753" transform="translate(603.563 306.663)" fill="#fff" stroke="#000" stroke-linecap="round" stroke-miterlimit="10" stroke-width="0.776"/>
    <path id="Path-44" data-name="Path" d="M35.26,3.2c8.618,0,28.617-3.2,34.8-3.2.8,0,.755,7.6.259,9.945-.776,3.648-15.7,6.753-35.062,6.753S.382,13.671.2,9.945C.028,6.5-.246.709.457.605,6.731-.323,26.084,3.2,35.26,3.2Z" transform="translate(603.688 300.221)" fill="#fff" stroke="#000" stroke-linecap="round" stroke-miterlimit="10" stroke-width="0.776"/>
    <ellipse id="Oval-11" data-name="Oval" cx="35.062" cy="6.753" rx="35.062" ry="6.753" transform="translate(604.059 294.532)" fill="#fff" stroke="#000" stroke-linecap="round" stroke-miterlimit="10" stroke-width="0.776"/>
    <path id="Path-45" data-name="Path" d="M35.258,3.193C43.878,3.193,63.877,0,70.061,0c.8,0,.758,7.6.259,9.945-.776,3.648-15.7,6.753-35.062,6.753S.38,13.671.2,9.945C.028,6.5-.246.709.457.605,6.734-.326,26.076,3.193,35.258,3.193Z" transform="translate(600.712 291.906)" fill="#fff" stroke="#000" stroke-linecap="round" stroke-miterlimit="10" stroke-width="0.776"/>
    <ellipse id="Oval-12" data-name="Oval" cx="35.062" cy="6.753" rx="35.062" ry="6.753" transform="translate(601.087 285.699)" fill="#fff" stroke="#000" stroke-linecap="round" stroke-miterlimit="10" stroke-width="0.776"/>
    <path id="Path-46" data-name="Path" d="M35.26,3.34C43.878,3.34,63.877,0,70.063,0c.8,0,.755,7.953.259,10.4-.776,3.816-15.7,7.066-35.062,7.066S.38,14.3.2,10.4C.028,6.8-.246.74.457.631,6.734-.339,26.086,3.34,35.26,3.34Z" transform="translate(608.127 281.829)" fill="#fff" stroke="#000" stroke-linecap="round" stroke-miterlimit="10" stroke-width="0.776"/>
    <ellipse id="Oval-13" data-name="Oval" cx="35.062" cy="6.753" rx="35.062" ry="6.753" transform="translate(608.502 275.614)" fill="#fff" stroke="#000" stroke-linecap="round" stroke-miterlimit="10" stroke-width="0.776"/>
    <path id="Shape-4" data-name="Shape" d="M18,4.323a10.515,10.515,0,0,0,2.174-.342A3.985,3.985,0,0,0,21.5,3.394l-6.592-.065a5.066,5.066,0,0,1-2.686,1.71,14.756,14.756,0,0,1-4.342.517,12.936,12.936,0,0,1-4.325-.668q-1.747-.639-2-1.684H0V2.327l1.553.016A2.635,2.635,0,0,1,3.278.833,12.7,12.7,0,0,1,7.052.144l.5,1.532a4.483,4.483,0,0,0-2.525.7l6.15.059A5.106,5.106,0,0,1,13.855.488,13.582,13.582,0,0,1,18.035,0a15.2,15.2,0,0,1,4.792.709,3.5,3.5,0,0,1,2.368,1.862l2.941.029v.878l-2.861-.029a3.083,3.083,0,0,1-2.049,1.677,16.232,16.232,0,0,1-4.807.776Z" transform="translate(629.197 279.147)" fill="#a6b4ed"/>
    <circle id="Oval-14" data-name="Oval" cx="22.886" cy="22.886" r="22.886" transform="translate(237.834 95.385)" fill="none" stroke="#000" stroke-miterlimit="10" stroke-width="0.776"/>
  </g>
</svg>
