<svg xmlns="http://www.w3.org/2000/svg" width="32" height="32" viewBox="0 0 32 32">
  <g id="Group_2" data-name="Group 2" transform="translate(-327 -83)">
    <g id="Group_1" data-name="Group 1">
      <circle id="Oval" cx="16" cy="16" r="16" transform="translate(327 83)" fill="#fc0"/>
      <g id="sports-and-competition" transform="translate(337 90)">
        <path id="Path" d="M5.8,0H2.2C.986,0,0,.617,0,1.375v.25C0,1.832.269,2,.6,2H7.4c.331,0,.6-.168.6-.375v-.25C8,.617,7.014,0,5.8,0Z" transform="translate(2 16)" fill="#fff"/>
        <path id="Path-2" data-name="Path" d="M1,0A.958.958,0,0,0,0,.909V4.091A.958.958,0,0,0,1,5a.958.958,0,0,0,1-.909V.909A.958.958,0,0,0,1,0Z" transform="translate(5 12)" fill="#fff"/>
        <path id="Shape" d="M5.821,12.972C5.585,12.9.032,11.044,0,6.5V1.243A1.268,1.268,0,0,1,1.288,0h9.424A1.267,1.267,0,0,1,12,1.243V6.5c0,4.544-5.584,6.4-5.821,6.472a.586.586,0,0,1-.357,0Z" fill="#fff"/>
      </g>
    </g>
  </g>
</svg>
