<svg id="account_balance-24px" xmlns="http://www.w3.org/2000/svg" width="24" height="24" viewBox="0 0 18 18">
  <path id="Path" d="M0,0H18V18H0Z" fill="none"/>
  <path id="Shape" d="M1.125,15.557a1.125,1.125,0,0,1,0-2.25h12a1.125,1.125,0,0,1,0,2.25ZM10.5,10.682v-3a1.125,1.125,0,1,1,2.25,0v3a1.125,1.125,0,0,1-2.25,0Zm-4.5,0v-3a1.125,1.125,0,0,1,2.25,0v3a1.125,1.125,0,0,1-2.25,0Zm-4.5,0v-3a1.125,1.125,0,0,1,2.25,0v3a1.125,1.125,0,0,1-2.25,0ZM.938,5.057A.935.935,0,0,1,.5,3.294L6.428.175a1.479,1.479,0,0,1,1.395,0l5.925,3.119a.935.935,0,0,1-.427,1.763Z" transform="translate(1.5 0.943)" fill="#2548e6"/>
</svg>
