<?xml version="1.0" encoding="UTF-8"?>
<svg width="32px" height="32px" viewBox="0 0 32 32" version="1.1" xmlns="http://www.w3.org/2000/svg" xmlns:xlink="http://www.w3.org/1999/xlink">
    <title>Group 5</title>
    <g id="Design" stroke="none" stroke-width="1" fill="none" fill-rule="evenodd">
        <g id="List-of-categories" transform="translate(-55.000000, -79.000000)">
            <g id="Group-5" transform="translate(55.000000, 79.000000)">
                <circle id="Oval" fill="#32C5FF" cx="16" cy="16" r="16"></circle>
                <g id="Bill-2" transform="translate(7.000000, 9.000000)" fill="#FFFFFF" fill-rule="nonzero">
                    <g id="Bill">
                        <path d="M6.1638034,9.06725044 C6.1638034,8.85006553 5.96201369,8.67383816 5.71289065,8.67383816 C5.46376752,8.67383816 5.26197785,8.85006553 5.26197785,9.06725044 C5.26197785,9.28459227 5.46376752,9.46066272 5.71289065,9.46066272 C5.96201369,9.46066272 6.1638034,9.28459227 6.1638034,9.06725044 L6.1638034,9.06725044 Z" id="Path"></path>
                        <path d="M5.71289065,5.88040707 C5.46426577,5.88040707 5.26197785,6.05679135 5.26197785,6.27381931 C5.26197785,6.49069039 5.46426577,6.66723159 5.71289065,6.66723159 C5.96151548,6.66723159 6.16396947,6.49069039 6.16396947,6.27381931 C6.16396947,6.05679135 5.96151548,5.88040707 5.71289065,5.88040707 Z" id="Path"></path>
                        <path d="M6.1638034,3.48038822 C6.1638034,3.2630464 5.96201369,3.08697599 5.71289065,3.08697599 C5.46376752,3.08697599 5.26197785,3.2630464 5.26197785,3.48038822 C5.26197785,3.69757314 5.46376752,3.8738005 5.71289065,3.8738005 C5.96201369,3.8738005 6.1638034,3.69757314 6.1638034,3.48038822 Z" id="Path"></path>
                        <g id="Group-4" transform="translate(0.000000, 0.366986)">
                            <path d="M9.94897959,12.7365456 L9.94897959,11.6099773 L2.33146835e-14,11.6099773 L2.33146835e-14,12.7412534 C0.00498248299,13.8030114 0.916772959,14.6617078 2.04048418,14.6631202 L10.9255421,14.6631202 C10.8526321,14.6133748 10.7850366,14.5568816 10.7240846,14.4944253 C10.2284957,14.029298 9.94964392,13.3965743 9.94897959,12.7365456 Z" id="Path"></path>
                            <path d="M14.6259032,3.37452628 L7.89620536,3.37452628 C7.7317841,3.37452628 7.59858631,3.24867204 7.59858631,3.09331576 C7.59858631,2.93811643 7.7317841,2.81210523 7.89620536,2.81210523 L14.6259032,2.81210523 C14.6245333,5.04557381 14.6245333,5.94601242 14.6259032,5.51342107 C14.6263456,5.35766051 14.5920192,0.15438363 14.6259032,-4.06785716e-13 L2.83385816,-4.06785716e-13 L2.75513525,11.0475563 L10.2618782,11.0475563 C10.3376116,11.0447316 10.4110199,11.0717228 10.4646644,11.1222528 C10.5183089,11.1727829 10.5470411,11.2421439 10.5442177,11.313702 L10.5442177,12.7368595 C10.5496984,13.8009714 11.4631497,14.661237 12.5893521,14.6631202 L12.5959954,14.6631202 C13.7178797,14.6609232 14.6259032,13.8011283 14.6259032,12.7412534 L14.6259032,5.39400077 L14.6259032,3.37452628 Z M5.71289065,9.65625468 C5.13608763,9.65625468 4.66673975,9.22737722 4.66673975,8.70026444 C4.66673975,8.17330854 5.13608763,7.74443112 5.71289065,7.74443112 C6.28969362,7.74443112 6.75920757,8.17330854 6.75920757,8.70026444 C6.75920757,9.22737722 6.28985969,9.65625468 5.71289065,9.65625468 Z M5.71289065,6.86266664 C5.13608763,6.86266664 4.66673975,6.43394613 4.66673975,5.90683331 C4.66673975,5.37972054 5.13608763,4.95100003 5.71289065,4.95100003 C6.28969362,4.95100003 6.75920757,5.37972054 6.75920757,5.90683331 C6.75920757,6.43378921 6.28985969,6.86266664 5.71289065,6.86266664 Z M5.71289065,4.06923555 C5.13608763,4.06923555 4.66673975,3.64035812 4.66673975,3.11340222 C4.66673975,2.58628941 5.13608763,2.15741198 5.71289065,2.15741198 C6.28969362,2.15741198 6.75920757,2.58613249 6.75920757,3.11324531 C6.75920757,3.64035812 6.28985969,4.06923555 5.71289065,4.06923555 Z M12.4309099,8.99873675 L7.89620536,8.99873675 C7.7317841,8.99873675 7.59858631,8.87288251 7.59858631,8.71752623 C7.59858631,8.5623269 7.7317841,8.4363157 7.89620536,8.4363157 L12.4309099,8.4363157 C12.5953311,8.4363157 12.7285289,8.5623269 12.7285289,8.71752623 C12.7285289,8.87288251 12.5953311,8.99873675 12.4309099,8.99873675 Z M12.7285289,5.90542099 C12.7285289,6.06077727 12.5953311,6.18663152 12.4309099,6.18663152 L7.89620536,6.18663152 C7.7317841,6.18663152 7.59858631,6.06077727 7.59858631,5.90542099 C7.59858631,5.75022167 7.7317841,5.62421047 7.89620536,5.62421047 L12.4309099,5.62421047 C12.5953311,5.62421047 12.7285289,5.75022167 12.7285289,5.90542099 Z" id="Shape"></path>
                        </g>
                    </g>
                </g>
            </g>
        </g>
    </g>
</svg>