<svg xmlns="http://www.w3.org/2000/svg" width="24" height="24" viewBox="0 0 32 32" fill="#282C43" >
    <path d="M10.3909828,14.0005643 L10.3909828,6.89035467 C11.886968,7.14691796 13.2975684,7.7710449 14.5035281,8.70829781 C14.7439455,8.87592334 15.026041,8.96686112 15.318095,8.97086113 C16.2538234,8.97086113 17.0167537,8.20529625 17.0266507,7.2539183 C17.0286178,6.84591703 16.8716795,6.45404081 16.589584,6.16316491 C14.8472187,4.64616019 12.6618238,3.75134491 10.3711273,3.618032 L10.3711273,1.23446209 C10.3711273,0.553709975 9.82875893,0.00227076174 9.15920476,0.00227076174 C9.14531206,0.000133545229 9.1313579,0.000133545229 9.1174652,0.000133545229 C8.43801402,-0.00985427594 7.87775725,0.541647438 7.86779877,1.23446209 L7.86779877,3.53721925 C3.39767022,3.86040775 0.357997555,6.66816648 0.357997555,10.4050531 C0.357997555,14.9903173 4.1923816,16.2629463 7.86779877,17.2728869 L7.86779877,25.3527245 C5.92872268,25.0880987 4.10097257,24.2700337 2.60295884,22.9894047 C2.32086335,22.761154 1.97114854,22.6339036 1.60956962,22.6258411 C0.693696722,22.6904663 -0.0115727425,23.4701562 0.000143877692,24.4034091 C-0.00167573352,24.8114104 0.155262551,25.2032866 0.437358043,25.4941625 C2.48966575,27.3727308 5.12804851,28.4534217 7.88759279,28.544297 L7.88759279,30.7662414 C7.88759279,30.7803664 7.8895599,30.7945539 7.8895599,30.808679 C7.92134097,31.4994936 8.49948613,32.0327453 9.17893731,31.9984327 C9.84849148,31.9984327 10.3908599,31.4469935 10.3908599,30.7662414 L10.3908599,28.5039218 C15.8146052,28.1403582 18,24.7872228 18,21.2320867 C18,16.4649469 14.0664615,15.0105674 10.3909828,14.0005643 Z M7.88771573,13.3541873 C5.72217641,12.7078102 4.0334762,12.0412457 4.0334762,10.1626773 C4.0334762,8.284109 5.56327102,6.93072979 7.88771573,6.74897923 L7.88771573,13.3541873 L7.88771573,13.3541873 Z M10.3909828,25.3930997 L10.3909828,18.0405143 C12.6360056,18.6868913 14.3842722,19.5554565 14.3644167,21.6764006 C14.3644167,23.2115929 13.3313165,25.029536 10.3909828,25.3930997 Z" id="Shape"></path>
</svg>