<svg xmlns="http://www.w3.org/2000/svg" width="18" height="18" viewBox="-5 -5 18 18" fill="#282C43" >
    <g id="dollar" fill="#282C43" fill-rule="nonzero">
        <path d="M4.61821458,6.12524686 L4.61821458,3.01453017 C5.28309687,3.12677661 5.91003038,3.39983214 6.4460125,3.80988029 C6.55286468,3.88321646 6.67824045,3.92300174 6.80804222,3.92475174 C7.2239215,3.92475174 7.56300163,3.58981711 7.5674003,3.17358925 C7.56827457,2.9950887 7.49852423,2.82364285 7.37314845,2.69638465 C6.59876385,2.03269508 5.62747727,1.6412134 4.60938992,1.582889 L4.60938992,0.540077165 C4.60938992,0.242248114 4.3683373,0.00099345826 4.07075767,0.00099345826 C4.06458314,5.84260378e-05 4.05838129,5.84260378e-05 4.05220676,5.84260378e-05 C3.75022845,-0.00431124572 3.50122545,0.236970754 3.49679945,0.540077165 L3.49679945,1.54753342 C1.51007565,1.68892839 0.159110024,2.91732283 0.159110024,4.55221073 C0.159110024,6.55826383 1.86328071,7.115039 3.49679945,7.55688803 L3.49679945,11.091817 C2.63498786,10.9760432 1.82265448,10.6181397 1.1568706,10.0578646 C1.03149482,9.95800487 0.876066019,9.90233282 0.715364275,9.89880546 C0.308309654,9.92707899 -0.0051434411,10.2681933 6.39456409e-05,10.6764915 C-0.000744770453,10.854992 0.0690055784,11.0264379 0.194381352,11.1536961 C1.10651811,11.9755697 2.27913267,12.448372 3.5055968,12.4881299 L3.5055968,13.4602306 C3.5055968,13.4664103 3.50647107,13.4726174 3.50647107,13.4787971 C3.52059599,13.7810285 3.77754939,14.0143261 4.07952769,13.9993143 C4.37710732,13.9993143 4.61815994,13.7580596 4.61815994,13.4602306 L4.61815994,12.4704658 C7.02871342,12.3114067 8,10.84441 8,9.28903794 C8,7.20341428 6.25176065,6.56712324 4.61821458,6.12524686 Z M3.50565144,5.84245692 C2.54318951,5.55966698 1.79265609,5.26804498 1.79265609,4.44617133 C1.79265609,3.62429769 2.4725649,3.03219428 3.50565144,2.95267841 L3.50565144,5.84245692 L3.50565144,5.84245692 Z M4.61821458,11.1094811 L4.61821458,7.89272501 C5.61600247,8.17551495 6.39300988,8.55551223 6.38418522,9.48342527 C6.38418522,10.1550719 5.92502958,10.950422 4.61821458,11.1094811 Z" id="Shape"></path>
    </g>
</svg>