<?xml version="1.0" encoding="UTF-8"?>
<svg width="32px" height="32px" viewBox="0 0 32 32" version="1.1" xmlns="http://www.w3.org/2000/svg" xmlns:xlink="http://www.w3.org/1999/xlink">
    <title>Icon_education</title>
    <g id="Design" stroke="none" stroke-width="1" fill="none" fill-rule="evenodd">
        <g id="List-of-categories" transform="translate(-55.000000, -132.000000)">
            <g id="Icon_education" transform="translate(55.000000, 132.000000)">
                <g id="Group-5" fill="#6E6CF2">
                    <circle id="Oval" cx="16" cy="16" r="16"></circle>
                </g>
                <g id="graduate" transform="translate(6.000000, 9.000000)" fill="#FFFFFF" fill-rule="nonzero">
                    <path d="M19.6090231,3.42330439 L10.194961,0.0340791893 C10.0688282,-0.0113597298 9.931211,-0.0113597298 9.80507819,0.0340791893 L0.391016077,3.42330439 C0.156953587,3.50756568 0.00031296823,3.73316593 0,3.98642811 C-0.000312031744,4.2396903 0.155820774,4.46564927 0.389687952,4.55046859 L9.80375006,7.96544251 C9.86722662,7.98848084 9.93363287,8 10,8 C10.0664063,8 10.1327735,7.98848084 10.19625,7.96544251 L19.6103122,4.55046859 C19.8441793,4.46564927 20.0002731,4.2396903 20,3.98642811 C19.9996871,3.73316593 19.8430465,3.50756568 19.6090231,3.42330439 Z" id="Path"></path>
                    <path d="M17.4979253,10.7766429 L17.4979253,5 L16.5020747,5.47086439 L16.5020747,10.7766429 C16.2021245,11.0062694 16,11.4365154 16,11.9298965 C16,12.4232334 16.2021245,12.8535236 16.5020747,13.08315 L16.5020747,16.3377435 C16.5020747,16.7034857 16.7250124,17 17,17 C17.2749876,17 17.4979253,16.7034857 17.4979253,16.3377435 L17.4979253,13.0831941 C17.7978755,12.8536119 18,12.4232776 18,11.9299406 C18,11.4365595 17.7979087,11.0062694 17.4979253,10.7766429 Z" id="Path"></path>
                    <path d="M10,8.6757582 C9.79480061,8.6757582 9.59270969,8.64687436 9.39930657,8.58993192 L4,7 L4,9.1789313 C4,9.71201155 4.67139138,10.1628306 5.99552326,10.5188116 C7.14968517,10.8291067 8.57185366,11 10,11 C11.4281463,11 12.850275,10.8291067 14.0044767,10.5188116 C15.3286086,10.1628306 16,9.71201155 16,9.1789313 L16,7 L10.6007333,8.58993192 C10.4072903,8.64687436 10.2051994,8.6757582 10,8.6757582 L10,8.6757582 Z" id="Path"></path>
                </g>
            </g>
        </g>
    </g>
</svg>