<svg id="undraw_data_trends_b0wg" xmlns="http://www.w3.org/2000/svg" width="700" height="550" viewBox="0 0 437 330">
  <path id="Path" d="M224.929,53.092c-27.474,4.6-54.991,2.124-81.48-1.306S90.532,43.976,63,44.826c-17.7.552-37.39,4.044-49.638,14.759C1.579,69.9-.107,83.993,0,96.735c.085,9.591.981,19.522,7.45,27.227C11.945,129.316,18.81,133.2,24,138.146c18.085,17.219,12.956,43.895,1.5,66.487-5.387,10.6-11.971,21-15.584,31.863s-3.971,22.577,2.84,31.588C19.51,277,32.42,282.14,45.853,284.89c27.278,5.589,57.554,2.7,86.837-1.306,64.811-8.934,128.918-23.384,192.794-37.792,23.653-5.334,47.411-10.7,70.167-18.54,12.637-4.349,25.493-9.823,33.585-18.475,10.27-10.989,10.363-26.158.215-35.362-17-15.416-55.1-12.534-68.324-30.094-7.288-9.656-4.321-22.639,1.247-34.057,11.929-24.489,35.3-48.534,31.938-73.142C392,19.221,375.7,5.072,354.031,1.159c-22.7-4.1-51.72,2.746-64.561,19.549C276.23,38,249.186,49.028,224.929,53.092Z" transform="translate(0 12)" fill="#1dfce5" opacity="0.1"/>
  <path id="Path-2" data-name="Path" d="M103,86.67s-5.439-2.223-22.734,5.756S60.81,99.391,56.33,98.171s-6.958-1.508-11.775-8.162c0,0-3.382-18.455-6.66-21.312s-17.2,1.629-17.2,1.629S4,74.173.816,51.738c0,0,2.258-16.908-.816-22.1,0,0,6.185,2.69,16.444-1.656S34.88,32.65,34.88,32.65s2.582,6.72,2.319,10.728,1.365,5.515,6.251,3.58c0,0,2.4-3.432-1-9.107s-5.822-9.9-4.875-14.3S41.25,13.056,50.014,9.982,70.672,6.34,76.385,3.949,83.479,0,83.479,0s-3.514,3.541,4.762,18.552,3,21.526,3,21.526-4.407,10.553-23.851,9.7c0,0-18.737.688-8.524,8.676,0,0,6.545-1.337,16.325-4.466s16.843,9.779,18.594,18.758S103,86.67,103,86.67Z" transform="translate(300)" fill="#1dfce5"/>
  <path id="Path-3" data-name="Path" d="M14.848.027l.1-.027C15.707,2.8,7.286,14.061.086,23L0,22.935C10.159,10.314,15.431,2.178,14.848.027Z" transform="translate(362 11)" fill="#444053"/>
  <path id="Path-4" data-name="Path" d="M18.96,0,19,.114C13.688,7.264,7,15.8,1.656,22.121c-.51.6-1.016,1.236-1.5,1.879L0,23.871c.488-.646,1-1.282,1.509-1.9C6.857,15.664,13.648,7.146,18.96,0Z" transform="translate(342 34)" fill="#444053"/>
  <path id="Path-5" data-name="Path" d="M13.879,0,14,.2C3.069,13.371,2.347,33.825,2.3,34L0,31.43C.04,31.243,2.876,13.258,13.879,0Z" transform="translate(328 58)" fill="#444053"/>
  <path id="Path-6" data-name="Path" d="M82,42s-12.441-6.292-22.107-4.034S28.4,29.985,28.4,29.985s-9.253-3.663-11.116-7.837c0,0-6.349-6.542-6.711-9.928S4.032.33,0,0" transform="translate(308 36)" fill="none" stroke="#444053" stroke-miterlimit="10" stroke-width="1"/>
  <path id="Path-7" data-name="Path" d="M5,9S-.6,4.845.053,0" transform="translate(383 75)" fill="none" stroke="#444053" stroke-miterlimit="10" stroke-width="1"/>
  <path id="Path-8" data-name="Path" d="M9,16S.825,12.75,0,0" transform="translate(369 74)" fill="none" stroke="#444053" stroke-miterlimit="10" stroke-width="1"/>
  <path id="Path-9" data-name="Path" d="M7,19S-2.519,12.085.644,0" transform="translate(358 76)" fill="none" stroke="#444053" stroke-miterlimit="10" stroke-width="1"/>
  <path id="Path-10" data-name="Path" d="M3,19S-3.265,7.491,2.312,0" transform="translate(345 72)" fill="none" stroke="#444053" stroke-miterlimit="10" stroke-width="1"/>
  <path id="Path-11" data-name="Path" d="M5,0S-1.13,1.886.185,5" transform="translate(384 71)" fill="none" stroke="#444053" stroke-miterlimit="10" stroke-width="1"/>
  <path id="Path-12" data-name="Path" d="M9,0S.209,2.75,0,15" transform="translate(374 59)" fill="none" stroke="#444053" stroke-miterlimit="10" stroke-width="1"/>
  <path id="Path-13" data-name="Path" d="M8,0S-.6,9.422.033,18" transform="translate(363 57)" fill="none" stroke="#444053" stroke-miterlimit="10" stroke-width="1"/>
  <path id="Path-14" data-name="Path" d="M8,0S-1.053,7.069.1,11" transform="translate(349 61)" fill="none" stroke="#444053" stroke-miterlimit="10" stroke-width="1"/>
  <path id="Path-15" data-name="Path" d="M8,.753S.981,1.659,0,0" transform="translate(343 57)" fill="none" stroke="#444053" stroke-miterlimit="10" stroke-width="1"/>
  <path id="Path-16" data-name="Path" d="M0,0S3.975,6.183,5,4.8" transform="translate(342 48)" fill="none" stroke="#444053" stroke-miterlimit="10" stroke-width="1"/>
  <path id="Path-17" data-name="Path" d="M23,4.838S4.245,6.371,0,0" transform="translate(357 41)" fill="none" stroke="#444053" stroke-miterlimit="10" stroke-width="1"/>
  <path id="Path-18" data-name="Path" d="M0,0S8.689,18.639,15,21" transform="translate(339 23)" fill="none" stroke="#444053" stroke-miterlimit="10" stroke-width="1"/>
  <path id="Path-19" data-name="Path" d="M0,0S4.912,17.528,11,23" transform="translate(347 16)" fill="none" stroke="#444053" stroke-miterlimit="10" stroke-width="1"/>
  <path id="Path-20" data-name="Path" d="M23,.077S8.629,6.7,0,0" transform="translate(363 32)" fill="none" stroke="#444053" stroke-miterlimit="10" stroke-width="0.75"/>
  <path id="Path-21" data-name="Path" d="M0,0S3.409,12.9,8,16" transform="translate(361 11)" fill="none" stroke="#444053" stroke-miterlimit="10" stroke-width="0.75"/>
  <path id="Path-22" data-name="Path" d="M11,0S2.989,1.913,0,.447" transform="translate(373 18)" fill="none" stroke="#444053" stroke-miterlimit="10" stroke-width="0.75"/>
  <path id="Path-23" data-name="Path" d="M3,0S2.977,10.273,0,11" transform="translate(333 54)" fill="none" stroke="#444053" stroke-miterlimit="10" stroke-width="1"/>
  <path id="Path-24" data-name="Path" d="M0,4.939S12.317,5.92,18,0" transform="translate(312 63)" fill="none" stroke="#444053" stroke-miterlimit="10" stroke-width="1"/>
  <path id="Path-25" data-name="Path" d="M11,0S8.073,11.032,0,14" transform="translate(322 40)" fill="none" stroke="#444053" stroke-miterlimit="10" stroke-width="1"/>
  <path id="Path-26" data-name="Path" d="M0,4.445A16.39,16.39,0,0,0,16,0" transform="translate(304 51)" fill="none" stroke="#444053" stroke-miterlimit="10" stroke-width="1"/>
  <path id="Path-27" data-name="Path" d="M5,0S4.345,9.54,0,14" transform="translate(318 31)" fill="none" stroke="#444053" stroke-miterlimit="10" stroke-width="1"/>
  <path id="Path-28" data-name="Path" d="M0,2s6.479.042,8-2" transform="translate(306 38)" fill="none" stroke="#444053" stroke-miterlimit="10" stroke-width="1"/>
  <ellipse id="Oval" cx="136" cy="7" rx="136" ry="7" transform="translate(124 305)" fill="#1dfce5" opacity="0.1"/>
  <path id="Path-29" data-name="Path" d="M12.73.017S-1.546-.791.138,8.59A2.233,2.233,0,0,0,1.407,11s.024-.693,1.463-.46a6.844,6.844,0,0,0,1.55.07,3.34,3.34,0,0,0,1.9-.742h0s4.013-1.554,5.57-7.7c0,0,1.154-1.339,1.111-1.683l-2.412.964a3.816,3.816,0,0,1,.178,2.985s-.079-2.925-.542-2.859c-.095,0-1.253.567-1.253.567s1.419,2.836.348,4.9c0,0,.4-3.5-.791-4.7l-1.7.927S8.476,6.217,7.369,8.6c0,0,.285-3.667-.89-5.1L4.942,4.615S6.5,7.5,5.55,9.487c0,0-.127-4.271-.941-4.594A9.1,9.1,0,0,0,3.06,6.462s1.063,2.1.4,3.2c0,0-.4-2.844-.735-2.859A9.189,9.189,0,0,0,1.241,9.984,6.548,6.548,0,0,1,2.4,6.625a4.118,4.118,0,0,0-2.052,1s.21-1.335,2.372-1.45a8.861,8.861,0,0,1,1.4-1.516,9.4,9.4,0,0,0-3.471.371S1.8,3.77,4.515,4.341L6.033,3.18a13.187,13.187,0,0,0-4.052.037s1.388-1.112,4.46-.3L8.093,1.99a16.016,16.016,0,0,0-3.87-.315S5.748.9,8.571,1.742l1.186-.5S7.982.915,7.46.874,6.91.685,6.91.685a6.547,6.547,0,0,1,3.341.349A15.743,15.743,0,0,0,12.73.017Z" transform="translate(59 318)" fill="#1dfce5"/>
  <ellipse id="Oval-2" data-name="Oval" cx="9.5" cy="1.5" rx="9.5" ry="1.5" transform="translate(52 327)" fill="#1dfce5" opacity="0.1"/>
  <path id="Path-30" data-name="Path" d="M7.831.011S-.951-.5.085,5.461A1.447,1.447,0,0,0,.866,7s0-.444.9-.293a4.2,4.2,0,0,0,.954.046,2.012,2.012,0,0,0,1.165-.47h0s2.468-.989,3.431-4.909c0,0,.708-.838.682-1.077L6.515.913a2.5,2.5,0,0,1,.108,1.9S6.575.95,6.29,1c-.056,0-.768.356-.768.356A4.189,4.189,0,0,1,5.734,4.48s.25-2.23-.483-2.993l-1.044.591A4.361,4.361,0,0,1,4.534,5.47s.177-2.339-.548-3.249l-.945.717S4,4.778,3.416,6.044c0,0-.078-2.721-.578-2.935a5.582,5.582,0,0,0-.954,1s.652,1.337.246,2.042c0,0-.246-1.815-.432-1.82A5.928,5.928,0,0,0,.788,6.359,4.312,4.312,0,0,1,1.5,4.216a2.533,2.533,0,0,0-1.264.633S.365,4.011,1.7,3.927a5.8,5.8,0,0,1,.863-.968A5.641,5.641,0,0,0,.43,3.2a2.421,2.421,0,0,1,2.382-.419l.932-.738a8.442,8.442,0,0,0-2.494,0,3.12,3.12,0,0,1,2.745-.193l1.018-.587a9.426,9.426,0,0,0-2.382-.2,3.754,3.754,0,0,1,2.68.042L6.036.783S4.944.573,4.62.544,4.284.422,4.284.422A3.923,3.923,0,0,1,6.338.644,9.084,9.084,0,0,0,7.831.011Z" transform="translate(40 315)" fill="#1dfce5"/>
  <ellipse id="Oval-3" data-name="Oval" cx="5.5" cy="1" rx="5.5" ry="1" transform="translate(36 322)" fill="#1dfce5" opacity="0.1"/>
  <path id="Path-31" data-name="Path" d="M7.834.013S-.949-.574.084,6.249A1.723,1.723,0,0,0,.867,8s0-.5.9-.333a3.65,3.65,0,0,0,.954.052,1.891,1.891,0,0,0,1.165-.535h0s2.47-1.129,3.432-5.6c0,0,.715-.975.679-1.228l-1.48.693a3.255,3.255,0,0,1,.107,2.171S6.58,1.09,6.294,1.142c-.057,0-.772.4-.772.4A5.33,5.33,0,0,1,5.736,5.1s.25-2.544-.486-3.415l-1.044.678a5.589,5.589,0,0,1,.329,3.871s.179-2.666-.547-3.708l-.944.82S4,5.448,3.4,6.891c0,0-.075-3.106-.579-3.34a6.273,6.273,0,0,0-.954,1.141s.658,1.525.25,2.33c0,0-.25-2.068-.454-2.08A7.255,7.255,0,0,0,.757,7.255a5.394,5.394,0,0,1,.715-2.445A2.4,2.4,0,0,0,.21,5.536s.129-.971,1.466-1.054A6.257,6.257,0,0,1,2.54,3.376,4.962,4.962,0,0,0,.4,3.65a2.252,2.252,0,0,1,2.381-.5l.933-.844a7.013,7.013,0,0,0-2.5.028s.854-.792,2.742-.218l1.044-.674a8.456,8.456,0,0,0-2.384-.226,3.319,3.319,0,0,1,2.681.048L6,.9S4.91.662,4.592.627,4.235.492,4.235.492A3.447,3.447,0,0,1,6.29.746,8.963,8.963,0,0,0,7.834.013Z" transform="translate(52 305)" fill="#1dfce5"/>
  <ellipse id="Oval-4" data-name="Oval" cx="7" cy="1" rx="7" ry="1" transform="translate(47 312)" fill="#1dfce5" opacity="0.1"/>
  <path id="Path-32" data-name="Path" d="M90,53.962V57H0V54.529A29.528,29.528,0,0,0,19.281,27.944,29.518,29.518,0,0,0,2.035,0H89.389A29.545,29.545,0,0,0,90,53.962Z" transform="translate(168 248)" fill="#d2d4de"/>
  <path id="Path-33" data-name="Path" d="M87,0A28.912,28.912,0,0,0,70.719,19H16.281A28.912,28.912,0,0,0,0,0Z" transform="translate(171 248)" opacity="0.1"/>
  <path id="Path-34" data-name="Path" d="M0,0V17C0,26.39,6.842,34,15.286,34H277.714C286.158,34,293,26.39,293,17V0Z" transform="translate(66 233)" fill="#d2d4de"/>
  <path id="Path-35" data-name="Path" d="M90,3.549V7H0V4.193A28.51,28.51,0,0,0,6.943,0H84.482A28.9,28.9,0,0,0,90,3.549Z" transform="translate(168 298)" opacity="0.1"/>
  <rect id="Rectangle" width="147" height="9" rx="4.5" transform="translate(138 299)" fill="#d2d4de"/>
  <path id="Path-36" data-name="Path" d="M293,15.2A15.244,15.244,0,0,0,277.714,0H15.286A15.244,15.244,0,0,0,0,15.2V203H293Z" transform="translate(66 32)" fill="#30374e"/>
  <path id="Path-37" data-name="Path" d="M276,7.481v161.05A7.484,7.484,0,0,1,268.5,176H7.5A7.48,7.48,0,0,1,0,168.531V7.481A7.483,7.483,0,0,1,7.5,0h261A7.487,7.487,0,0,1,276,7.481Z" transform="translate(74 47)" fill="#dfe3ef"/>
  <circle id="Oval-5" data-name="Oval" cx="4" cy="4" r="4" transform="translate(209 36)" fill="#fff"/>
  <circle id="Oval-6" data-name="Oval" cx="9" cy="9" r="9" transform="translate(203 241)" fill="#fff"/>
  <path id="Path-38" data-name="Path" d="M276,8H0A8.257,8.257,0,0,1,2.191,2.343,7.269,7.269,0,0,1,7.5,0h261a7.269,7.269,0,0,1,5.307,2.343A8.257,8.257,0,0,1,276,8Z" transform="translate(74 47)" fill="#fff"/>
  <circle id="Oval-7" data-name="Oval" cx="1.5" cy="1.5" r="1.5" transform="translate(80 48)" fill="#dfe3ef"/>
  <circle id="Oval-8" data-name="Oval" cx="1.5" cy="1.5" r="1.5" transform="translate(85 48)" fill="#dfe3ef"/>
  <circle id="Oval-9" data-name="Oval" cx="1.5" cy="1.5" r="1.5" transform="translate(92 48)" fill="#dfe3ef"/>
  <rect id="Rectangle-2" data-name="Rectangle" width="224" height="131" transform="translate(99 75)" fill="#fff"/>
  <rect id="Rectangle-3" data-name="Rectangle" width="29" height="30" transform="translate(120 87)" fill="#dfe3ef"/>
  <rect id="Rectangle-4" data-name="Rectangle" width="29" height="30" transform="translate(157 87)" fill="#dfe3ef"/>
  <rect id="Rectangle-5" data-name="Rectangle" width="29" height="30" transform="translate(195 87)" fill="#1dfce5" opacity="0.2"/>
  <rect id="Rectangle-6" data-name="Rectangle" width="29" height="30" transform="translate(230 87)" fill="#1dfce5" opacity="0.2"/>
  <path id="Shape" d="M1.319,7.683A4.5,4.5,0,1,1,4.5,9,4.5,4.5,0,0,1,1.319,7.683Z" transform="translate(131 90)" fill="#fff"/>
  <path id="Path-39" data-name="Path" d="M4.5,8V1.924l2.8,2.8L8,4,4,0,0,4l.7.7L3.5,1.924V8Z" transform="translate(131 105)" fill="#1dfce5" opacity="0.5"/>
  <path id="Path-40" data-name="Path" d="M4.5,8V1.924l2.8,2.8L8,4,4,0,0,4l.7.7L3.5,1.924V8Z" transform="translate(168 105)" fill="#1dfce5" opacity="0.5"/>
  <path id="Shape-2" data-name="Shape" d="M4.9,3l-.892-.066a.09.09,0,0,1-.07-.04l-.5-.858a.068.068,0,0,1,0-.093l.491-.436a.1.1,0,0,1,.152,0l.011.009.9,1.362a.073.073,0,0,1,0,.085A.1.1,0,0,1,4.907,3ZM3.282,2.875l-3.2-.243a.091.091,0,0,1-.079-.05A.073.073,0,0,1,.023,2.5L1.844.383A.1.1,0,0,1,1.921.349.1.1,0,0,1,2,.383L2,.391,3.371,2.754a.072.072,0,0,1,0,.085.1.1,0,0,1-.079.037ZM3.846.553A.379.379,0,0,1,3.985.1.521.521,0,0,1,4.523.057a.393.393,0,0,1,.222.431.459.459,0,0,1-.454.333h0A.472.472,0,0,1,3.846.553Z" transform="translate(171 94)" fill="#fff"/>
  <path id="Shape-3" data-name="Shape" d="M7.882,9,1.913,8.476a.541.541,0,0,1-.5-.588l.029-.335-.313.025a.54.54,0,0,1-.4-.122.546.546,0,0,1-.2-.368L0,1.133A.543.543,0,0,1,.5.543L6.46,0A.546.546,0,0,1,7.054.5l.122,1.346L8.5,1.958h0a.541.541,0,0,1,.5.587L8.473,8.5a.548.548,0,0,1-.544.5Z" transform="translate(167 91)" fill="#fff"/>
  <rect id="Rectangle-7" data-name="Rectangle" width="65" height="48" transform="translate(121 147)" fill="#dfe3ef"/>
  <path id="Path-41" data-name="Path" d="M33.063,4.379A22.73,22.73,0,0,0,12.648,7.292,22.193,22.193,0,0,0,3.195,25.42,1.589,1.589,0,0,1,1.6,27,1.589,1.589,0,0,1,0,25.42,25.345,25.345,0,0,1,10.749,4.752,25.958,25.958,0,0,1,34,1.355" transform="translate(127 156)" fill="#1dfce5"/>
  <path id="Path-42" data-name="Path" d="M.97,0A25.9,25.9,0,0,1,19,24.4a1.655,1.655,0,0,1-3.308,0A22.675,22.675,0,0,0,0,3.066" transform="translate(162 158)" fill="#fff"/>
  <path id="Path-43" data-name="Path" d="M8.038,0H8.01A3.154,3.154,0,0,0,5.5,1.171,3.154,3.154,0,0,0,2.99,0H2.962A2.787,2.787,0,0,0,0,2.544,5,5,0,0,0,1.265,5.534,20.91,20.91,0,0,0,5.5,9,21.322,21.322,0,0,0,9.735,5.534,5,5,0,0,0,11,2.544,2.787,2.787,0,0,0,8.038,0Z" transform="translate(149 171)" fill="#1dfce5"/>
  <rect id="Rectangle-8" data-name="Rectangle" width="99" height="72" transform="translate(204 127)" fill="#dfe3ef"/>
  <rect id="Rectangle-9" data-name="Rectangle" width="5" height="14" transform="translate(213 181)" fill="#fff"/>
  <rect id="Rectangle-10" data-name="Rectangle" width="5" height="30" transform="translate(222 165)" fill="#fff"/>
  <rect id="Rectangle-11" data-name="Rectangle" width="5" height="45" transform="translate(230 150)" fill="#dfe3ef"/>
  <rect id="Rectangle-12" data-name="Rectangle" width="5" height="56" transform="translate(237 138)" fill="#fff"/>
  <rect id="Rectangle-13" data-name="Rectangle" width="5" height="56" transform="translate(230 138)" fill="#1dfce5"/>
  <rect id="Rectangle-14" data-name="Rectangle" width="5" height="31" transform="translate(244 164)" fill="#1dfce5"/>
  <rect id="Rectangle-15" data-name="Rectangle" width="5" height="39" transform="translate(253 155)" fill="#fff"/>
  <rect id="Rectangle-16" data-name="Rectangle" width="5" height="50" transform="translate(261 145)" fill="#fff"/>
  <rect id="Rectangle-17" data-name="Rectangle" width="5" height="23" transform="translate(268 172)" fill="#1dfce5" opacity="0.2"/>
  <rect id="Rectangle-18" data-name="Rectangle" width="5" height="34" transform="translate(275 162)" fill="#1dfce5" opacity="0.2"/>
  <rect id="Rectangle-19" data-name="Rectangle" width="5" height="45" transform="translate(282 150)" fill="#1dfce5" opacity="0.2"/>
  <rect id="Rectangle-20" data-name="Rectangle" width="5" height="45" transform="translate(291 150)" fill="#1dfce5" opacity="0.2"/>
  <path id="Path-44" data-name="Path" d="M17.834,13.932C15.3,18.973,11.168,24.714,6.49,22.519S-1.681,11.029.848,5.988,9.231-1.366,13.936.829,20.367,8.887,17.834,13.932Z" transform="translate(64 25)" fill="#1dfce5"/>
  <path id="Path-45" data-name="Path" d="M.635,3s-.9-.13-.557-.788a1.057,1.057,0,0,1,.108-.167,1.765,1.765,0,0,0,.294-.611A1.77,1.77,0,0,0,.531,1.2,2.747,2.747,0,0,0,.488.143L2.945,0S1.989.72,2.1,1.092a.237.237,0,0,0,.112.133.578.578,0,0,0,.162.061,1.708,1.708,0,0,1,.186.048c.646.2.387.488.387.488C2.852,2.744.635,3,.635,3Z" transform="translate(72 48)" fill="#1dfce5"/>
  <path id="Path-46" data-name="Path" d="M1,.39,0,1C.013.776.022.549.029.32A3.006,3.006,0,0,0,.935,0,1.566,1.566,0,0,0,1,.39Z" transform="translate(72 48)" fill="#444053"/>
  <path id="Path-47" data-name="Path" d="M.635,2s-.9-.156-.557-.947A2.56,2.56,0,0,0,1.142,1.1,2.377,2.377,0,0,0,2.562,0c.646.238.387.586.387.586C2.852,1.693.635,2,.635,2Z" transform="translate(72 49)" fill="#1dfce5"/>
  <path id="Path-48" data-name="Path" d="M.635,2s-.9-.156-.557-.947A2.56,2.56,0,0,0,1.142,1.1,2.377,2.377,0,0,0,2.562,0c.646.238.387.586.387.586C2.852,1.693.635,2,.635,2Z" transform="translate(72 49)" opacity="0.1"/>
  <path id="Path-49" data-name="Path" d="M3,.014S.662-.18,0,.892A2.783,2.783,0,0,1,.84.926,1.668,1.668,0,0,0,1.386,1,3.04,3.04,0,0,1,3,.014Z" transform="translate(69 26)" fill="#fff" opacity="0.1"/>
  <path id="Path-50" data-name="Path" d="M21.794,15.729A7.126,7.126,0,0,1,20.229,17c-.16.1-.329.2-.5.29C15.3,19.662,7.477,19.7,3.81,16.55A10.07,10.07,0,0,1,.534,5.585C.6,5.41.671,5.238.749,5.062A8.3,8.3,0,0,1,2.17,2.89C4.953-.187,9.606-.813,13.595,1.042a10.192,10.192,0,0,1,1.029.546c.16.092.321.195.478.3a11.471,11.471,0,0,1,1.174.882c.2.176.391.355.614.538l.051.046a30.162,30.162,0,0,1,3.472,3.6c.321.4.626.806.9,1.218a8.877,8.877,0,0,1,.54.855A7.387,7.387,0,0,1,23,12.847a1.864,1.864,0,0,1-.027.382v.057a4.157,4.157,0,0,1-.431,1.4,4.933,4.933,0,0,1-.748,1.042Z" transform="translate(46 48)" fill="#1dfce5"/>
  <path id="Path-51" data-name="Path" d="M21.794,15.729A7.126,7.126,0,0,1,20.229,17c-.16.1-.329.2-.5.29C15.3,19.662,7.477,19.7,3.81,16.55A10.07,10.07,0,0,1,.534,5.585C.6,5.41.671,5.238.749,5.062A8.3,8.3,0,0,1,2.17,2.89C4.953-.187,9.606-.813,13.595,1.042a10.192,10.192,0,0,1,1.029.546c.16.092.321.195.478.3a11.471,11.471,0,0,1,1.174.882c.2.176.391.355.614.538l.051.046a30.162,30.162,0,0,1,3.472,3.6c.321.4.626.806.9,1.218a8.877,8.877,0,0,1,.54.855A7.387,7.387,0,0,1,23,12.847a1.864,1.864,0,0,1-.027.382v.057a4.157,4.157,0,0,1-.431,1.4,4.933,4.933,0,0,1-.748,1.042Z" transform="translate(46 48)" opacity="0.1"/>
  <path id="Path-52" data-name="Path" d="M2.009,2.853a1.034,1.034,0,0,1-.145-.129,1.953,1.953,0,0,0-.55-.389,2.009,2.009,0,0,0-.228-.1,3.276,3.276,0,0,0-.724-.193A2.908,2.908,0,0,0,0,2L.326.621V.6L.467,0A3.774,3.774,0,0,0,.793.5c.167.225.362.444.579.447A.283.283,0,0,0,1.531.894a.408.408,0,0,0,.1-.116c.036-.051.065-.1.1-.138.362-.463.59-.17.59-.17a1.115,1.115,0,0,1,.644,1.007.876.876,0,0,0,.022.193,4.513,4.513,0,0,1-.036.936A.617.617,0,0,1,2.009,2.853Z" transform="translate(69 61)" fill="#1dfce5"/>
  <path id="Path-53" data-name="Path" d="M.512,1C.347.974.176.951,0,.931A7.314,7.314,0,0,0,.553.165c0-.018,0-.033.041-.051S.593.063.642.04A1.7,1.7,0,0,0,1,0L.927.152v.06Z" transform="translate(69 62)" fill="#444053"/>
  <path id="Path-54" data-name="Path" d="M.217,2.831a3.245,3.245,0,0,0,.24-.968A2.63,2.63,0,0,0,.4,1.256C.389,1.194.378,1.139.36,1.08A1.973,1.973,0,0,0,0,.3C.286-.231.466.1.466.1c.326.151.46.648.509,1.152a1.436,1.436,0,0,0,.017.221A7.462,7.462,0,0,1,.964,2.548S.681,3.336.217,2.831Z" transform="translate(71 61)" fill="#1dfce5"/>
  <path id="Path-55" data-name="Path" d="M.217,2.831a3.245,3.245,0,0,0,.24-.968A2.63,2.63,0,0,0,.4,1.256C.389,1.194.378,1.139.36,1.08A1.973,1.973,0,0,0,0,.3C.286-.231.466.1.466.1c.326.151.46.648.509,1.152a1.436,1.436,0,0,0,.017.221A7.462,7.462,0,0,1,.964,2.548S.681,3.336.217,2.831Z" transform="translate(71 61)" opacity="0.1"/>
  <path id="Path-56" data-name="Path" d="M.239,0S-.482,2.019.581,3A1.93,1.93,0,0,1,.8,2.261,1.16,1.16,0,0,0,1,1.8,3.085,3.085,0,0,1,.239,0Z" transform="translate(47 56)" fill="#fff" opacity="0.1"/>
  <path id="Path-57" data-name="Path" d="M14.306,17.212a25.772,25.772,0,0,1-6.313,3.282,7.318,7.318,0,0,1-4.518.252,4.033,4.033,0,0,1-1.532-.934,4.777,4.777,0,0,1-.773-.976C-.353,16.316-.324,11.887.881,8.049A11.833,11.833,0,0,1,4.957,1.771c4.482-3.049,10.209-2.062,12.792,2.2S18.788,14.166,14.306,17.212Z" transform="translate(72 31)" fill="#1dfce5"/>
  <path id="Path-58" data-name="Path" d="M14.306,17.212a25.772,25.772,0,0,1-6.313,3.282,7.318,7.318,0,0,1-4.518.252,4.033,4.033,0,0,1-1.532-.934,4.777,4.777,0,0,1-.773-.976C-.353,16.316-.324,11.887.881,8.049A11.833,11.833,0,0,1,4.957,1.771c4.482-3.049,10.209-2.062,12.792,2.2S18.788,14.166,14.306,17.212Z" transform="translate(72 31)" opacity="0.1"/>
  <path id="Path-59" data-name="Path" d="M3.644,2.661C2.882,3.453.379,2.608.379,2.608s-.852-.551,0-.966a2.106,2.106,0,0,1,.238-.1,2.969,2.969,0,0,0,.757-.4c.076-.06.152-.121.219-.185A3.243,3.243,0,0,0,2.13.334,2.236,2.236,0,0,0,2.316,0L5,1.066a7.85,7.85,0,0,0-.842.153c-.386.092-.766.231-.838.412a.172.172,0,0,0,0,.171.455.455,0,0,0,.129.131q.083.063.157.131C4.143,2.537,3.644,2.661,3.644,2.661Z" transform="translate(72 51)" fill="#1dfce5"/>
  <path id="Path-60" data-name="Path" d="M1,1,0,.226C.039.152.077.078.111,0,.354.239.741.587.99.8A.477.477,0,0,0,1,1Z" transform="translate(74 51)" fill="#444053"/>
  <path id="Path-61" data-name="Path" d="M2.832.751C2.24,1.334.294.711.294.711S-.368.306.294,0a2.944,2.944,0,0,0,.851.4A3.091,3.091,0,0,0,2.817.3C3.22.659,2.832.751,2.832.751Z" transform="translate(72 51)" fill="#1dfce5"/>
  <path id="Path-62" data-name="Path" d="M2.832.751C2.24,1.334.294.711.294.711S-.368.306.294,0a2.944,2.944,0,0,0,.851.4A3.091,3.091,0,0,0,2.817.3C3.22.659,2.832.751,2.832.751Z" transform="translate(72 51)" opacity="0.1"/>
  <path id="Path-63" data-name="Path" d="M3,.686S1.281-.538,0,.284a1.779,1.779,0,0,1,.64.4A1.08,1.08,0,0,0,1.027,1,3.188,3.188,0,0,1,3,.686Z" transform="translate(84 32)" fill="#fff" opacity="0.1"/>
  <g id="Group" transform="translate(42 44)" opacity="0.1">
    <path id="Path-64" data-name="Path" d="M1.146,2.626a1.9,1.9,0,0,0-.312.855C-.691,2.349.342,0,.342,0a3.3,3.3,0,0,0,1.09,2.09,1.232,1.232,0,0,1-.286.536Z" transform="translate(0.237 0.138)"/>
    <path id="Path-65" data-name="Path" d="M0,2.207.5,0A4.545,4.545,0,0,0,.838.554a3.768,3.768,0,0,1-.457,1.7A3.817,3.817,0,0,0,0,2.207Z" transform="translate(20.747 4.545)"/>
    <path id="Path-66" data-name="Path" d="M15.962,3.115c-.065.078-.137.16-.21.238a6.908,6.908,0,0,1-1.524,1.178c-.152.1-.316.185-.484.27C10.05,6.7,3.924,6.994,0,5.191A7.712,7.712,0,0,1,1.592,2.686C4.3-.174,8.83-.756,12.712.969a11.312,11.312,0,0,1,2.6,1.6C15.528,2.75,15.749,2.927,15.962,3.115Z" transform="translate(4.663 4.425)"/>
    <path id="Path-67" data-name="Path" d="M2.114,3.144A.93.93,0,0,1,1.962,3a2.187,2.187,0,0,0-.579-.429c-.076-.039-.16-.078-.24-.11A3.478,3.478,0,0,0,.381,2.25,3.817,3.817,0,0,0,0,2.207L.5,0A4.545,4.545,0,0,0,.838.554c.175.248.4.49.61.493A.269.269,0,0,0,1.615.983a.4.4,0,0,0,.11-.128l.1-.149C2.206.2,2.45.515,2.45.515c.979.33.663,2.356.663,2.356S2.728,3.634,2.114,3.144Z" transform="translate(20.75 4.545)"/>
    <path id="Path-68" data-name="Path" d="M.24,1.593C.164,1.554.08,1.515,0,1.483.1,1.093.221.465.3.064A.269.269,0,0,0,.469,0Z" transform="translate(21.893 5.525)"/>
    <path id="Path-69" data-name="Path" d="M.293,2.728a2.46,2.46,0,0,0,.32-.93A2.086,2.086,0,0,0,0,.29C.381-.221.625.1.625.1c.979.33.663,2.356.663,2.356S.907,3.218.293,2.728Z" transform="translate(22.571 4.961)"/>
    <path id="Path-70" data-name="Path" d="M.293,2.728a2.46,2.46,0,0,0,.32-.93A2.086,2.086,0,0,0,0,.29C.381-.221.625.1.625.1c.979.33.663,2.356.663,2.356S.907,3.218.293,2.728Z" transform="translate(22.571 4.961)" opacity="0.1"/>
    <path id="Path-71" data-name="Path" d="M.833,3.481C-.691,2.349.342,0,.342,0a3.3,3.3,0,0,0,1.09,2.09,1.232,1.232,0,0,1-.286.536,1.9,1.9,0,0,0-.312.855Z" transform="translate(0.253 0.138)" opacity="0.1"/>
  </g>
  <path id="Path-72" data-name="Path" d="M21.8,15.725l-.157.168a7.157,7.157,0,0,1-1.409,1.1l-.149.092c-.114.069-.231.134-.348.2C15.9,19.339,9.529,19.648,5.5,17.666a7.976,7.976,0,0,1-1.691-1.1C-.536,12.825-1.276,6.7,2.169,2.891,4.956-.188,9.607-.815,13.6,1.046c.125.057.247.115.372.18a11.665,11.665,0,0,1,2.3,1.528,31.867,31.867,0,0,1,4.138,4.2c.254.317.5.638.72.959.063.084.117.176.176.26.11.157.211.317.309.478s.153.256.227.382A7.354,7.354,0,0,1,23,12.855a4.208,4.208,0,0,1-.47,1.826,4.777,4.777,0,0,1-.732,1.043Z" transform="translate(41 36)" fill="#1dfce5"/>
  <path id="Path-73" data-name="Path" d="M2.007,2.85a.868.868,0,0,1-.145-.129,2,2,0,0,0-.55-.389,2,2,0,0,0-.228-.1,3.422,3.422,0,0,0-.723-.193Q.182,2.011,0,2L.47,0A4.094,4.094,0,0,0,.8.5c.166.225.38.444.578.447A.282.282,0,0,0,1.533.891a.408.408,0,0,0,.1-.116C1.67.724,1.7.679,1.732.64c.362-.466.593-.174.593-.174.929.3.629,2.136.629,2.136S2.585,3.3,2.007,2.85Z" transform="translate(63 47)" fill="#1dfce5"/>
  <path id="Path-74" data-name="Path" d="M.512,1C.347.974.176.951,0,.931A10.906,10.906,0,0,0,.642.04,1.7,1.7,0,0,0,1,0Z" transform="translate(64 48)" fill="#444053"/>
  <path id="Path-75" data-name="Path" d="M.22,2.829a3.252,3.252,0,0,0,.239-.963A2.649,2.649,0,0,0,0,.3C.285-.231.468.1.468.1c.733.342.5,2.442.5,2.442S.676,3.34.22,2.829Z" transform="translate(66 47)" fill="#1dfce5"/>
  <path id="Path-76" data-name="Path" d="M.22,2.829a3.252,3.252,0,0,0,.239-.963A2.649,2.649,0,0,0,0,.3C.285-.231.468.1.468.1c.733.342.5,2.442.5,2.442S.676,3.34.22,2.829Z" transform="translate(66 47)" opacity="0.1"/>
  <path id="Path-77" data-name="Path" d="M.24,0S-.483,2.019.582,3A1.961,1.961,0,0,1,.8,2.261,1.2,1.2,0,0,0,1,1.8,3.087,3.087,0,0,1,.24,0Z" transform="translate(43 44)" fill="#fff" opacity="0.1"/>
  <g id="Group-2" data-name="Group" transform="translate(55 23)" opacity="0.1">
    <path id="Path-78" data-name="Path" d="M1.606,2.164a1.387,1.387,0,0,1-.653.091A2.276,2.276,0,0,0,0,2.514C.144.564,2.87,0,2.87,0A3.618,3.618,0,0,0,1.606,2.164Z" transform="translate(2.38 0.331)"/>
    <path id="Path-79" data-name="Path" d="M7.657,7.112c.191.282.369.568.533.857a8.993,8.993,0,0,1-1.081-.457A17.089,17.089,0,0,1,0,0,11.449,11.449,0,0,1,2.656,1.718a31.718,31.718,0,0,1,4.111,4.19A14.633,14.633,0,0,1,7.657,7.112Z" transform="translate(0.183 13.04)"/>
    <path id="Path-80" data-name="Path" d="M1.979.621a4.5,4.5,0,0,1-1.8.655A2.754,2.754,0,0,0,0,.933L2.287,0a4.793,4.793,0,0,0-.307.621Z" transform="translate(10.877 20.057)"/>
    <path id="Path-81" data-name="Path" d="M1.194,3.9s-.906.149-.821-.651A1.148,1.148,0,0,1,.416,3.04,2.181,2.181,0,0,0,.471,2.3a1.947,1.947,0,0,0-.039-.263,3.067,3.067,0,0,0-.249-.762A2.754,2.754,0,0,0,0,.933L2.287,0a4.793,4.793,0,0,0-.307.621c-.124.3-.21.629-.093.8a.281.281,0,0,0,.156.1.488.488,0,0,0,.175,0h.194c.688,0,.533.381.533.381C3.212,2.941,1.194,3.9,1.194,3.9Z" transform="translate(10.877 20.053)"/>
    <path id="Path-82" data-name="Path" d="M1.594.11.039.872A1.947,1.947,0,0,0,0,.61C.412.453,1.05.175,1.454,0a.279.279,0,0,0,.14.11Z" transform="translate(11.324 21.47)"/>
    <path id="Path-83" data-name="Path" d="M.826,2.37s-.906.149-.821-.651a2.938,2.938,0,0,0,1.027-.3A2.321,2.321,0,0,0,2.043,0c.688,0,.533.381.533.381C2.845,1.406.826,2.37.826,2.37Z" transform="translate(11.245 21.589)"/>
    <path id="Path-84" data-name="Path" d="M.826,2.37s-.906.149-.821-.651a2.938,2.938,0,0,0,1.027-.3A2.321,2.321,0,0,0,2.043,0c.688,0,.533.381.533.381C2.845,1.406.826,2.37.826,2.37Z" transform="translate(11.245 21.589)" opacity="0.1"/>
    <path id="Path-85" data-name="Path" d="M1.606,2.164a1.387,1.387,0,0,1-.653.091A2.276,2.276,0,0,0,0,2.514C.144.564,2.87,0,2.87,0A3.618,3.618,0,0,0,1.606,2.164Z" transform="translate(2.38 0.331)" opacity="0.1"/>
  </g>
  <path id="Path-86" data-name="Path" d="M14.131,22.289a4.613,4.613,0,0,1-1.823.668,5.1,5.1,0,0,1-1.318,0,7.063,7.063,0,0,1-1.8-.47c-.237-.091-.47-.194-.7-.307l-.047-.023a17.111,17.111,0,0,1-6.957-7.05A10.473,10.473,0,0,1,.055,9.036C.773,3.462,5.58-.556,10.781.063S19.628,5.7,18.91,11.275a30.2,30.2,0,0,1-1.223,5.665c-.051.163-.107.323-.166.482A9.219,9.219,0,0,1,14.131,22.289Z" transform="translate(54 21)" fill="#1dfce5"/>
  <path id="Path-87" data-name="Path" d="M14.131,22.289a4.613,4.613,0,0,1-1.823.668,5.1,5.1,0,0,1-1.318,0,7.063,7.063,0,0,1-1.8-.47c-.237-.091-.47-.194-.7-.307l-.047-.023a17.111,17.111,0,0,1-6.957-7.05A10.473,10.473,0,0,1,.055,9.036C.773,3.462,5.58-.556,10.781.063S19.628,5.7,18.91,11.275a30.2,30.2,0,0,1-1.223,5.665c-.051.163-.107.323-.166.482A9.219,9.219,0,0,1,14.131,22.289Z" transform="translate(54 21)" opacity="0.1"/>
  <path id="Path-88" data-name="Path" d="M1.207,4.986s-.916.19-.829-.836a1.908,1.908,0,0,1,.043-.272A3.456,3.456,0,0,0,.476,2.94,3.186,3.186,0,0,0,.436,2.6a4.755,4.755,0,0,0-.252-.972A3.9,3.9,0,0,0,0,1.191L2.311,0A7.189,7.189,0,0,0,2,.8a1.553,1.553,0,0,0-.094,1.021.293.293,0,0,0,.157.131.4.4,0,0,0,.177,0h.2c.7,0,.538.486.538.486C3.246,3.757,1.207,4.986,1.207,4.986Z" transform="translate(66 43)" fill="#1dfce5"/>
  <path id="Path-89" data-name="Path" d="M1,.13.024,1C.02.9.012.8,0,.7.259.517.659.2.912,0A.257.257,0,0,0,1,.13Z" transform="translate(67 45)" fill="#444053"/>
  <path id="Path-90" data-name="Path" d="M.953,1.991s-1.045.125-.946-.55a4.124,4.124,0,0,0,1.184-.252A2.09,2.09,0,0,0,2.357,0c.794,0,.615.32.615.32C3.281,1.182.953,1.991.953,1.991Z" transform="translate(66 45)" fill="#1dfce5"/>
  <path id="Path-91" data-name="Path" d="M.953,1.991s-1.045.125-.946-.55a4.124,4.124,0,0,0,1.184-.252A2.09,2.09,0,0,0,2.357,0c.794,0,.615.32.615.32C3.281,1.182.953,1.991.953,1.991Z" transform="translate(66 45)" opacity="0.1"/>
  <path id="Path-92" data-name="Path" d="M3,0S.151.676,0,3a2.111,2.111,0,0,1,1-.309,1.343,1.343,0,0,0,.68-.109A4.483,4.483,0,0,1,3,0Z" transform="translate(58 23)" fill="#fff" opacity="0.1"/>
  <path id="Path-93" data-name="Path" d="M20.891,16.037C17.49,19.882,11.179,20,6.8,16.3A26.284,26.284,0,0,1,1.174,10.09,7.37,7.37,0,0,1,0,6.268,4.278,4.278,0,0,1,.442,4.437,5,5,0,0,1,1.166,3.37,8.988,8.988,0,0,1,4.648,1.127C9.156-.62,15.816-.433,19.126,2.373,23.493,6.076,24.291,12.192,20.891,16.037Z" transform="translate(75 51)" fill="#1dfce5"/>
  <path id="Path-94" data-name="Path" d="M2.558,3a3.838,3.838,0,0,0-.33-.507c-.174-.226-.388-.442-.583-.442a.244.244,0,0,0-.163.058.539.539,0,0,0-.105.116,1.292,1.292,0,0,1-.094.139c-.362.472-.591.181-.591.181C-.242,2.251.04.4.04.4S.4-.294.982.145a1.061,1.061,0,0,1,.149.129,2.009,2.009,0,0,0,.554.388,2.335,2.335,0,0,0,.228.1,3.6,3.6,0,0,0,.725.187A3.328,3.328,0,0,0,3,.982Z" transform="translate(73 55)" fill="#1dfce5"/>
  <path id="Path-95" data-name="Path" d="M.378.96A1.557,1.557,0,0,0,0,1L.471,0Q.728.037,1,.067A9.258,9.258,0,0,0,.378.96Z" transform="translate(74 55)" fill="#444053"/>
  <path id="Path-96" data-name="Path" d="M1,2.693C.718,3.23.54,2.9.54,2.9-.189,2.564.031.46.031.46S.314-.335.766.165a3.211,3.211,0,0,0-.226.968A2.651,2.651,0,0,0,1,2.693Z" transform="translate(74 54)" fill="#1dfce5"/>
  <path id="Path-97" data-name="Path" d="M1,2.693C.718,3.23.54,2.9.54,2.9-.189,2.564.031.46.031.46S.314-.335.766.165a3.211,3.211,0,0,0-.226.968A2.651,2.651,0,0,0,1,2.693Z" transform="translate(74 54)" opacity="0.1"/>
  <path id="Path-98" data-name="Path" d="M.773,3S1.475.966.409,0A1.965,1.965,0,0,1,.2.743a1.18,1.18,0,0,0-.2.465A3.088,3.088,0,0,1,.773,3Z" transform="translate(96 60)" fill="#fff" opacity="0.1"/>
  <path id="Path-99" data-name="Path" d="M4.06,9A6.815,6.815,0,0,1,2.729,5.162c-.213-.269-.475-.526-.714-.526a.3.3,0,0,0-.2.069.648.648,0,0,0-.129.138,1.534,1.534,0,0,1-.115.165c-.444.56-.723.215-.723.215C-.3,4.874.049,2.679.049,2.679A.766.766,0,0,1,1.2,2.372a1.289,1.289,0,0,1,.182.154,2.463,2.463,0,0,0,.679.461,2.908,2.908,0,0,0,.28.115,4.523,4.523,0,0,0,.887.223,5.038,5.038,0,0,1,.821-1.071A10.417,10.417,0,0,1,8,0C7.379,3.4,6.221,6.985,4.06,9Z" transform="translate(72 51)" opacity="0.1"/>
  <path id="Path-100" data-name="Path" d="M11,23a6.582,6.582,0,0,1-.861-.183c-.256-.068-.509-.152-.765-.247l-.164-.065c-.212-.087-.433-.186-.645-.289s-.324-.164-.489-.251A17.484,17.484,0,0,1,.748,13.534a10.677,10.677,0,0,1-.717-2.9A7.4,7.4,0,0,1,.055,9.058,10.78,10.78,0,0,1,1.557,4.8c.088-.137.172-.27.264-.4A9.741,9.741,0,0,1,10.772.045a9.277,9.277,0,0,1-3.44,4.9c-.128.3-.216.628-.1.8a.293.293,0,0,0,.16.1.531.531,0,0,0,.18,0h.2c.709,0,.549.38.549.38.276,1.008-1.8,1.97-1.8,1.97s-.933.148-.845-.654a1.177,1.177,0,0,1,.044-.213A2.091,2.091,0,0,0,5.778,6.6a1.942,1.942,0,0,0-.04-.266,3.052,3.052,0,0,0-.256-.761,5.239,5.239,0,0,1-1.338,0A7.24,7.24,0,0,1,2.318,5.1c.084.126.156.255.232.38a7.179,7.179,0,0,1,1.181,3.8c.184.266.42.525.641.529a.3.3,0,0,0,.176-.068.473.473,0,0,0,.116-.137c.036-.061.072-.114.1-.16.4-.551.657-.205.657-.205,1.029.354.7,2.525.7,2.525s-.4.818-1.045.293a.985.985,0,0,1-.16-.152,2.224,2.224,0,0,0-.609-.46,2.15,2.15,0,0,0-.252-.118,3.6,3.6,0,0,0-.8-.228,4.752,4.752,0,0,1-.749,1.053l-.16.167.052.046a30.421,30.421,0,0,1,3.552,3.59c.328.4.641.8.917,1.213a8.812,8.812,0,0,1,.553.852,7.219,7.219,0,0,1,1.177,3.8c.184.266.4.525.641.529a.3.3,0,0,0,.176-.068.473.473,0,0,0,.116-.137c.04-.061.072-.114.108-.164.4-.548.653-.2.653-.2A1.412,1.412,0,0,1,11,23Z" transform="translate(60 40)" opacity="0.1"/>
  <g id="Group-3" data-name="Group" transform="translate(65 40)" opacity="0.1">
    <path id="Path-101" data-name="Path" d="M1.656,2.088a1.557,1.557,0,0,1-.672.085A2.491,2.491,0,0,0,0,2.423C.152.544,2.952,0,2.952,0a3.434,3.434,0,0,0-1.3,2.088Z" transform="translate(0.04 2)"/>
    <path id="Path-102" data-name="Path" d="M9.064,10.846c-.048.368-.108.768-.172,1.158a9.316,9.316,0,0,1-5.024.243c-.324.1-.644.239-.7.426a.214.214,0,0,0,0,.176.441.441,0,0,0,.108.136,1.877,1.877,0,0,1,.132.136c.448.5.028.632.028.632-.64.82-2.744-.055-2.744-.055s-.716-.57,0-1a1.6,1.6,0,0,1,.2-.1,2.385,2.385,0,0,0,.636-.415c.064-.062.128-.125.184-.191a3.268,3.268,0,0,0,.452-.647A4.783,4.783,0,0,1,1.3,10.4C-.392,7.974-.36,3.7.98,0A9.51,9.51,0,0,1,9.064,10.846Z" transform="translate(6.596 0.096)"/>
    <path id="Path-103" data-name="Path" d="M2.032.6a4.805,4.805,0,0,1-1.844.632A2.607,2.607,0,0,0,0,.9L2.352,0A4.633,4.633,0,0,0,2.032.6Z" transform="translate(8.784 21.037)"/>
    <path id="Path-104" data-name="Path" d="M1.228,3.768s-.936.143-.844-.632a1.077,1.077,0,0,1,.04-.206,1.874,1.874,0,0,0,.056-.71,1.82,1.82,0,0,0-.036-.257,3.121,3.121,0,0,0-.256-.735A2.607,2.607,0,0,0,0,.9L2.352,0a4.633,4.633,0,0,0-.32.6c-.124.29-.212.61-.092.776a.253.253,0,0,0,.156.1.491.491,0,0,0,.184,0h.2c.708,0,.548.368.548.368C3.3,2.849,1.228,3.768,1.228,3.768Z" transform="translate(8.784 21.022)"/>
    <path id="Path-105" data-name="Path" d="M1.636.107.036.842A.939.939,0,0,0,0,.588C.42.438,1.08.169,1.5,0A.248.248,0,0,0,1.636.107Z" transform="translate(9.244 22.401)"/>
    <path id="Path-106" data-name="Path" d="M.85,2.29s-.932.143-.844-.632a2.959,2.959,0,0,0,1.056-.29A2.248,2.248,0,0,0,2.106,0c.708,0,.548.368.548.368C2.926,1.371.85,2.29.85,2.29Z" transform="translate(9.158 22.5)"/>
    <path id="Path-107" data-name="Path" d="M.85,2.29s-.932.143-.844-.632a2.959,2.959,0,0,0,1.056-.29A2.248,2.248,0,0,0,2.106,0c.708,0,.548.368.548.368C2.926,1.371.85,2.29.85,2.29Z" transform="translate(9.158 22.5)" opacity="0.1"/>
    <path id="Path-108" data-name="Path" d="M1.656,2.088a1.557,1.557,0,0,1-.672.085A2.491,2.491,0,0,0,0,2.423C.152.544,2.952,0,2.952,0a3.434,3.434,0,0,0-1.3,2.088Z" transform="translate(0.04 2)" opacity="0.1"/>
  </g>
  <path id="Path-109" data-name="Path" d="M18.91,11.264c-.714,5.572-2.711,12.3-7.92,11.7S-.66,14.617.055,9.034,5.579-.555,10.78.063,19.628,5.688,18.91,11.264Z" transform="translate(61 40)" fill="#1dfce5"/>
  <path id="Path-110" data-name="Path" d="M1.2,4.986s-.917.19-.827-.838q.013-.138.039-.273a3.333,3.333,0,0,0,.059-.94A2.287,2.287,0,0,0,.435,2.6,5.117,5.117,0,0,0,0,1.188L2.3,0s-.65,1.359-.392,1.816a.264.264,0,0,0,.157.131.336.336,0,0,0,.176,0h.2c.693,0,.537.487.537.487C3.236,3.754,1.2,4.986,1.2,4.986Z" transform="translate(72 60)" fill="#1dfce5"/>
  <path id="Path-111" data-name="Path" d="M1,.13.024,1A2.9,2.9,0,0,0,0,.7C.259.517.659.2.912,0A.232.232,0,0,0,1,.13Z" transform="translate(74 63)" fill="#444053"/>
  <path id="Path-112" data-name="Path" d="M.953,1.991S-.1,2.116.007,1.441a4.247,4.247,0,0,0,1.184-.249A2.1,2.1,0,0,0,2.357,0c.794,0,.614.32.614.32C3.281,1.182.953,1.991.953,1.991Z" transform="translate(73 62)" fill="#1dfce5"/>
  <path id="Path-113" data-name="Path" d="M.953,1.991S-.1,2.116.007,1.441a4.247,4.247,0,0,0,1.184-.249A2.1,2.1,0,0,0,2.357,0c.794,0,.614.32.614.32C3.281,1.182.953,1.991.953,1.991Z" transform="translate(73 62)" opacity="0.1"/>
  <path id="Path-114" data-name="Path" d="M3,0S.154.673,0,3a2.129,2.129,0,0,1,1-.309,1.279,1.279,0,0,0,.679-.109A4.441,4.441,0,0,1,3,0Z" transform="translate(64 41)" fill="#fff" opacity="0.1"/>
  <path id="Path-115" data-name="Path" d="M5.374,0A1.6,1.6,0,0,0,4.2.7a1.792,1.792,0,0,0-.262,1.4c.334,1.179,1.707,1.556,2.6,2.346A4.945,4.945,0,0,1,7.972,7.737,8.318,8.318,0,0,1,5.783,14.1c-.8.842-1.775,1.484-2.572,2.334A13.99,13.99,0,0,0,1,20.013a8.649,8.649,0,0,0-.982,3,7.347,7.347,0,0,0,1.631,4.664A31.86,31.86,0,0,1,4.5,31.765a9.013,9.013,0,0,1,.463,6.722.809.809,0,0,1-.269.453.287.287,0,0,1-.239.053.3.3,0,0,1-.2-.153" transform="translate(68 62)" fill="none" stroke="#444053" stroke-miterlimit="10" stroke-width="1"/>
  <path id="Path-116" data-name="Path" d="M.192,0A.783.783,0,0,0,.162.99a1.206,1.206,0,0,0,.938.439c.434,0,.919-.136,1.276.117a1.135,1.135,0,0,1,.384.847,4.368,4.368,0,0,0,.1.951,1.848,1.848,0,0,0,.415.68,2.081,2.081,0,0,0,.769.567c.638.252,1.384.027,2.038.237a2.879,2.879,0,0,1,1.6,2.1,6.1,6.1,0,0,1,.188,3.254,11.289,11.289,0,0,1-.873,1.992,4.536,4.536,0,0,0-.569,2.085A1.912,1.912,0,0,0,7.5,16" transform="translate(68 63)" fill="none" stroke="#444053" stroke-miterlimit="10" stroke-width="1"/>
  <path id="Rectangle-21" data-name="Rectangle" d="M.021,0,4.064,0,4.043,45.471,0,45.473Z" transform="translate(119.27 131.247) rotate(-24.55)" fill="#1dfce5"/>
  <path id="Path-117" data-name="Path" d="M1.961,0C1.272,1.538-.406,2.907.09,4.524A3.732,3.732,0,0,0,1.853,6.357,17.508,17.508,0,0,1,6.509,10.2a6.2,6.2,0,0,1,1.185,5.739c-.485,1.308-1.537,2.319-2.152,3.571a7.609,7.609,0,0,0-.4,5.037,17.546,17.546,0,0,0,2.033,4.717,2.768,2.768,0,0,0,1.274,1.35,4.324,4.324,0,0,0,1.344.113,4.965,4.965,0,0,1,3.818,2.47,10.635,10.635,0,0,1,1.341,4.547,4.991,4.991,0,0,0,.585,2.311,4.154,4.154,0,0,0,2.9,1.421,36.046,36.046,0,0,0,8.57.449" transform="translate(72 64)" fill="none" stroke="#444053" stroke-miterlimit="10" stroke-width="1"/>
  <rect id="Rectangle-22" data-name="Rectangle" width="5" height="3" rx="1.5" transform="translate(95 103)" fill="#444053"/>
</svg>
