<?xml version="1.0" encoding="UTF-8"?>
<svg width="32px" height="32px" viewBox="0 0 32 32" version="1.1" xmlns="http://www.w3.org/2000/svg" xmlns:xlink="http://www.w3.org/1999/xlink">
    <title>Icon_entertainment</title>
    <g id="Design" stroke="none" stroke-width="1" fill="none" fill-rule="evenodd">
        <g id="List-of-categories" transform="translate(-55.000000, -185.000000)">
            <g id="Icon_entertainment" transform="translate(55.000000, 185.000000)">
                <g id="Group-11" fill="#DB46B5">
                    <circle id="Oval" cx="16" cy="16" r="16"></circle>
                </g>
                <g id="gamer" transform="translate(8.000000, 6.000000)" fill="#FFFFFF" fill-rule="nonzero">
                    <g id="Group" transform="translate(0.000000, 8.000000)">
                        <circle id="Oval" cx="3.5" cy="3.5" r="1"></circle>
                        <path d="M12.2666667,0 C11.2906311,0 10.3552,0.39798 9.66353778,1.1 L6.33646222,1.1 C5.6448,0.39798 4.70936889,0 3.73333333,0 C1.67498667,0 0,1.72733 0,3.85 L0,8.25 C0,9.76627667 1.19584,11 2.66666667,11 C3.65105778,11 4.55416889,10.4424833 5.02499556,9.54228 L6.54165333,6.6 L9.45831111,6.6 L10.9760356,9.54495667 C11.4458311,10.4424833 12.3489422,11 13.3333333,11 C14.80416,11 16,9.76627667 16,8.25 L16,3.85 C16,1.72733 14.3250133,0 12.2666667,0 Z M3.5,5 C2.67286667,5 2,4.32713333 2,3.5 C2,2.67286667 2.67286667,2 3.5,2 C4.32713333,2 5,2.67286667 5,3.5 C5,4.32713333 4.32713333,5 3.5,5 Z M8.5,4 L7.5,4 C7.22363333,4 7,3.77636667 7,3.5 C7,3.22363333 7.22363333,3 7.5,3 L8.5,3 C8.77636667,3 9,3.22363333 9,3.5 C9,3.77636667 8.77636667,4 8.5,4 Z M13.5,4 L13,4 L13,4.5 C13,4.77636667 12.7763667,5 12.5,5 C12.2236333,5 12,4.77636667 12,4.5 L12,4 L11.5,4 C11.2236333,4 11,3.77636667 11,3.5 C11,3.22363333 11.2236333,3 11.5,3 L12,3 L12,2.5 C12,2.22363333 12.2236333,2 12.5,2 C12.7763667,2 13,2.22363333 13,2.5 L13,3 L13.5,3 C13.7763667,3 14,3.22363333 14,3.5 C14,3.77636667 13.7763667,4 13.5,4 Z" id="Shape"></path>
                    </g>
                    <path d="M8.33333333,9 L8.33333333,7.08962264 C8.33333333,6.73828302 8.6328,6.45283019 9,6.45283019 C10.1028444,6.45283019 11,5.59587736 11,4.54245283 L11,0.636792453 C11,0.284816038 10.7018222,0 10.3333333,0 C9.96484444,0 9.66666667,0.284816038 9.66666667,0.636792453 L9.66666667,4.54245283 C9.66666667,4.89379245 9.3672,5.17924528 9,5.17924528 C7.89715556,5.17924528 7,6.03619811 7,7.08962264 L7,9 L8.33333333,9 Z" id="Path"></path>
                </g>
            </g>
        </g>
    </g>
</svg>