<svg xmlns="http://www.w3.org/2000/svg" width="16" height="16" viewBox="-5 -4 18 18" fill="#282C43" >
    <g id="euro_symbol-24px">
        <path d="M8.91422686,11.4722222 C7.46800108,11.4722222 6.21767839,10.6044444 5.59539797,9.33333333 L8.33804129,9.33333333 C8.65494336,9.33333333 8.91422686,9.05833333 8.91422686,8.72222222 C8.91422686,8.38611111 8.65494336,8.11111111 8.33804129,8.11111111 L5.21511549,8.11111111 C5.18630621,7.90944444 5.16902065,7.70777778 5.16902065,7.5 C5.16902065,7.29222222 5.18630621,7.09055556 5.21511549,6.88888889 L8.33804129,6.88888889 C8.65494336,6.88888889 8.91422686,6.61388889 8.91422686,6.27777778 C8.91422686,5.94166667 8.65494336,5.66666667 8.33804129,5.66666667 L5.59539797,5.66666667 C6.21767839,4.39555556 7.47376293,3.52777778 8.91422686,3.52777778 C9.63445883,3.52777778 10.3085959,3.74777778 10.8847815,4.12055556 C11.1728743,4.31 11.5473949,4.27944444 11.7893929,4.02277778 C12.1235805,3.66833333 12.0486764,3.08777778 11.6453465,2.825 C10.8502104,2.30555556 9.9110279,2 8.91422686,2 C6.65557942,2 4.74264332,3.53388889 4.02817321,5.66666667 L2.57618557,5.66666667 C2.25928351,5.66666667 2,5.94166667 2,6.27777778 C2,6.61388889 2.25928351,6.88888889 2.57618557,6.88888889 L3.76312785,6.88888889 C3.74008043,7.09055556 3.72855672,7.29222222 3.72855672,7.5 C3.72855672,7.70777778 3.74008043,7.90944444 3.76312785,8.11111111 L2.57618557,8.11111111 C2.25928351,8.11111111 2,8.38611111 2,8.72222222 C2,9.05833333 2.25928351,9.33333333 2.57618557,9.33333333 L4.02817321,9.33333333 C4.74264332,11.4661111 6.65557942,13 8.91422686,13 C9.91678976,13 10.8502104,12.7005556 11.6453465,12.175 C12.0429145,11.9122222 12.1178186,11.3255556 11.783631,10.9711111 C11.5416331,10.7144444 11.1671124,10.6838889 10.8790197,10.8794444 C10.3085959,11.2583333 9.64022068,11.4722222 8.91422686,11.4722222 Z" id="Path" fill="#282C43" fill-rule="nonzero"></path>
    </g>
</svg>