<svg xmlns="http://www.w3.org/2000/svg" width="24" height="24" viewBox="0 0 32 32" >
    <g id="euro_symbol-24px">
        <path d="M19.9027218,24.6666667 C16.5764025,24.6666667 13.7006603,22.7733333 12.2694153,20 L18.577495,20 C19.3063697,20 19.9027218,19.4 19.9027218,18.6666667 C19.9027218,17.9333333 19.3063697,17.3333333 18.577495,17.3333333 L11.3947656,17.3333333 C11.3285043,16.8933333 11.2887475,16.4533333 11.2887475,16 C11.2887475,15.5466667 11.3285043,15.1066667 11.3947656,14.6666667 L18.577495,14.6666667 C19.3063697,14.6666667 19.9027218,14.0666667 19.9027218,13.3333333 C19.9027218,12.6 19.3063697,12 18.577495,12 L12.2694153,12 C13.7006603,9.22666667 16.5896547,7.33333333 19.9027218,7.33333333 C21.5592553,7.33333333 23.1097707,7.81333333 24.4349975,8.62666667 C25.0976109,9.04 25.9590083,8.97333333 26.5156036,8.41333333 C27.2842351,7.64 27.1119557,6.37333333 26.1842969,5.8 C24.3554839,4.66666667 22.1953642,4 19.9027218,4 C14.7078327,4 10.3080796,7.34666667 8.66479839,12 L5.32522682,12 C4.59635207,12 4,12.6 4,13.3333333 C4,14.0666667 4.59635207,14.6666667 5.32522682,14.6666667 L8.05519406,14.6666667 C8.00218498,15.1066667 7.97568045,15.5466667 7.97568045,16 C7.97568045,16.4533333 8.00218498,16.8933333 8.05519406,17.3333333 L5.32522682,17.3333333 C4.59635207,17.3333333 4,17.9333333 4,18.6666667 C4,19.4 4.59635207,20 5.32522682,20 L8.66479839,20 C10.3080796,24.6533333 14.7078327,28 19.9027218,28 C22.2086164,28 24.3554839,27.3466667 26.1842969,26.2 C27.0987034,25.6266667 27.2709829,24.3466667 26.5023513,23.5733333 C25.9457561,23.0133333 25.0843586,22.9466667 24.4217452,23.3733333 C23.1097707,24.2 21.5725076,24.6666667 19.9027218,24.6666667 Z" id="Path" fill="#282C43" fill-rule="nonzero"></path>
    </g>
</svg>