<?xml version="1.0" encoding="UTF-8"?>
<svg width="32px" height="32px" viewBox="0 0 32 32" version="1.1" xmlns="http://www.w3.org/2000/svg" xmlns:xlink="http://www.w3.org/1999/xlink">
    <title>Icon_fees_and_charges</title>
    <g id="Design" stroke="none" stroke-width="1" fill="none" fill-rule="evenodd">
        <g id="List-of-categories" transform="translate(-55.000000, -238.000000)">
            <g id="Icon_fees_and_charges" transform="translate(55.000000, 238.000000)">
                <g id="Group-5" fill="#3BE2E9">
                    <circle id="Oval" cx="16" cy="16" r="16"></circle>
                </g>
                <g id="fee" transform="translate(8.000000, 8.000000)" fill="#FFFFFF" fill-rule="nonzero">
                    <path d="M15.8071261,0.643136377 C15.7997301,0.397652138 15.6006545,0.200385844 15.3528886,0.192939537 L8.96151426,0.000189867953 C8.83109816,-0.00347225384 8.70561275,0.0459663826 8.61402564,0.137641506 L0.725085071,8.03049053 C-0.241695024,8.997779 -0.241695024,10.5715148 0.725085071,11.5388032 L4.45550287,15.2709936 C4.92527198,15.741088 5.55035703,16 6.21538046,16 C6.88052712,16 7.50561217,15.741088 7.97538128,15.2709936 L15.8644451,7.3780225 C15.9546763,7.28769017 16.0036131,7.16464287 15.9997919,7.03756725 L15.8071261,0.643136377 Z M9.74043605,10.4521296 C9.64884894,10.5427061 9.52891053,10.5881164 9.40884882,10.5881164 C9.28891041,10.5881164 9.16897199,10.5428282 9.07738488,10.4521296 L8.87350187,10.2501026 L8.53599788,10.5843322 C8.44441077,10.6749087 8.32447235,10.7201969 8.20453394,10.7201969 C8.08447223,10.7201969 7.96453382,10.6749087 7.87307,10.5842101 C7.68989578,10.4029351 7.68989578,10.1089888 7.87307,9.92771378 L8.77069753,9.03879476 C8.93870994,8.87241235 8.93858665,8.60165947 8.77057427,8.43527709 C8.60243859,8.26877259 8.32915647,8.26865052 8.16114409,8.43503293 L7.93248449,8.66135204 C7.93248449,8.66147414 7.93248449,8.66147414 7.93236124,8.66147414 L7.70370164,8.88803741 C7.43695267,9.15219846 7.08650566,9.28427897 6.73618193,9.28427897 C6.38561166,9.28427897 6.03516464,9.15219846 5.76829241,8.88779325 C5.50980228,8.63181094 5.36742936,8.29159982 5.3673061,7.92953806 C5.3673061,7.61593837 5.47417824,7.31869615 5.67078851,7.07846096 L5.46135851,6.87094072 C5.27830758,6.68966567 5.27830758,6.39571936 5.46135851,6.21444434 C5.64440947,6.03316932 5.94123549,6.03316932 6.12428642,6.21444434 L6.32829266,6.4164714 L6.54203699,6.20467868 C6.72508792,6.02340366 7.02191395,6.02340366 7.20508816,6.20467868 C7.38813909,6.3860758 7.38813909,6.6800221 7.20508816,6.86129713 L6.43097378,7.62777923 C6.3496178,7.70834591 6.30487201,7.81540192 6.30487201,7.929416 C6.30487201,8.04343004 6.34974106,8.15060812 6.43122029,8.2312969 C6.59935597,8.39780137 6.87276135,8.39780137 7.04065047,8.23154102 L7.26943332,8.00497776 C7.26943332,8.00497776 7.26943332,8.00485569 7.26955662,8.00485569 L7.49809292,7.77841449 C8.03171412,7.25009238 8.89988095,7.25021445 9.43350215,7.77865864 C9.93248543,8.27267885 9.96490456,9.05637295 9.53100605,9.58799094 L9.74043605,9.79551117 C9.92348698,9.97690829 9.92348698,10.2708546 9.74043605,10.4521296 L9.74043605,10.4521296 Z M13.0570478,4.91939601 C12.7829028,5.1908813 12.4227178,5.32662395 12.0626559,5.32662395 C11.7024709,5.32662395 11.3422858,5.1908813 11.0681408,4.91939601 C10.8025013,4.65633358 10.6561838,4.30660096 10.6561838,3.93452939 C10.6561838,3.56257987 10.8025013,3.21284725 11.0681408,2.94978483 C11.6164308,2.40681423 12.5087578,2.40669217 13.0570478,2.94978483 C13.605461,3.49275542 13.605461,4.37642542 13.0570478,4.91939601 Z" id="Shape"></path>
                </g>
            </g>
        </g>
    </g>
</svg>