<svg xmlns="http://www.w3.org/2000/svg" width="32" height="32" viewBox="0 0 32 32">
  <g id="Group_4" data-name="Group 4" transform="translate(-55 -292)">
    <circle id="Oval" cx="16" cy="16" r="16" transform="translate(55 292)" fill="#00d793"/>
    <path id="Path" d="M11.006.049h0A3.223,3.223,0,0,0,8.353.783a2.089,2.089,0,0,1-2.706,0A3.261,3.261,0,0,0,3.549,0a3.2,3.2,0,0,0-.555.049A3.952,3.952,0,0,0,.044,4.6c.553,3.952,1.6,6.642,3.034,7.778a2.7,2.7,0,0,0,2.261.567A2.05,2.05,0,0,0,6.6,12.241a.515.515,0,0,1,.8,0,2.05,2.05,0,0,0,1.262.709,2.7,2.7,0,0,0,2.261-.567c1.431-1.136,2.48-3.826,3.034-7.778A3.952,3.952,0,0,0,11.006.049Z" transform="translate(64 304)" fill="#fff"/>
    <path id="Path-2" data-name="Path" d="M6.963,1.539a.558.558,0,0,0-.705-.292,6.908,6.908,0,0,0-2.5,1.709A3.3,3.3,0,0,0,3.582,2.4,5.051,5.051,0,0,0,1.128.047.58.58,0,0,0,.7.034.531.531,0,0,0,.4.31,4.568,4.568,0,0,0,.255,3.6a3.33,3.33,0,0,0,.2.4,4.717,4.717,0,0,1,1.79.785,1.206,1.206,0,0,0,1.386,0q.144-.1.294-.194A4.5,4.5,0,0,1,5.251,3.009a5.908,5.908,0,0,1,1.4-.81A.5.5,0,0,0,6.963,1.539Z" transform="translate(68 299)" fill="#fff"/>
  </g>
</svg>
