<?xml version="1.0" encoding="UTF-8"?>
<svg width="32px" height="32px" viewBox="0 0 32 32" version="1.1" xmlns="http://www.w3.org/2000/svg" xmlns:xlink="http://www.w3.org/1999/xlink">
    <title>Icon_food_and_bevereges</title>
    <g id="Design" stroke="none" stroke-width="1" fill="none" fill-rule="evenodd">
        <g id="List-of-categories" transform="translate(-55.000000, -292.000000)">
            <g id="Icon_food_and_bevereges" transform="translate(55.000000, 292.000000)">
                <circle id="Oval" fill="#00D793" cx="16" cy="16" r="16"></circle>
                <path d="M20.0055194,12.0487409 L20.0054861,12.0487409 C19.0626339,11.882906 18.1205454,12.1435812 17.3530936,12.7825683 C16.5564859,13.4458716 15.4436128,13.4458716 14.6469387,12.7825683 C14.0303804,12.2691786 13.301117,12 12.5492062,12 C12.3652382,12 12.1799088,12.0161022 11.9945462,12.0487047 C10.0630821,12.3882265 8.7392436,14.4320155 9.04352125,16.6046584 C9.59701898,20.5568328 10.6460347,23.2464839 12.0772321,24.3829032 C12.7464902,24.9142405 13.4860811,25.099579 14.3384769,24.9498463 C14.8608595,24.8580094 15.2734923,24.6261373 15.6000519,24.2409141 C15.7031271,24.1193694 15.8481098,24.0501841 16,24.0501841 C16.1518893,24.0501841 16.2969052,24.1193332 16.3999472,24.2409141 C16.7264736,24.6261373 17.1391396,24.8580094 17.6615222,24.9498463 C18.513918,25.0997961 19.2535753,24.9142767 19.922767,24.3829032 C21.3539976,23.2464839 22.4029801,20.5568328 22.9564779,16.6046584 C23.2607555,14.4320516 21.9369502,12.3882627 20.0055194,12.0487409 Z" id="Path" fill="#FFFFFF" fill-rule="nonzero"></path>
                <path d="M19.9631501,8.5390636 C19.8545361,8.27594441 19.5388069,8.14499238 19.2576745,8.24678165 C19.1717148,8.27790729 17.8204432,8.78112079 16.7532646,9.95588797 C16.7132787,9.77097235 16.6574248,9.58481047 16.5818108,9.40029989 C15.946793,7.85096565 14.2023819,7.07942979 14.1284312,7.04730712 C13.9946014,6.98923085 13.8413442,6.98446386 13.7036555,7.0339097 C13.5659669,7.08341786 13.4555565,7.18302615 13.3975736,7.31008358 C13.3655383,7.38031101 12.6204094,9.04691946 13.255394,10.5962537 C13.3127449,10.7361166 13.3797429,10.8690315 13.4530948,10.9962447 C14.0929362,11.1289104 14.7015074,11.3931512 15.24338,11.7809287 C15.6514227,12.0730238 16.2215383,12.0730238 16.6296476,11.7809287 C16.7256204,11.7122592 16.8236891,11.6474842 16.9236539,11.5866038 C17.207381,11.0028811 17.650819,10.4747733 18.2511735,10.009353 C18.9666289,9.45466851 19.645558,9.20183107 19.6510802,9.19980588 C19.9320462,9.09804777 20.0717974,8.8022451 19.9631501,8.5390636 Z" id="Path" fill="#FFFFFF" fill-rule="nonzero"></path>
            </g>
        </g>
    </g>
</svg>