<?xml version="1.0" encoding="UTF-8"?>
<svg width="19px" height="19px" viewBox="0 0 19 19" version="1.1" xmlns="http://www.w3.org/2000/svg" xmlns:xlink="http://www.w3.org/1999/xlink">
    <title>date_range-24px</title>
    <g id="Design" stroke="none" stroke-width="1" fill="none" fill-rule="evenodd">
        <g id="01_Dashboard" transform="translate(-1031.000000, -125.000000)">
            <g id="Group-3" transform="translate(1023.000000, 115.000000)">
                <g id="date_range-24px" transform="translate(8.000000, 10.000000)">
                    <polygon id="Path" points="0 0 19 0 19 19 0 19"></polygon>
                    <path d="M15.3333333,3.6 L14.5,3.6 L14.5,2.8 C14.5,2.36 14.125,2 13.6666667,2 C13.2083333,2 12.8333333,2.36 12.8333333,2.8 L12.8333333,3.6 L6.16666667,3.6 L6.16666667,2.8 C6.16666667,2.36 5.79166667,2 5.33333333,2 C4.875,2 4.5,2.36 4.5,2.8 L4.5,3.6 L3.66666667,3.6 C2.74166667,3.6 2.00833333,4.32 2.00833333,5.2 L2,16.4 C2,17.28 2.74166667,18 3.66666667,18 L15.3333333,18 C16.25,18 17,17.28 17,16.4 L17,5.2 C17,4.32 16.25,3.6 15.3333333,3.6 Z M15.3333333,15.6 C15.3333333,16.04 14.9583333,16.4 14.5,16.4 L4.5,16.4 C4.04166667,16.4 3.66666667,16.04 3.66666667,15.6 L3.66666667,7.6 L15.3333333,7.6 L15.3333333,15.6 Z M5.33333333,9.2 L7,9.2 L7,10.8 L5.33333333,10.8 L5.33333333,9.2 Z M8.66666667,9.2 L10.3333333,9.2 L10.3333333,10.8 L8.66666667,10.8 L8.66666667,9.2 Z M12,9.2 L13.6666667,9.2 L13.6666667,10.8 L12,10.8 L12,9.2 Z" id="Shape" fill="#B5B6BD"></path>
                </g>
            </g>
        </g>
    </g>
</svg>