<?xml version="1.0" encoding="UTF-8"?>
<svg width="32px" height="32px" viewBox="0 0 32 32" version="1.1" xmlns="http://www.w3.org/2000/svg" xmlns:xlink="http://www.w3.org/1999/xlink">
    <title>Icon_gift</title>
    <g id="Design" stroke="none" stroke-width="1" fill="none" fill-rule="evenodd">
        <g id="List-of-categories" transform="translate(-327.000000, -136.000000)">
            <g id="Icon_gift" transform="translate(327.000000, 136.000000)">
                <circle id="Oval" fill="#FF32C0" cx="16" cy="16" r="16"></circle>
                <g id="gift-(2)" transform="translate(8.000000, 7.000000)" fill="#FFFFFF" fill-rule="nonzero">
                    <path d="M9,9 L9,15.8571429 C9,16.488 9.449,17 10,17 L15,17 L15,9 L9,9 Z" id="Path"></path>
                    <path d="M15,4.56197412 L11.836,4.56197412 C12.063,4.38434278 12.258,4.20785745 12.394,4.04970826 C13.201,3.12029526 13.201,1.60756387 12.394,0.678150878 C11.61,-0.227195938 10.244,-0.224903921 9.461,0.678150878 C9.027,1.17666463 7.877,3.20624591 8.036,4.56197412 L7.964,4.56197412 C8.122,3.20624591 6.972,1.17666463 6.539,0.678150878 C5.755,-0.224903921 4.389,-0.224903921 3.606,0.678150878 C2.8,1.60756387 2.8,3.12029526 3.605,4.04970826 C3.742,4.20785745 3.937,4.38434278 4.164,4.56197412 L1,4.56197412 C0.449,4.56197412 0,5.07653199 0,5.70798274 L0,7.42699569 C0,7.74329407 0.224,8 0.5,8 L7,8 L7,5.70798274 L9,5.70798274 L9,8 L15.5,8 C15.776,8 16,7.74329407 16,7.42699569 L16,5.70798274 C16,5.07653199 15.552,4.56197412 15,4.56197412 Z M6.95256692,3.967 C6.95256692,3.967 6.91039098,4 6.76679194,4 C6.07289729,4 4.74837191,3.282 4.31556642,2.848 C3.89481119,2.426 3.89481119,1.738 4.31556642,1.316 C4.5194168,1.112 4.78954366,1 5.07674173,1 C5.36293562,1 5.63306248,1.112 5.83691286,1.316 C6.5137363,1.994 7.18654297,3.726 6.95256692,3.967 Z M9.23214559,4 C9.08958653,4 9.04742117,3.96789298 9.04742117,3.96688964 C8.81350385,3.72508365 9.48614166,1.98729128 10.1627952,1.30702383 C10.5673818,0.898662684 11.2751575,0.896655995 11.6837598,1.30702383 C12.1054134,1.73043513 12.1054134,2.42073603 11.6837598,2.84414733 C11.251063,3.27959877 9.92687002,4 9.23214559,4 Z" id="Shape"></path>
                    <path d="M1,9 L1,17 L6,17 C6.552,17 7,16.488 7,15.8571429 L7,9 L1,9 Z" id="Path"></path>
                </g>
            </g>
        </g>
    </g>
</svg>