<svg xmlns="http://www.w3.org/2000/svg" width="18" height="18" viewBox="0 0 18 18">
  <g id="south-24px" transform="translate(0 18)">
    <rect id="Rectangle" width="18" height="18" transform="translate(0 -18)" fill="none"/>
    <path id="Path" d="M9.784-9.409h0a.752.752,0,0,1-1.071,0L5.758-12.38V-.766A.765.765,0,0,1,5,0H5A.765.765,0,0,1,4.24-.766V-12.387L1.293-9.417a.752.752,0,0,1-1.071,0h0a.767.767,0,0,1,0-1.079l4.245-4.28a.752.752,0,0,1,1.071,0L9.784-10.5A.791.791,0,0,1,9.784-9.409Z" transform="translate(4 -1)" fill="#2548e6"/>
  </g>
</svg>
