<?xml version="1.0" encoding="UTF-8"?>
<svg width="32px" height="32px" viewBox="0 0 32 32" version="1.1" xmlns="http://www.w3.org/2000/svg" xmlns:xlink="http://www.w3.org/1999/xlink">
    <title>Icon_insurance</title>
    <g id="Design" stroke="none" stroke-width="1" fill="none" fill-rule="evenodd">
        <g id="List-of-categories" transform="translate(-55.000000, -397.000000)">
            <g id="Icon_insurance" transform="translate(55.000000, 397.000000)">
                <circle id="Oval" fill="#FFCC00" cx="16" cy="16" r="16"></circle>
                <g id="Group-5" transform="translate(8.000000, 7.000000)" fill="#FFFFFF" fill-rule="nonzero">
                    <g id="insurance">
                        <path d="M8.78158537,3.33984375 L6.21841463,3.33984375 C5.4204878,4.26238281 4.41878049,4.97302734 3.29268293,5.41722656 L3.29268293,8.82275391 C3.29268293,11.7028125 4.93646341,14.285625 7.5,15.4679297 C10.0635366,14.285625 11.7073171,11.7028125 11.7073171,8.82275391 L11.7073171,5.41759766 C10.5808537,4.97339844 9.5795122,4.26275391 8.78158537,3.33984375 Z M10.4491463,8.12806641 L7.03426829,11.5915215 C6.92707317,11.700252 6.78658537,11.7547656 6.64646341,11.7547656 C6.50597561,11.7547656 6.3654878,11.7002148 6.25829268,11.5915215 L4.55085366,9.85999805 C4.33682927,9.64253711 4.33682927,9.28999805 4.55085366,9.07253711 C4.7652439,8.85544727 5.11280488,8.85544727 5.32719512,9.07253711 L6.64646341,10.4107012 L9.67317073,7.34101367 C9.88719512,7.12355273 10.2347561,7.12355273 10.4491463,7.34101367 C10.6631707,7.5584375 10.6631707,7.91060547 10.4491463,8.12806641 L10.4491463,8.12806641 Z M14.4479268,2.59765625 C12.8659756,2.59765625 11.4252439,1.7159375 10.6869512,0.296875 C10.5921585,0.114296875 10.4052439,0 10.2017927,0 L4.79813415,0 C4.59471951,0 4.40776829,0.114296875 4.31264634,0.296875 C3.5747561,1.7159375 2.13402439,2.59765625 0.548780488,2.59765625 C0.245853659,2.59765625 -1.77635684e-15,2.84703125 -1.77635684e-15,3.15429687 L-1.77635684e-15,8.82275391 C-1.77635684e-15,11.1016406 0.702073171,13.2777344 2.03012195,15.1157617 C3.35817073,16.9537891 5.19219512,18.287834 7.33463415,18.9740234 C7.38841463,18.9914648 7.44439024,19 7.5,19 C7.55560976,19 7.61158537,18.9914648 7.66536585,18.9740234 C9.80784146,18.2878711 11.6418293,16.9538262 12.969878,15.1157617 C14.2979268,13.2776973 15,11.1016406 15,8.82275391 L15,3.15429688 C15,2.84703125 14.7508537,2.59765625 14.4479268,2.59765625 L14.4479268,2.59765625 Z M12.804878,8.79751953 C12.804878,12.2063867 10.8054878,15.2549219 7.71109756,16.5637695 C7.64341463,16.5923809 7.57170732,16.6064453 7.5,16.6064453 C7.42829268,16.6064453 7.35621951,16.5923438 7.28890244,16.5637695 C4.1945122,15.2549219 2.19512195,12.2063496 2.19512195,8.79751953 L2.19512195,5.00048828 C2.19512195,4.76001953 2.34731707,4.54664063 2.57268293,4.47167969 C3.73719512,4.08314453 4.76304878,3.36878906 5.53902439,2.40580078 C5.64329268,2.27628906 5.7995122,2.20132813 5.96414634,2.20132813 L9.03585366,2.20132813 C9.20414634,2.20132813 9.40243902,2.3334375 9.46093902,2.40580078 C10.2369146,3.36878906 11.2627683,4.08314453 12.4272805,4.47167969 C12.5879268,4.52511719 12.7108171,4.64869141 12.768622,4.80269531 C12.7693902,4.80417969 12.7697195,4.80603516 12.7704512,4.80751953 C12.7843902,4.84574219 12.7942317,4.88582031 12.7997561,4.92701172 C12.800122,4.93109375 12.8008171,4.93554688 12.8012195,4.93962891 C12.8034146,4.95966797 12.804878,4.97970703 12.804878,5.00048828 L12.804878,8.79751953 Z" id="Shape"></path>
                    </g>
                </g>
            </g>
        </g>
    </g>
</svg>