<svg xmlns="http://www.w3.org/2000/svg" width="32" height="32" viewBox="0 0 32 32">
  <g id="Group_7" data-name="Group 7" transform="translate(-55 -449)">
    <circle id="Oval" cx="16" cy="16" r="16" transform="translate(55 449)" fill="#d0f"/>
    <g id="fun" transform="translate(62 458)">
      <path id="Path" d="M0,0H3V3H0Z" transform="translate(7 5)" fill="#fff"/>
      <path id="Path-2" data-name="Path" d="M16.153,10.3a6.509,6.509,0,0,1-1.205.659v-4.1a3.4,3.4,0,0,0-3.487-3.3h-1v3.3a.485.485,0,0,1-.5.472h-1V9.226h.5a2.43,2.43,0,0,1,2.491,2.359v.207a21.329,21.329,0,0,1-3.487.265,21.207,21.207,0,0,1-4.05-.362c.1-.291.249-.7.306-.861A2.5,2.5,0,0,1,7.087,9.226h.886V7.339h-1a.485.485,0,0,1-.5-.472v-4.1L4.34.4A1.587,1.587,0,0,0,2.231.4L.438,2.09a1.369,1.369,0,0,0,0,2.007,1.6,1.6,0,0,0,2.122,0l.466-.448c.553,1.7-.309,4.046-1.08,6.138-.119.322-.357.984-.357.984a3.965,3.965,0,0,1-.736-.461.519.519,0,0,0-.7,0,.455.455,0,0,0,0,.668C1.815,12.537,5.985,13,8.472,13c2.392,0,6.694-.425,8.383-2.025a.452.452,0,0,0,0-.663A.521.521,0,0,0,16.153,10.3Z" transform="translate(0 2)" fill="#fff"/>
      <path id="Path-3" data-name="Path" d="M.5,2.8,1.562,1.737a2.5,2.5,0,0,1,3.51,0L7,4V2.481a.5.5,0,0,0-.146-.354L5.773,1.036A3.437,3.437,0,0,0,3.314,0H3.306A3.435,3.435,0,0,0,.852,1.025l-.706.711a.5.5,0,0,0,0,.708Z" fill="#fff"/>
      <path id="Path-4" data-name="Path" d="M1.224,0A1.67,1.67,0,0,0,0,.557,4.587,4.587,0,0,1,2.112,4.5v1a.474.474,0,0,0,.444.5A.474.474,0,0,0,3,5.5V2A1.9,1.9,0,0,0,1.224,0Z" transform="translate(14 5)" fill="#fff"/>
    </g>
  </g>
</svg>
