<svg id="Icons_24px_Icon" data-name="Icons/24px/Icon" xmlns="http://www.w3.org/2000/svg" width="20" height="20" viewBox="0 0 20 20">
  <g id="exit_to_app-24px">
    <path id="Path" d="M0,0H16V16H0Z" fill="none"/>
    <path id="Shape" d="M10.667,12H1.333A1.334,1.334,0,0,1,0,10.667v-2a.666.666,0,1,1,1.333,0V10A.668.668,0,0,0,2,10.667h8A.668.668,0,0,0,10.667,10V2A.668.668,0,0,0,10,1.333H2A.668.668,0,0,0,1.333,2V3.334A.666.666,0,0,1,0,3.334v-2A1.334,1.334,0,0,1,1.333,0h9.334A1.334,1.334,0,0,1,12,1.333v9.334A1.334,1.334,0,0,1,10.667,12Zm-5-2.945a.667.667,0,0,1-.47-1.135L6.447,6.666H.667a.666.666,0,1,1,0-1.333h5.78L5.193,4.073a.665.665,0,0,1,.94-.94L8.527,5.527a.665.665,0,0,1,0,.94L6.134,8.86A.661.661,0,0,1,5.663,9.055Z" transform="translate(2 2)" fill="#264ae7"/>
  </g>
</svg>
