<?xml version="1.0" encoding="utf-8"?>
<!-- Generator: Adobe Illustrator 24.2.1, SVG Export Plug-In . SVG Version: 6.00 Build 0)  -->
<svg version="1.1" id="Layer_1" xmlns="http://www.w3.org/2000/svg" xmlns:xlink="http://www.w3.org/1999/xlink" x="0px" y="0px"
	 viewBox="0 0 1794.7 1086.2" style="enable-background:new 0 0 1794.7 1086.2;" xml:space="preserve">
<style type="text/css">
	.st0{fill:none;stroke:#264AE7;stroke-width:3;stroke-linecap:round;stroke-miterlimit:10;}
	.st1{fill:#264AE7;}
	.st2{fill:none;stroke:#000000;stroke-width:3;stroke-linecap:round;}
	.st3{fill:#F6F6F8;stroke:#000000;stroke-width:3;stroke-miterlimit:10;}
	.st4{fill:#F6F6F8;stroke:#000000;stroke-width:3;stroke-linecap:round;stroke-miterlimit:10;}
	.st5{fill:#F6F6F8;}
	.st6{fill:none;stroke:#264AE7;stroke-width:5;stroke-linecap:round;}
	.st7{fill:#A6B4ED;}
	.st8{fill:none;stroke:#000000;stroke-width:4;stroke-linecap:round;}
	.st9{fill:none;stroke:#000000;stroke-width:3;stroke-linecap:round;stroke-miterlimit:10;}
	.st10{fill:#A6B4ED;stroke:#000000;stroke-width:3;stroke-linecap:round;}
	.st11{fill:none;stroke:#A6B4ED;stroke-width:3;stroke-linecap:round;stroke-miterlimit:10;}
	.st12{fill:#F6F6F8;stroke:#264AE7;stroke-width:3;stroke-linecap:round;stroke-miterlimit:10;}
	.st13{fill:none;stroke:#264AE7;stroke-width:6;stroke-linecap:round;stroke-miterlimit:10;}
	.st14{fill:none;stroke:#000000;stroke-width:5;stroke-linecap:round;}
	.st15{fill:#264AE7;stroke:#000000;stroke-width:3;stroke-miterlimit:10;}
</style>
<g id="Layer_3">
	<rect x="1311.7" y="155.4" class="st0" width="332.1" height="230.3"/>
	<path class="st1" d="M598.9,775.5c0,0,44.4-188.4,261.2-184.2c0,0,226-29.3,256.2,190l41,227.7l-556.1,13L583,794.7L598.9,775.5z"
		/>
	<path d="M1404.1,808.4c3.8-0.8,29.7-54.6,29.7-54.6l24.1,68.3l-38.8-15.6L1404.1,808.4z"/>
	<path d="M1252.7,1022c-0.8,5-0.8,62.4-0.8,62.4l-36.6-0.6l-2-79.4L1252.7,1022z"/>
	<polygon points="1378.3,1026.2 1377.4,1084.1 1343.1,1083.8 1338.1,1008.7 	"/>
	<line class="st2" x1="702.3" y1="634.7" x2="1026.3" y2="629.5"/>
	<line class="st2" x1="653.3" y1="679.2" x2="1076.7" y2="679.2"/>
</g>
<path d="M778.9,363c-8.7,15.6-14.1,32.8-16,50.6c0,0-1.3,15.4-16.7,20.7c-22.6,7.7-31.8,27.8-33.5,52.9
	c-1.7,25.1-12.4,57.6-48.4,68.4l362.4,3.3c0,0-31-15.9-27.9-43.2c2.7-23.8-7.8-47.4-22.6-62.6c-8.2-8.4-7.7-12.1-9.2-23.7
	c-1-7.8-7.1-18.5-4.8-34.8c3.6-25.5-8.4-78-61.1-86.5S790.8,350,790.8,350L778.9,363z"/>
<path class="st3" d="M451.5,547.5c0,7.5,0,56.1,29.7,87.2c0,0,3.2,17.9,13,66c7.6,37.4,28.6,153.6,37.8,206.8
	c18,103.8,62.6,129,106.5,125.8l10.8-10.2l6.6-24.9l39.3-173.6l-82.2-1l-35.1-205.7c0,0,11.7-54.3,15.1-70.2
	c3.4-15.9,2.5-40.2-14-36.8c0,0-25.3,25.1-44.6,31.8C515.1,549.2,451.5,547.5,451.5,547.5z"/>
<path class="st3" d="M611.4,1084.1c0,0,15.2-83.6,70.9-83.6c62.5,0,361-2.8,361-2.8l-37.9-174.5l117.9-0.7l37.8,208.9
	c0,0-15.1,51.2-60.3,52S611.4,1084.1,611.4,1084.1z"/>
<line class="st2" x1="604.3" y1="771" x2="625.8" y2="891"/>
<line class="st2" x1="661.2" y1="980.9" x2="1038.6" y2="980.9"/>
<line class="st2" x1="710.9" y1="757.5" x2="695.3" y2="824.5"/>
<line class="st2" x1="992.3" y1="757.7" x2="1008.8" y2="838.6"/>
<path class="st4" d="M812.4,474.7v163.9c0,1.1,0.9,1.3,2,1.4l106.4,0.8c1.1,0,1.9-0.9,1.9-1.9c0-0.1,0-0.1,0-0.2L912,535l-67.9-67.8
	L812.4,474.7z"/>
<path class="st4" d="M922.7,638.9c0,25.1-24.5,46.3-55.1,46.3s-55.2-21.3-55.2-46.3"/>
<circle class="st5" cx="812.4" cy="454.8" r="22.6"/>
<path class="st5" d="M904.5,536.7c0,0,35.8-10.9,42.6-41c6.8-30.1,10.7-89,0-113.9c-13.8-32-112.1-23.4-127.2-4.2s3.5,55.2,3.3,60.3
	s0.8,66.1,0.8,66.1L904.5,536.7z"/>
<polyline class="st2" points="902.3,436.3 919.9,474.2 898.1,474.7 "/>
<path class="st2" d="M872.1,478c0,0,8.1,27.6,33.2,15.1"/>
<ellipse cx="866.4" cy="437.9" rx="5.4" ry="8.4"/>
<ellipse cx="933.3" cy="437.9" rx="5.4" ry="8.4"/>
<circle class="st6" cx="871.2" cy="441.1" r="28"/>
<circle class="st6" cx="941.1" cy="440.1" r="28"/>
<line class="st6" x1="898.8" y1="436.3" x2="913" y2="436.3"/>
<path d="M856.6,400.8c-10.9,6.7-12.7,13.1-8.5,13.1s29.5-8.1,24.4-13.1C866.4,394.6,856.6,400.8,856.6,400.8z"/>
<path d="M930.7,398.4c3.9,5.6,18.8,11.4,17.2,5.6s-11.8-18.3-17.2-14.2C927,392.5,930.7,398.4,930.7,398.4z"/>
<polyline class="st2" points="808.6,445.1 823.2,456.3 806,463.5 "/>
<path d="M842.7,526.6c0,0,36.2,23.1,72.3,5.6l2.5,16.1C917.5,548.3,866.7,561.2,842.7,526.6z"/>
<path d="M940.8,359.2c-2.8,3.3-28.8,36.7-104.8,39.3l-12.7,35.8l-32.5-20.4l-14.4-46.3c0,0,29.3-56.1,73.2-62s55.7,5,55.7,5
	s38.5,15.9,48.1,38.5L940.8,359.2z"/>
<circle cx="790.8" cy="303.9" r="47.8"/>
<circle cx="940.7" cy="301.8" r="42.6"/>
<line class="st2" x1="622.8" y1="720.1" x2="1100.2" y2="720.1"/>
<line class="st2" x1="604.3" y1="771" x2="1112.9" y2="769.7"/>
<line class="st2" x1="696.3" y1="824.5" x2="1123.3" y2="822.5"/>
<line class="st2" x1="686.3" y1="878.3" x2="1015.1" y2="878.3"/>
<line class="st2" x1="674.5" y1="932" x2="1027" y2="930.7"/>
<path class="st2" d="M635.7,1081.6c0,0,6.7-48.2,49.9-56.5"/>
<path class="st2" d="M661.8,1082.1c0,0,8.6-36.8,47.6-40.1"/>
<path class="st2" d="M693.5,1081.1c0,0,8.7-21.7,32.7-22.9"/>
<path class="st7" d="M1377.6,1033.1h-157.9c-69,0-125.5-56.5-125.5-125.5l0,0c0-69,53.4-125.5,125.5-125.5h157.9
	c69,0,125.5,56.5,125.5,125.5l0,0C1503.1,976.7,1446.6,1033.1,1377.6,1033.1z"/>
<path class="st8" d="M1039.3,899.3c0,12.7,31.6,22.9,28.4-9.6c-2-19.6-20.6,9.5,5,19.2c18.6,7.1,27.5-19.4,27.5-19.4"/>
<line class="st9" x1="1240.2" y1="797.3" x2="1317.1" y2="797.3"/>
<path class="st10" d="M1364,823.1c1.4-3.5,31.4-69.1,31.4-69.1l28.5,72L1364,823.1z"/>
<path class="st8" d="M1411.4,873c0,0,12.6-23.7,29.7,0"/>
<path class="st8" d="M1461.5,870.2c2.2-6.8,14.1-17.1,21.7,0"/>
<circle class="st10" cx="1507.6" cy="915.7" r="34.3"/>
<ellipse cx="1497.6" cy="916.2" rx="5.4" ry="10.5"/>
<ellipse cx="1523.6" cy="916.2" rx="5.4" ry="10.5"/>
<line class="st2" x1="1498.8" y1="882.5" x2="1452.5" y2="882.5"/>
<line class="st2" x1="1507.6" y1="950" x2="1450" y2="950"/>
<path class="st1" d="M1174.7,461.2h135.2c9.6,0,17.4,7.8,17.4,17.4l0,0c0,9.6-7.8,17.4-17.4,17.4h-135.2c-9.6,0-17.4-7.8-17.4-17.4
	l0,0C1157.3,469,1165.1,461.2,1174.7,461.2z"/>
<path class="st7" d="M306.2,1h88.5c9.6,0,17.4,7.8,17.4,17.4l0,0c0,9.6-7.8,17.4-17.4,17.4h-88.5c-9.6,0-17.4-7.8-17.4-17.4l0,0
	C288.8,8.8,296.6,1,306.2,1z"/>
<circle class="st4" cx="1179.7" cy="285.8" r="15.2"/>
<circle class="st4" cx="184.9" cy="107.4" r="16.1"/>
<polygon class="st7" points="1204.4,617.5 1176.6,617 1190.8,594.4 1205.1,571.8 1218.6,594.8 1232.2,617.9 "/>
<line class="st0" x1="1480.3" y1="491.7" x2="1480.3" y2="542"/>
<line class="st0" x1="1505.9" y1="517" x2="1455.7" y2="516.6"/>
<line class="st0" x1="30.3" y1="698.8" x2="30.3" y2="749.1"/>
<line class="st0" x1="56" y1="724.2" x2="5.7" y2="723.8"/>
<path d="M201.1,878.4v40.8c0.1,40.2,32.7,72.8,72.9,72.9l0,0c40.2-0.1,72.8-32.7,72.9-72.9v-40.8H201.1z"/>
<path class="st1" d="M174.2,635.1c-3.8-3.2-16.2,163.5,79.5,221.4C253.7,856.5,289.4,731.8,174.2,635.1z"/>
<line class="st11" x1="188.2" y1="672.5" x2="261.7" y2="876.3"/>
<path class="st11" d="M221.1,710.1l-2.1,47.8"/>
<line class="st11" x1="209.7" y1="776.1" x2="233.3" y2="798.1"/>
<line class="st11" x1="187.1" y1="697.1" x2="203.5" y2="715.3"/>
<path class="st3" d="M439,708.3c0,0-108.5,31.1-128.2,147.9C310.7,856.3,410.4,846.8,439,708.3z"/>
<line class="st9" x1="414" y1="737.4" x2="291.8" y2="878.6"/>
<line class="st9" x1="372.8" y1="757.6" x2="360.5" y2="799.2"/>
<line class="st9" x1="343.7" y1="818.7" x2="373.7" y2="806.8"/>
<path class="st7" d="M313.6,615.6c0,0-76.4,95.2-27.5,216.4C286.1,832,370.1,726.9,313.6,615.6z"/>
<line class="st0" x1="311.6" y1="660.3" x2="278.1" y2="877"/>
<path class="st12" d="M292.2,695.6c1,2.8,9,32.9,9,32.9"/>
<line class="st0" x1="314.6" y1="744.4" x2="295.1" y2="768.7"/>
<path class="st0" d="M280.3,785.8c3.5,8.3,8.9,20.4,8.9,20.4"/>
<path class="st3" d="M139.4,790.6c0,0,36.1,76.5,90.9,75.6C230.3,866.1,223.4,811.9,139.4,790.6z"/>
<path class="st4" d="M187.6,829.6c33.8,27.5,55.1,48.9,55.1,48.9"/>
<polygon class="st3" points="744.8,17.4 580,17.4 580,132.8 635.7,132.8 636.3,132.8 661.8,177.6 686.5,132.8 744.8,132.8 "/>
<polyline class="st13" points="635.8,81.2 658.1,110.8 703.8,46.1 "/>
<path class="st2" d="M1476.7,683.5c6.5-37.2,36.9-74,49.9-32.7c12.4,39.5,30.9,76.6,58.8,10.3c27.9-66.4,64.3-56.7,70.7-30.8
	c8.2,33,11.6,77.8,35.6,77.8c33.1,0.1,23.3-124.4,101.5-108.4"/>
<rect x="1281.4" y="99.1" class="st3" width="335.1" height="251.3"/>
<line class="st2" x1="158.6" y1="296" x2="156.3" y2="492.5"/>
<polyline class="st9" points="129.3,331.3 158.6,296 186.4,333.2 "/>
<line class="st2" x1="119.8" y1="406.4" x2="119.8" y2="536"/>
<rect x="145.9" y="992.1" class="st7" width="237.8" height="47"/>
<polygon class="st1" points="396.3,1082.4 158.5,1082.6 158.5,1038.4 396.3,1038.4 "/>
<path class="st5" d="M813.9,630.9v9.3c0,3,2.6,5.9,5.6,5.8h0.1l96.5,11.2c3.4-7.1,4.8-15.5,4.6-17.9l-0.9-13.2
	c-0.2-2.5-1,1.1-3.5,1.2l-99.6,4.8C814.9,632.2,813.9,629.1,813.9,630.9z"/>
<rect x="1374.3" y="276.7" width="24.9" height="47.8"/>
<rect x="1418.2" y="234.9" class="st3" width="24.9" height="89.5"/>
<rect x="1460.9" y="247.4" class="st1" width="24.9" height="77.6"/>
<rect x="1503.5" y="219.2" class="st7" width="24.9" height="105.3"/>
<path class="st2" d="M1515,181.3c0,0-43.1,27.9-42.7,28.7s-41.6-12.9-41.6-12.9l-80.8,60.1"/>
<path class="st2" d="M1494.6,181.3c0.2,0.5,20.4,0,20.4,0l-7.1,19.1"/>
<polygon class="st7" points="1150.5,1004.5 1163.2,1083.2 1216.7,1083.2 1216.7,1022 1156.4,997.8 "/>
<polygon class="st7" points="1291.2,1029.6 1300.4,1082.2 1349,1082.2 1349,1022 "/>
<path class="st7" d="M1145.6,1003.2c0,0,32.9,27.4,87.9,25.9c58.1-1.6,124.4-1.2,124.4-1.2l8.7-34.2l-146.2-45.2l-65.3,15.6
	L1145.6,1003.2z"/>
<polygon class="st7" points="1356.2,815.7 1351.2,840.1 1377.9,830.2 1426.8,845.9 1431.3,815.7 "/>
<path class="st3" d="M1146.8,486.4h34.3c8.1,0,14.7,6.6,14.7,14.6v0c0,8.1-6.6,14.6-14.7,14.6h-34.3c-8.1,0-14.7-6.6-14.7-14.6v0
	C1132.2,492.9,1138.7,486.4,1146.8,486.4z"/>
<line class="st2" x1="647.2" y1="409.5" x2="671" y2="409.5"/>
<line class="st2" x1="607.7" y1="313.2" x2="627.1" y2="297.1"/>
<line class="st2" x1="484.5" y1="262" x2="484.5" y2="237.4"/>
<line class="st2" x1="351.7" y1="309.9" x2="331.5" y2="294.9"/>
<line class="st2" x1="321.1" y1="417.1" x2="294.9" y2="417.1"/>
<line class="st2" x1="356.1" y1="531" x2="335.5" y2="549.1"/>
<line class="st2" x1="627.1" y1="502.4" x2="650.1" y2="515.2"/>
<circle class="st7" cx="484.5" cy="426.8" r="132.9"/>
<circle class="st2" cx="484.4" cy="427.2" r="105.3"/>
<path d="M500.7,402.3c-0.3-4.4-2.5-8.4-6-11.1c-3.8-2.7-8.3-4.1-13-3.9c-3.4-0.1-6.7,0.6-9.8,2.1c-2.7,1.3-4.9,3.2-6.5,5.7
	c-1.6,2.5-2.4,5.3-2.3,8.2c-0.1,2.3,0.5,4.6,1.6,6.6c1.1,1.8,2.5,3.4,4.2,4.6c1.7,1.2,3.5,2.2,5.4,3c1.9,0.8,3.6,1.4,5.2,1.9
	l8.6,2.6c2.5,0.8,5,1.7,7.4,2.7c2.8,1.2,5.4,2.8,7.8,4.7c2.6,2.1,4.7,4.7,6.2,7.6c1.7,3.6,2.6,7.5,2.4,11.4
	c0.1,4.9-1.2,9.8-3.6,14.1c-2.4,4.3-6.1,7.7-10.4,10c-4.6,2.5-10.1,3.7-16.6,3.7c-5.4,0.2-10.8-1-15.7-3.3
	c-4.3-2.1-7.9-5.3-10.4-9.3c-2.6-4.2-4.1-9-4.3-13.9h10.6c0.1,3.3,1.3,6.4,3.2,9c1.9,2.4,4.4,4.2,7.2,5.3c3,1.2,6.2,1.7,9.4,1.7
	c3.6,0.1,7.2-0.7,10.5-2.2c3-1.3,5.5-3.4,7.4-6.1c1.8-2.7,2.8-5.9,2.7-9.2c0.1-2.8-0.7-5.5-2.3-7.8c-1.7-2.1-3.8-3.8-6.2-4.9
	c-2.7-1.3-5.5-2.4-8.3-3.3l-10.4-3.4c-6.6-2.2-11.8-5.2-15.7-9.3c-3.9-4-5.8-9.3-5.8-15.7c-0.1-5,1.2-9.9,3.9-14.1
	c2.6-4,6.1-7.3,10.4-9.4c4.5-2.3,9.6-3.4,14.7-3.4c5-0.1,10,1,14.5,3.3c4.1,2.1,7.6,5.2,10.1,9c2.5,3.9,3.9,8.4,3.9,13L500.7,402.3z
	"/>
<line class="st14" x1="475.5" y1="366.5" x2="475.5" y2="486.2"/>
<line class="st14" x1="490.8" y1="366.4" x2="490.8" y2="486"/>
<rect x="1281.4" y="99.1" class="st15" width="335.1" height="53.2"/>
<circle class="st5" cx="1313.6" cy="126.8" r="9.2"/>
<circle class="st7" cx="1343.7" cy="126.8" r="9.2"/>
<circle cx="1371.4" cy="126.8" r="9.2"/>
<line class="st2" x1="1040.1" y1="997.7" x2="1067.3" y2="997.7"/>
<polyline class="st9" points="1311.7,183.9 1311.7,325.1 1592.3,323.4 "/>
<path class="st5" d="M586.9,511.6c-7-2.6-16.8,3.6-23.1,31.5"/>
<path class="st2" d="M511.8,612.5c3.3-35.5,32.1-38,38-40.5c5.9-2.5,12.3-13.1,15.9-35.4c0,0,5.9-29.9,21.2-25.1"/>
<path class="st7" d="M1103.3,860.8c0,0-15,37.7-6.8,70.8l29.1-20.1l2.6-56.2L1103.3,860.8z"/>
<path class="st0" d="M838.5,307.2c0,0-37.6,18.2-52.1,44.4"/>
<path class="st0" d="M899.3,307.2c0,0,36.6,10.1,52.8,35.7"/>
<line class="st2" x1="1.5" y1="1084.7" x2="1699.4" y2="1084.7"/>
<rect x="201.1" y="877.3" width="145.8" height="16.2"/>
</svg>
