<?xml version="1.0" encoding="UTF-8"?>
<svg width="32px" height="32px" viewBox="0 0 32 32" version="1.1" xmlns="http://www.w3.org/2000/svg" xmlns:xlink="http://www.w3.org/1999/xlink">
    <title>Icon_media</title>
    <g id="Design" stroke="none" stroke-width="1" fill="none" fill-rule="evenodd">
        <g id="List-of-categories" transform="translate(-55.000000, -502.000000)">
            <g id="Icon_media" transform="translate(55.000000, 502.000000)">
                <g id="Group-5" fill="#8E8E93">
                    <circle id="Oval" cx="16" cy="16" r="16"></circle>
                </g>
                <g id="tv" transform="translate(7.000000, 6.000000)" fill="#FFFFFF" fill-rule="nonzero">
                    <path d="M15.7666208,4.02095063 L10.5111181,4.02095063 L12.3772861,0.878470823 C12.5391048,0.606025518 12.4550431,0.250544862 12.1895735,0.0845126723 C11.9241414,-0.0815965444 11.577725,0.00471246435 11.4159439,0.277157769 L9.19270156,4.02095063 L7.80733597,4.02095063 L5.58409363,0.277157769 C5.42231253,0.00478949158 5.07593361,-0.0814810035 4.81046399,0.0845126723 C4.54499438,0.250583375 4.46093276,0.606025518 4.62275138,0.878470823 L6.48891945,4.02095063 L1.23334165,4.02095063 C0.553268094,4.02095063 0,4.58875684 0,5.28666204 L0,15.7342886 C0,16.4321938 0.553268094,17 1.23334165,17 L15.7666584,17 C16.4467319,17 17,16.4321938 17,15.7342886 L17,5.28666204 C17,4.58875684 16.4466944,4.02095063 15.7666208,4.02095063 Z M11.9216271,14.2158509 C11.9216271,14.5958262 11.6214821,14.9038966 11.2511981,14.9038966 L2.67150845,14.9038966 C2.30126203,14.9038966 2.001117,14.5958262 2.001117,14.2158509 L2.001117,6.8051383 C2.001117,6.42516298 2.30126203,6.11709258 2.67154598,6.11709258 L11.2511981,6.11709258 C11.6214445,6.11709258 11.9216271,6.42516298 11.9216271,6.8051383 L11.9216271,14.2158509 Z M14.4027585,13.9959766 C13.7613007,13.9959766 13.2394057,13.4603678 13.2394057,12.8020546 C13.2394057,12.1437029 13.7613007,11.6081326 14.4027585,11.6081326 C15.0442162,11.6081326 15.5661113,12.1437029 15.5661113,12.8020546 C15.5661113,13.4604063 15.0442162,13.9959766 14.4027585,13.9959766 Z M14.4027585,9.41285658 C13.7613007,9.41285658 13.2394057,8.87728626 13.2394057,8.21893455 C13.2394057,7.56058283 13.7613007,7.02501252 14.4027585,7.02501252 C15.0442162,7.02501252 15.5661113,7.56058283 15.5661113,8.21893455 C15.5661113,8.87728626 15.0442162,9.41285658 14.4027585,9.41285658 Z" id="Shape"></path>
                </g>
            </g>
        </g>
    </g>
</svg>