<svg xmlns="http://www.w3.org/2000/svg" width="24" height="24" viewBox="0 0 20.625 20.625">
  <g id="dashboard" transform="translate(-0.688 -0.688)">
    <g id="ic_dash">
      <g id="Path" transform="translate(0.688 0.688)"  stroke-miterlimit="10">
        <path d="M 7.333333492279053 10.45833683013916 L 1.833333492279053 10.45833683013916 C 1.373833537101746 10.45833683013916 1.000003457069397 10.08450603485107 1.000003457069397 9.624996185302734 L 1.000003457069397 1.833336472511292 C 1.000003457069397 1.373826503753662 1.373833537101746 0.9999964833259583 1.833333492279053 0.9999964833259583 L 7.333333492279053 0.9999964833259583 C 7.79283332824707 0.9999964833259583 8.16666316986084 1.373826503753662 8.16666316986084 1.833336472511292 L 8.16666316986084 9.624996185302734 C 8.16666316986084 10.08450603485107 7.79283332824707 10.45833683013916 7.333333492279053 10.45833683013916 Z" stroke="none"/>
        <path d="M 7.166663646697998 9.45833683013916 L 7.166663646697998 1.999996542930603 L 2.000003576278687 1.999996542930603 L 2.000003576278687 9.45833683013916 L 7.166663646697998 9.45833683013916 M 7.333333492279053 11.45833683013916 L 1.833333492279053 11.45833683013916 C 0.8208134770393372 11.45833683013916 3.492279120109743e-06 10.637526512146 3.492279120109743e-06 9.624996185302734 L 3.492279120109743e-06 1.833336472511292 C 3.492279120109743e-06 0.8208065032958984 0.8208134770393372 -3.492279120109743e-06 1.833333492279053 -3.492279120109743e-06 L 7.333333492279053 -3.492279120109743e-06 C 8.345853805541992 -3.492279120109743e-06 9.16666316986084 0.8208065032958984 9.16666316986084 1.833336472511292 L 9.16666316986084 9.624996185302734 C 9.16666316986084 10.637526512146 8.345853805541992 11.45833683013916 7.333333492279053 11.45833683013916 Z" stroke="none" />
      </g>
      <g id="Path-2" data-name="Path" transform="translate(0.688 14.438)"  stroke-miterlimit="10">
        <path d="M 7.333333492279053 5.875 L 1.833333492279053 5.875 C 1.373833537101746 5.875 1.000003457069397 5.50117015838623 1.000003457069397 5.041669845581055 L 1.000003457069397 1.833330035209656 C 1.000003457069397 1.373829960823059 1.373833537101746 1 1.833333492279053 1 L 7.333333492279053 1 C 7.79283332824707 1 8.16666316986084 1.373829960823059 8.16666316986084 1.833330035209656 L 8.16666316986084 5.041669845581055 C 8.16666316986084 5.50117015838623 7.79283332824707 5.875 7.333333492279053 5.875 Z" stroke="none"/>
        <path d="M 7.166663646697998 4.875 L 7.166663646697998 2 L 2.000003576278687 2 L 2.000003576278687 4.875 L 7.166663646697998 4.875 M 7.333333492279053 6.875 L 1.833333492279053 6.875 C 0.8208134770393372 6.875 3.492279120109743e-06 6.054190158843994 3.492279120109743e-06 5.041669845581055 L 3.492279120109743e-06 1.833330035209656 C 3.492279120109743e-06 0.8208100199699402 0.8208134770393372 -4.440892098500626e-16 1.833333492279053 -4.440892098500626e-16 L 7.333333492279053 -4.440892098500626e-16 C 8.345853805541992 -4.440892098500626e-16 9.16666316986084 0.8208100199699402 9.16666316986084 1.833330035209656 L 9.16666316986084 5.041669845581055 C 9.16666316986084 6.054190158843994 8.345853805541992 6.875 7.333333492279053 6.875 Z" stroke="none" />
      </g>
      <g id="Path-3" data-name="Path" transform="translate(12.146 9.854)"  stroke-miterlimit="10">
        <path d="M 7.333333492279053 10.45833683013916 L 1.833333492279053 10.45833683013916 C 1.373833537101746 10.45833683013916 1.000003457069397 10.08450603485107 1.000003457069397 9.624996185302734 L 1.000003457069397 1.833336472511292 C 1.000003457069397 1.373826503753662 1.373833537101746 0.9999964833259583 1.833333492279053 0.9999964833259583 L 7.333333492279053 0.9999964833259583 C 7.79283332824707 0.9999964833259583 8.16666316986084 1.373826503753662 8.16666316986084 1.833336472511292 L 8.16666316986084 9.624996185302734 C 8.16666316986084 10.08450603485107 7.79283332824707 10.45833683013916 7.333333492279053 10.45833683013916 Z" stroke="none"/>
        <path d="M 7.166663646697998 9.45833683013916 L 7.166663646697998 1.999996542930603 L 2.000003576278687 1.999996542930603 L 2.000003576278687 9.45833683013916 L 7.166663646697998 9.45833683013916 M 7.333333492279053 11.45833683013916 L 1.833333492279053 11.45833683013916 C 0.8208134770393372 11.45833683013916 3.492279120109743e-06 10.637526512146 3.492279120109743e-06 9.624996185302734 L 3.492279120109743e-06 1.833336472511292 C 3.492279120109743e-06 0.8208065032958984 0.8208134770393372 -3.492279120109743e-06 1.833333492279053 -3.492279120109743e-06 L 7.333333492279053 -3.492279120109743e-06 C 8.345853805541992 -3.492279120109743e-06 9.16666316986084 0.8208065032958984 9.16666316986084 1.833336472511292 L 9.16666316986084 9.624996185302734 C 9.16666316986084 10.637526512146 8.345853805541992 11.45833683013916 7.333333492279053 11.45833683013916 Z" stroke="none" />
      </g>
      <g id="Path-4" data-name="Path" transform="translate(12.146 0.688)"  stroke-miterlimit="10">
        <path d="M 7.333333492279053 5.875 L 1.833333492279053 5.875 C 1.373833537101746 5.875 1.000003457069397 5.50117015838623 1.000003457069397 5.041669845581055 L 1.000003457069397 1.833330035209656 C 1.000003457069397 1.373829960823059 1.373833537101746 1 1.833333492279053 1 L 7.333333492279053 1 C 7.79283332824707 1 8.16666316986084 1.373829960823059 8.16666316986084 1.833330035209656 L 8.16666316986084 5.041669845581055 C 8.16666316986084 5.50117015838623 7.79283332824707 5.875 7.333333492279053 5.875 Z" stroke="none"/>
        <path d="M 2.000003337860107 2 L 2.000003337860107 4.875 L 7.16666316986084 4.875 L 7.16666316986084 2 L 2.000003337860107 2 M 1.833333492279053 0 L 7.333333492279053 0 C 8.345853805541992 0 9.16666316986084 0.8208098411560059 9.16666316986084 1.833330154418945 L 9.16666316986084 5.041669845581055 C 9.16666316986084 6.054190158843994 8.345853805541992 6.875 7.333333492279053 6.875 L 1.833333492279053 6.875 C 0.8208131790161133 6.875 3.814697265625e-06 6.054190158843994 3.814697265625e-06 5.041669845581055 L 3.814697265625e-06 1.833330154418945 C 3.814697265625e-06 0.8208098411560059 0.8208131790161133 0 1.833333492279053 0 Z" stroke="none" />
      </g>
    </g>
  </g>
</svg>
