<?xml version="1.0" encoding="UTF-8"?>
<svg width="32px" height="32px" viewBox="0 0 32 32" version="1.1" xmlns="http://www.w3.org/2000/svg" xmlns:xlink="http://www.w3.org/1999/xlink">
    <title>Icon_pets</title>
    <g id="Design" stroke="none" stroke-width="1" fill="none" fill-rule="evenodd">
        <g id="List-of-categories" transform="translate(-55.000000, -555.000000)">
            <g id="Icon_pets" transform="translate(55.000000, 555.000000)">
                <circle id="Oval" fill="#9C6345" cx="16" cy="16" r="16"></circle>
                <g id="pet" transform="translate(7.000000, 9.000000)" fill="#FFFFFF" fill-rule="nonzero">
                    <path d="M11.8377956,7.7294339 C11.1051684,6.64658113 9.85741664,6 8.49998191,6 C7.14254718,6 5.89479537,6.64658113 5.16229237,7.7294339 L3.39693161,10.3387078 C3.1040298,10.7715664 2.96888257,11.271743 3.00602322,11.7847476 C3.04316385,12.2978698 3.24923854,12.7756855 3.60188837,13.1668824 C3.95478661,13.5577262 4.42109427,13.8248794 4.95037953,13.939508 C5.47966479,14.0541368 6.02224119,14.0051783 6.51935444,13.7981641 L6.55264441,13.7841591 C7.80350162,13.273626 9.23285754,13.2783335 10.4804851,13.7981641 C10.8023293,13.9322114 11.1433028,14 11.4873817,14 C11.6744513,14 11.8626389,13.9798752 12.0490874,13.9396257 C12.5783727,13.8251147 13.0446803,13.5579616 13.3977028,13.1670001 C13.7504768,12.7761563 13.9566757,12.2982229 13.9939406,11.7849829 C14.0312055,11.271743 13.8960582,10.7716841 13.6031564,10.3385901 L11.8377956,7.7294339 Z" id="Path"></path>
                    <path d="M3.49764929,7.86710533 C4.12625689,7.64710435 4.60380837,7.18556291 4.84228675,6.56741975 C5.06931699,5.97921515 5.05073233,5.31514817 4.78980367,4.69741143 C4.52872634,4.08008107 4.05385104,3.57613793 3.4526001,3.27824255 C2.82101895,2.96544559 2.127142,2.91450941 1.49957515,3.13491677 C0.237007521,3.57722168 -0.342387888,4.99882902 0.208164145,6.3046107 C0.647951603,7.34392568 1.67367623,8 2.71070038,8 C2.97549463,8 3.2410323,7.95719196 3.49764929,7.86710533 Z" id="Path"></path>
                    <path d="M6.99989612,5 C8.10274258,5 9,3.87863248 9,2.5002849 C9,1.12159543 8.10274258,0 6.99989612,0 C5.89715357,0 5,1.12159543 5,2.5002849 C5,3.87863248 5.89715357,5 6.99989612,5 Z" id="Path"></path>
                    <path d="M11.2924897,4.89927173 L11.2926011,4.89927173 C11.4745962,4.96742996 11.6602691,5 11.8451618,5 C12.7079946,5 13.5488721,4.29138102 13.8697318,3.20235871 C14.0545131,2.57547927 14.0423652,1.91263441 13.8355172,1.33605622 C13.6190846,0.7324411 13.2179821,0.294317125 12.7059886,0.102292089 C12.1938836,-0.0897329789 11.640097,-0.00962823038 11.1464924,0.327641734 C10.6749546,0.649821288 10.3136392,1.17257713 10.1290808,1.7994566 C9.73956892,3.1218767 10.2614814,4.51245505 11.2924897,4.89927173 L11.2924897,4.89927173 Z" id="Path"></path>
                    <path d="M16.2865572,4.32452989 L16.2862106,4.3241958 C15.4405384,3.72195546 14.1757844,3.98298567 13.4666488,4.90639116 C12.7582063,5.83024209 12.8689835,7.07225142 13.713385,7.67493724 C14.0213432,7.89487521 14.3852098,8 14.7576244,8 C15.4066931,8 16.0819833,7.68061663 16.5334089,7.09329868 C17.2417358,6.16944774 17.1310742,4.92743841 16.2865572,4.32452989 Z" id="Path"></path>
                </g>
            </g>
        </g>
    </g>
</svg>