<svg id="undraw_Savings_dwkw" xmlns="http://www.w3.org/2000/svg" width="542.342" height="391.423" viewBox="0 0 542.342 391.423">
  <ellipse id="floor" cx="271.171" cy="32.96" rx="271.171" ry="32.96" transform="translate(0 325.502)" fill="#03dac5" opacity="0.1"/>
  <path id="background" d="M242.846,46.122c-26.8-.93-52.316-9.581-76.686-19.045S117.651,7.128,91.5,2.113C74.676-1.113,55.439-1.569,41.885,7.45,28.842,16.129,24.627,31.111,22.362,45.012c-1.7,10.459-2.707,21.466,1.964,31.257,3.243,6.8,9,12.512,12.983,19.023,13.856,22.656,4.062,50.594-10.953,72.716-7.043,10.377-15.213,20.276-20.648,31.323s-7.949,23.7-3.194,34.972c4.713,11.169,15.946,19.558,28.113,25.459,24.712,11.984,53.833,15.414,82.229,17.357,62.859,4.3,126.053,2.438,189.079.574,23.324-.69,46.751-1.389,69.7-5,12.742-2,25.9-5.182,35.148-12.856,11.743-9.742,14.654-26.239,6.785-38.454-13.2-20.49-49.694-25.58-58.92-47.569-5.078-12.1.137-25.587,7.517-36.812,15.831-24.081,42.367-45.208,43.765-72.734.96-18.9-11.8-37.838-31.52-46.782-20.675-9.376-49.343-8.2-64.6,7.324C294.1,40.794,266.5,46.944,242.846,46.122Z" transform="translate(85.863)" fill="#03dac5" opacity="0.1"/>
  <g
    id="body"
  >
  <ellipse id="Oval-2" data-name="Oval" cx="18.219" cy="19.339" rx="18.219" ry="19.339" transform="translate(311.922 305.452)" fill="#fbd56f"/>
  <ellipse id="Oval-3" data-name="Oval" cx="18.219" cy="19.339" rx="18.219" ry="19.339" transform="translate(311.922 305.452)" fill="#dce212"/>
  <ellipse id="Oval-4" data-name="Oval" cx="18.219" cy="18.908" rx="18.219" ry="18.908" transform="translate(315.066 306.313)" fill="#f0f47b"/>
  <path id="Path-2" data-name="Path" d="M2.55,1.487.655.432a22.956,22.956,0,0,0-.6,6.335A1.313,1.313,0,0,0,1.045,7.9c4.36,1.083,25.138,5.7,39.427-.8a1.311,1.311,0,0,0,.759-1.054A19.628,19.628,0,0,0,40.538.432C40.005-.97,2.55,1.487,2.55,1.487Z" transform="translate(338.115 340.869)" fill="#fbd56f"/>
  <path id="Path-3" data-name="Path" d="M2.55,1.487.655.432a22.956,22.956,0,0,0-.6,6.335A1.313,1.313,0,0,0,1.045,7.9c4.36,1.083,25.138,5.7,39.427-.8a1.311,1.311,0,0,0,.759-1.054A19.628,19.628,0,0,0,40.538.432C40.005-.97,2.55,1.487,2.55,1.487Z" transform="translate(338.115 340.869)" fill="#dce212"/>
  <ellipse id="Oval-5" data-name="Oval" cx="19.942" cy="4.495" rx="19.942" ry="4.495" transform="translate(338.77 336.806)" fill="#f0f47b"/>
  <path id="Path-4" data-name="Path" d="M2.55,1.487.655.432a22.956,22.956,0,0,0-.6,6.335A1.313,1.313,0,0,0,1.045,7.9c4.36,1.083,25.138,5.7,39.427-.8a1.311,1.311,0,0,0,.759-1.054A19.628,19.628,0,0,0,40.538.432C40.005-.97,2.55,1.487,2.55,1.487Z" transform="translate(345.734 334.237)" fill="#fbd56f"/>
  <path id="Path-5" data-name="Path" d="M2.55,1.487.655.432a22.956,22.956,0,0,0-.6,6.335A1.313,1.313,0,0,0,1.045,7.9c4.36,1.083,25.138,5.7,39.427-.8a1.311,1.311,0,0,0,.759-1.054A19.628,19.628,0,0,0,40.538.432C40.005-.97,2.55,1.487,2.55,1.487Z" transform="translate(345.734 334.237)" fill="#dce212"/>
  <ellipse id="Oval-6" data-name="Oval" cx="19.942" cy="4.495" rx="19.942" ry="4.495" transform="translate(346.388 330.174)" fill="#f0f47b"/>
  <path id="Path-6" data-name="Path" d="M2.55,1.487.655.432a22.956,22.956,0,0,0-.6,6.335A1.313,1.313,0,0,0,1.045,7.9c4.36,1.083,25.138,5.7,39.427-.8a1.311,1.311,0,0,0,.759-1.054A19.628,19.628,0,0,0,40.538.432C40.005-.97,2.55,1.487,2.55,1.487Z" transform="translate(352.469 325.52)" fill="#fbd56f"/>
  <path id="Path-7" data-name="Path" d="M2.55,1.487.655.432a22.956,22.956,0,0,0-.6,6.335A1.313,1.313,0,0,0,1.045,7.9c4.36,1.083,25.138,5.7,39.427-.8a1.311,1.311,0,0,0,.759-1.054A19.628,19.628,0,0,0,40.538.432C40.005-.97,2.55,1.487,2.55,1.487Z" transform="translate(352.469 325.52)" fill="#dce212"/>
  <ellipse id="Oval-7" data-name="Oval" cx="19.942" cy="4.495" rx="19.942" ry="4.495" transform="translate(353.124 321.457)" fill="#f0f47b"/>
  <path id="Path-8" data-name="Path" d="M2.55,1.487.655.432a22.956,22.956,0,0,0-.6,6.335A1.313,1.313,0,0,0,1.045,7.9c4.36,1.083,25.138,5.7,39.427-.8a1.311,1.311,0,0,0,.759-1.054A19.628,19.628,0,0,0,40.538.432C40.005-.97,2.55,1.487,2.55,1.487Z" transform="translate(345.01 316.446)" fill="#fbd56f"/>
  <path id="Path-9" data-name="Path" d="M2.55,1.487.655.432a22.956,22.956,0,0,0-.6,6.335A1.313,1.313,0,0,0,1.045,7.9c4.36,1.083,25.138,5.7,39.427-.8a1.311,1.311,0,0,0,.759-1.054A19.628,19.628,0,0,0,40.538.432C40.005-.97,2.55,1.487,2.55,1.487Z" transform="translate(345.01 316.446)" fill="#dce212"/>
  <ellipse id="Oval-8" data-name="Oval" cx="19.942" cy="4.495" rx="19.942" ry="4.495" transform="translate(345.665 312.383)" fill="#f0f47b"/>
  <path id="Path-10" data-name="Path" d="M2.55,1.487.655.432a22.956,22.956,0,0,0-.6,6.335A1.313,1.313,0,0,0,1.045,7.9c4.36,1.083,25.138,5.7,39.427-.8a1.311,1.311,0,0,0,.759-1.054A19.628,19.628,0,0,0,40.538.432C40.005-.97,2.55,1.487,2.55,1.487Z" transform="translate(361.79 309.164)" fill="#fbd56f"/>
  <path id="Path-11" data-name="Path" d="M2.55,1.487.655.432a22.956,22.956,0,0,0-.6,6.335A1.313,1.313,0,0,0,1.045,7.9c4.36,1.083,25.138,5.7,39.427-.8a1.311,1.311,0,0,0,.759-1.054A19.628,19.628,0,0,0,40.538.432C40.005-.97,2.55,1.487,2.55,1.487Z" transform="translate(361.79 309.164)" fill="#dce212"/>
  <ellipse id="Oval-9" data-name="Oval" cx="19.942" cy="4.495" rx="19.942" ry="4.495" transform="translate(362.445 305.101)" fill="#f0f47b"/>
  <path id="Path-12" data-name="Path" d="M2.55,1.487.655.432a22.956,22.956,0,0,0-.6,6.335A1.313,1.313,0,0,0,1.045,7.9c4.36,1.083,25.138,5.7,39.427-.8a1.311,1.311,0,0,0,.759-1.054A19.628,19.628,0,0,0,40.538.432C40.005-.97,2.55,1.487,2.55,1.487Z" transform="translate(350.453 304.27)" fill="#fbd56f"/>
  <path id="Path-13" data-name="Path" d="M2.55,1.487.655.432a22.956,22.956,0,0,0-.6,6.335A1.313,1.313,0,0,0,1.045,7.9c4.36,1.083,25.138,5.7,39.427-.8a1.311,1.311,0,0,0,.759-1.054A19.628,19.628,0,0,0,40.538.432C40.005-.97,2.55,1.487,2.55,1.487Z" transform="translate(350.453 304.27)" fill="#dce212"/>
  <ellipse id="Oval-10" data-name="Oval" cx="19.942" cy="4.495" rx="19.942" ry="4.495" transform="translate(351.108 300.207)" fill="#f0f47b"/>
  <path id="Path-14" data-name="Path" d="M2.55,1.487.655.432a22.956,22.956,0,0,0-.6,6.335A1.313,1.313,0,0,0,1.045,7.9c4.36,1.083,25.138,5.7,39.427-.8a1.311,1.311,0,0,0,.759-1.054A19.628,19.628,0,0,0,40.538.432C40.005-.97,2.55,1.487,2.55,1.487Z" transform="translate(358.022 294.821)" fill="#fbd56f"/>
  <path id="Path-15" data-name="Path" d="M2.55,1.487.655.432a22.956,22.956,0,0,0-.6,6.335A1.313,1.313,0,0,0,1.045,7.9c4.36,1.083,25.138,5.7,39.427-.8a1.311,1.311,0,0,0,.759-1.054A19.628,19.628,0,0,0,40.538.432C40.005-.97,2.55,1.487,2.55,1.487Z" transform="translate(358.022 294.821)" fill="#dce212"/>
  <ellipse id="Oval-11" data-name="Oval" cx="19.942" cy="4.495" rx="19.942" ry="4.495" transform="translate(358.677 290.758)" fill="#f0f47b"/>
  <path id="Path-16" data-name="Path" d="M2.55,1.487.655.432a22.956,22.956,0,0,0-.6,6.335A1.313,1.313,0,0,0,1.045,7.9c4.36,1.083,25.138,5.7,39.427-.8a1.311,1.311,0,0,0,.759-1.054A19.628,19.628,0,0,0,40.538.432C40.005-.97,2.55,1.487,2.55,1.487Z" transform="translate(361.756 283.605)" fill="#fbd56f"/>
  <path id="Path-17" data-name="Path" d="M2.55,1.487.655.432a22.956,22.956,0,0,0-.6,6.335A1.313,1.313,0,0,0,1.045,7.9c4.36,1.083,25.138,5.7,39.427-.8a1.311,1.311,0,0,0,.759-1.054A19.628,19.628,0,0,0,40.538.432C40.005-.97,2.55,1.487,2.55,1.487Z" transform="translate(361.756 283.605)" fill="#dce212"/>
  <ellipse id="Oval-12" data-name="Oval" cx="19.942" cy="4.495" rx="19.942" ry="4.495" transform="translate(362.411 279.542)" fill="#f0f47b"/>
  <path id="Path-18" data-name="Path" d="M2.55,1.487.655.432a22.956,22.956,0,0,0-.6,6.335A1.313,1.313,0,0,0,1.045,7.9c4.36,1.083,25.138,5.7,39.427-.8a1.311,1.311,0,0,0,.759-1.054A19.628,19.628,0,0,0,40.538.432C40.005-.97,2.55,1.487,2.55,1.487Z" transform="translate(395.419 343.47)" fill="#fbd56f"/>
  <path id="Path-19" data-name="Path" d="M2.55,1.487.655.432a22.956,22.956,0,0,0-.6,6.335A1.313,1.313,0,0,0,1.045,7.9c4.36,1.083,25.138,5.7,39.427-.8a1.311,1.311,0,0,0,.759-1.054A19.628,19.628,0,0,0,40.538.432C40.005-.97,2.55,1.487,2.55,1.487Z" transform="translate(395.419 343.47)" fill="#dce212"/>
  <ellipse id="Oval-13" data-name="Oval" cx="19.942" cy="4.495" rx="19.942" ry="4.495" transform="translate(396.074 339.407)" fill="#f0f47b"/>
  <path id="Path-20" data-name="Path" d="M2.55,1.487.655.432a22.956,22.956,0,0,0-.6,6.335A1.313,1.313,0,0,0,1.045,7.9c4.36,1.083,25.138,5.7,39.427-.8a1.311,1.311,0,0,0,.759-1.054A19.628,19.628,0,0,0,40.538.432C40.005-.97,2.55,1.487,2.55,1.487Z" transform="translate(402.155 334.754)" fill="#fbd56f"/>
  <path id="Path-21" data-name="Path" d="M2.55,1.487.655.432a22.956,22.956,0,0,0-.6,6.335A1.313,1.313,0,0,0,1.045,7.9c4.36,1.083,25.138,5.7,39.427-.8a1.311,1.311,0,0,0,.759-1.054A19.628,19.628,0,0,0,40.538.432C40.005-.97,2.55,1.487,2.55,1.487Z" transform="translate(402.155 334.754)" fill="#dce212"/>
  <ellipse id="Oval-14" data-name="Oval" cx="19.942" cy="4.495" rx="19.942" ry="4.495" transform="translate(402.809 330.69)" fill="#f0f47b"/>
  <path id="Path-22" data-name="Path" d="M2.55,1.487.655.432a22.956,22.956,0,0,0-.6,6.335A1.313,1.313,0,0,0,1.045,7.9c4.36,1.083,25.138,5.7,39.427-.8a1.311,1.311,0,0,0,.759-1.054A19.628,19.628,0,0,0,40.538.432C40.005-.97,2.55,1.487,2.55,1.487Z" transform="translate(394.695 325.68)" fill="#fbd56f"/>
  <path id="Path-23" data-name="Path" d="M2.55,1.487.655.432a22.956,22.956,0,0,0-.6,6.335A1.313,1.313,0,0,0,1.045,7.9c4.36,1.083,25.138,5.7,39.427-.8a1.311,1.311,0,0,0,.759-1.054A19.628,19.628,0,0,0,40.538.432C40.005-.97,2.55,1.487,2.55,1.487Z" transform="translate(394.695 325.68)" fill="#dce212"/>
  <ellipse id="Oval-15" data-name="Oval" cx="19.942" cy="4.495" rx="19.942" ry="4.495" transform="translate(395.35 321.617)" fill="#f0f47b"/>
  <path id="Path-24" data-name="Path" d="M2.55,1.487.655.432a22.956,22.956,0,0,0-.6,6.335A1.313,1.313,0,0,0,1.045,7.9c4.36,1.083,25.138,5.7,39.427-.8a1.311,1.311,0,0,0,.759-1.054A19.628,19.628,0,0,0,40.538.432C40.005-.97,2.55,1.487,2.55,1.487Z" transform="translate(411.476 318.398)" fill="#fbd56f"/>
  <path id="Path-25" data-name="Path" d="M2.55,1.487.655.432a22.956,22.956,0,0,0-.6,6.335A1.313,1.313,0,0,0,1.045,7.9c4.36,1.083,25.138,5.7,39.427-.8a1.311,1.311,0,0,0,.759-1.054A19.628,19.628,0,0,0,40.538.432C40.005-.97,2.55,1.487,2.55,1.487Z" transform="translate(411.476 318.398)" fill="#dce212"/>
  <ellipse id="Oval-16" data-name="Oval" cx="19.942" cy="4.495" rx="19.942" ry="4.495" transform="translate(412.13 314.335)" fill="#f0f47b"/>
  <path id="Path-26" data-name="Path" d="M2.55,1.487.655.432a22.956,22.956,0,0,0-.6,6.335A1.313,1.313,0,0,0,1.045,7.9c4.36,1.083,25.138,5.7,39.427-.8a1.311,1.311,0,0,0,.759-1.054A19.628,19.628,0,0,0,40.538.432C40.005-.97,2.55,1.487,2.55,1.487Z" transform="translate(400.138 313.503)" fill="#fbd56f"/>
  <path id="Path-27" data-name="Path" d="M2.55,1.487.655.432a22.956,22.956,0,0,0-.6,6.335A1.313,1.313,0,0,0,1.045,7.9c4.36,1.083,25.138,5.7,39.427-.8a1.311,1.311,0,0,0,.759-1.054A19.628,19.628,0,0,0,40.538.432C40.005-.97,2.55,1.487,2.55,1.487Z" transform="translate(400.138 313.503)" fill="#dce212"/>
  <ellipse id="Oval-17" data-name="Oval" cx="19.942" cy="4.495" rx="19.942" ry="4.495" transform="translate(400.793 309.44)" fill="#f0f47b"/>
  <path id="Path-28" data-name="Path" d="M2.55,1.487.655.432a22.956,22.956,0,0,0-.6,6.335A1.313,1.313,0,0,0,1.045,7.9c4.36,1.083,25.138,5.7,39.427-.8a1.311,1.311,0,0,0,.759-1.054A19.628,19.628,0,0,0,40.538.432C40.005-.97,2.55,1.487,2.55,1.487Z" transform="translate(407.708 304.054)" fill="#fbd56f"/>
  <path id="Path-29" data-name="Path" d="M2.55,1.487.655.432a22.956,22.956,0,0,0-.6,6.335A1.313,1.313,0,0,0,1.045,7.9c4.36,1.083,25.138,5.7,39.427-.8a1.311,1.311,0,0,0,.759-1.054A19.628,19.628,0,0,0,40.538.432C40.005-.97,2.55,1.487,2.55,1.487Z" transform="translate(407.708 304.054)" fill="#dce212"/>
  <ellipse id="Oval-18" data-name="Oval" cx="19.942" cy="4.495" rx="19.942" ry="4.495" transform="translate(408.362 299.991)" fill="#f0f47b"/>
  <path id="Path-30" data-name="Path" d="M2.55,1.487.655.432a22.956,22.956,0,0,0-.6,6.335A1.313,1.313,0,0,0,1.045,7.9c4.36,1.083,25.138,5.7,39.427-.8a1.311,1.311,0,0,0,.759-1.054A19.628,19.628,0,0,0,40.538.432C40.005-.97,2.55,1.487,2.55,1.487Z" transform="translate(411.441 292.839)" fill="#fbd56f"/>
  <path id="Path-31" data-name="Path" d="M2.55,1.487.655.432a22.956,22.956,0,0,0-.6,6.335A1.313,1.313,0,0,0,1.045,7.9c4.36,1.083,25.138,5.7,39.427-.8a1.311,1.311,0,0,0,.759-1.054A19.628,19.628,0,0,0,40.538.432C40.005-.97,2.55,1.487,2.55,1.487Z" transform="translate(411.441 292.839)" fill="#dce212"/>
  <ellipse id="Oval-19" data-name="Oval" cx="19.942" cy="4.495" rx="19.942" ry="4.495" transform="translate(412.096 288.776)" fill="#f0f47b"/>
  <ellipse id="Oval-20" data-name="Oval" cx="18.219" cy="19.339" rx="18.219" ry="19.339" transform="translate(353.309 333.043)" fill="#fbd56f"/>
  <ellipse id="Oval-21" data-name="Oval" cx="18.219" cy="19.339" rx="18.219" ry="19.339" transform="translate(353.309 333.043)" fill="#dce212"/>
  <ellipse id="Oval-22" data-name="Oval" cx="18.219" cy="18.908" rx="18.219" ry="18.908" transform="translate(356.453 333.905)" fill="#f0f47b"/>
  <path id="Path-32" data-name="Path" d="M22.248,3.4a19.616,19.616,0,0,1,2.439,4.453c.163.41.322.84.473,1.291,2.424,7.245-1.417,15.933-2.515,15s-4.52-2.676-5.182-.233a14.021,14.021,0,0,1-3.106,4.941c-4.453,4.479-8.484-.36-11.13-5.361A48.435,48.435,0,0,1,.925,18.4C.337,16.865,0,15.8,0,15.8L18.549,0A10.98,10.98,0,0,1,22.248,3.4Z" transform="translate(291.913 331.002)" fill="#03dac5"/>
  <path id="Path-33" data-name="Path" d="M22.248,3.4a19.616,19.616,0,0,1,2.439,4.453c.163.41.322.84.473,1.291,2.424,7.245-1.417,15.933-2.515,15s-4.52-2.676-5.182-.233a14.021,14.021,0,0,1-3.106,4.941c-4.453,4.479-8.484-.36-11.13-5.361A48.437,48.437,0,0,1,.925,18.4C.337,16.865,0,15.8,0,15.8L18.549,0A10.979,10.979,0,0,1,22.248,3.4Z" transform="translate(262.679 341.108)" fill="#03dac5"/>
  <path id="Path-34" data-name="Path" d="M28.049,4.978a19.615,19.615,0,0,1-.965,4.985c-.136.419-.288.852-.46,1.3-2.757,7.125-11.259,11.362-11.507,9.94s-1.772-4.945-3.841-3.486a14.021,14.021,0,0,1-5.544,1.822C-.554,20.141-.569,13.842.585,8.3A48.435,48.435,0,0,1,2.059,2.919C2.587,1.362,3,.33,3,.33L27.371,0A10.98,10.98,0,0,1,28.049,4.978Z" transform="translate(198.179 353.49)" fill="#03dac5"/>
  <path id="Path-35" data-name="Path" d="M28.05,4.978a19.616,19.616,0,0,1-.965,4.985c-.136.419-.288.852-.46,1.3-2.757,7.125-11.259,11.362-11.507,9.94s-1.772-4.945-3.841-3.486a14.021,14.021,0,0,1-5.544,1.822C-.554,20.141-.569,13.842.585,8.3A48.436,48.436,0,0,1,2.059,2.919C2.587,1.362,3,.33,3,.33L27.371,0A10.979,10.979,0,0,1,28.05,4.978Z" transform="translate(166.696 345.55)" fill="#03dac5"/>
  <path id="Path-36" data-name="Path" d="M22.248,3.4a19.616,19.616,0,0,1,2.439,4.453c.163.41.322.84.473,1.291,2.424,7.245-1.417,15.933-2.515,15s-4.52-2.676-5.182-.233a14.021,14.021,0,0,1-3.106,4.941c-4.453,4.479-8.484-.36-11.13-5.361A48.435,48.435,0,0,1,.925,18.4C.337,16.865,0,15.8,0,15.8L18.549,0A10.98,10.98,0,0,1,22.248,3.4Z" transform="translate(291.913 331.002)" fill="#03c9b5" opacity="0.2"/>
  <path id="Path-37" data-name="Path" d="M22.248,3.4a19.616,19.616,0,0,1,2.439,4.453c.163.41.322.84.473,1.291,2.424,7.245-1.417,15.933-2.515,15s-4.52-2.676-5.182-.233a14.021,14.021,0,0,1-3.106,4.941c-4.453,4.479-8.484-.36-11.13-5.361A48.437,48.437,0,0,1,.925,18.4C.337,16.865,0,15.8,0,15.8L18.549,0A10.979,10.979,0,0,1,22.248,3.4Z" transform="translate(262.679 341.108)" fill="#03c9b5" opacity="0.2"/>
  <path id="Path-38" data-name="Path" d="M28.049,4.978a19.615,19.615,0,0,1-.965,4.985c-.136.419-.288.852-.46,1.3-2.757,7.125-11.259,11.362-11.507,9.94s-1.772-4.945-3.841-3.486a14.021,14.021,0,0,1-5.544,1.822C-.554,20.141-.569,13.842.585,8.3A48.435,48.435,0,0,1,2.059,2.919C2.587,1.362,3,.33,3,.33L27.371,0A10.98,10.98,0,0,1,28.049,4.978Z" transform="translate(198.179 353.49)" fill="#03c9b5" opacity="0.2"/>
  <path id="Path-39" data-name="Path" d="M28.05,4.978a19.616,19.616,0,0,1-.965,4.985c-.136.419-.288.852-.46,1.3-2.757,7.125-11.259,11.362-11.507,9.94s-1.772-4.945-3.841-3.486a14.021,14.021,0,0,1-5.544,1.822C-.554,20.141-.569,13.842.585,8.3A48.436,48.436,0,0,1,2.059,2.919C2.587,1.362,3,.33,3,.33L27.371,0A10.979,10.979,0,0,1,28.05,4.978Z" transform="translate(166.696 345.55)" fill="#03c9b5" opacity="0.2"/>
  <path id="pig-body" data-name="Path" d="M247.261,117.839c0,65.08-22.016,117.839-123.613,117.839-68.27,0-121.087-16.963-123.613-117.839C-1.6,52.779,55.378,0,123.647,0S247.261,52.758,247.261,117.839Z" transform="translate(116.378 125.902)" fill="#1dfce5"/>
  <path id="Path-41" data-name="Path" d="M.235.241H.25l-.011,0Z" transform="translate(216.601 127.718)" opacity="0.2"/>
  <path id="Path-42" data-name="Path" d="M.173.329C.487.279,1.108.192,2.01.123L0,.362Q.043.351.108.34Z" transform="translate(216.905 127.59)" opacity="0.2"/>
  <path id="Path-43" data-name="Path" d="M89.489,49.951,80.466,53.2a201.545,201.545,0,0,0-14.823-17.67A144.8,144.8,0,0,0,46.872,18.713C23.77,1.592,5.9,1.155,0,1.6L13.563,0A110.272,110.272,0,0,1,49.976,13.163,120.294,120.294,0,0,1,71.858,29.328C83.667,40.289,89.489,49.951,89.489,49.951Z" transform="translate(218.93 126.118)" opacity="0.2"/>
  <path id="Path-44" data-name="Path" d="M5.872,50.9S-6.039,11.2,4.067.368c0,0,15.88-5.414,27.79,25.264Z" transform="translate(220.981 131.308)" fill="#03c9b5"/>
  <path id="Path-45" data-name="Path" d="M0,22.529S31.585-4.311,45.557.6c0,0,11.331,12.373-11.989,35.593Z" transform="translate(287.161 122.595)" fill="#03dac5"/>
  <path id="Path-46" data-name="Path" d="M0,22.529S31.585-4.311,45.557.6c0,0,11.331,12.373-11.989,35.593Z" transform="translate(287.161 122.595)" fill="#03c9b5"/>
  <path id="Path-47" data-name="Path" d="M85.537,63.449c0,34.982-25.1,62.619-48.723,62.619S0,98.431,0,63.449,19.188,1.476,42.768.109C80.123-2.057,85.537,28.467,85.537,63.449Z" transform="translate(300.118 210.247)" fill="#03dac5"/>
  <path id="Path-48" data-name="Path" d="M85.537,63.449c0,34.982-25.1,62.619-48.723,62.619S0,98.431,0,63.449,19.188,1.476,42.768.109C80.123-2.057,85.537,28.467,85.537,63.449Z" transform="translate(300.118 210.247)" fill="#03c9b5"/>
  <ellipse id="Oval-23" data-name="Oval" cx="7.94" cy="10.106" rx="7.94" ry="10.106" transform="translate(327.547 268.824)" fill="#03dac5"/>
  <ellipse id="Oval-24" data-name="Oval" cx="7.94" cy="10.106" rx="7.94" ry="10.106" transform="translate(355.699 260.162)" fill="#03dac5"/>
  <path id="Path-49" data-name="Path" d="M26.527,14.068a14.409,14.409,0,0,1-1.541,6.518,13.85,13.85,0,0,1-6.215,6.2A144.8,144.8,0,0,0,0,9.972,14.146,14.146,0,0,1,3.1,4.421,13.306,13.306,0,0,1,12.971,0,13.82,13.82,0,0,1,26.527,14.068Z" transform="translate(265.802 134.86)" fill="#f0f47b"/>
  </g>
</svg>
