<?xml version="1.0" encoding="UTF-8"?>
<svg width="40px" height="34px" viewBox="0 0 40 34" version="1.1" xmlns="http://www.w3.org/2000/svg" xmlns:xlink="http://www.w3.org/1999/xlink">
    <title>cash</title>
    <g id="Design" stroke="none" stroke-width="1" fill="none" fill-rule="evenodd">
        <g id="01_Dashboard" transform="translate(-66.000000, -27.000000)" fill="#1DFCE5" fill-rule="nonzero">
            <g id="Group-26" transform="translate(33.000000, 27.000000)">
                <g id="cash" transform="translate(33.000000, 0.000000)">
                    <path d="M39.334745,15.062393 C38.2586879,15.062393 37.2999262,14.3406347 37.0031986,13.3068594 C36.1154314,10.2145519 33.991903,7.42456986 31.0239556,5.45110885 C30.338704,4.99519776 29.9296467,4.23776886 29.9296467,3.4244784 L29.9296467,0.668417133 C29.9296467,0.401358497 29.7843025,0.236196731 29.6976059,0.161624914 C29.6111778,0.0870530977 29.4273167,-0.0326117847 29.163872,0.00830849005 C28.0407089,0.180335171 26.4682269,0.639207594 25.3559345,1.84810558 C24.8286424,2.42139324 24.0436763,2.7019125 23.2589787,2.60041945 C22.4247594,2.49206148 21.5776563,2.43700756 20.7411555,2.43700756 C11.5099871,2.43700756 4,8.83672316 4,16.7031076 C4,19.01443 4.84965293,21.1391884 5.76748209,23.0909778 C7.21998464,26.1797855 10.1237819,31.5081706 11.3050558,33.655812 C11.4218143,33.868086 11.6447291,34 11.8869694,34 L14.278774,34 C14.6455567,34 14.944029,33.7006359 14.944029,33.3327572 L14.944029,31.3125879 C14.944029,30.6009251 15.2528351,29.926952 15.7912662,29.4636376 C16.3298316,29.0004577 17.0405822,28.7969332 17.7422068,28.9054258 C19.6707351,29.2034438 21.6942806,29.2092319 23.6236141,28.9229246 C23.7427883,28.9051566 23.8622309,28.8965418 23.9807341,28.8965418 C24.560232,28.8965418 25.1242964,29.1039699 25.5689181,29.4888089 C26.1034573,29.9515849 26.4101161,30.6234043 26.4101161,31.3319712 L26.4101161,33.3326226 C26.4101161,33.7005013 26.7085884,34 27.0753711,34 L29.5647428,34 C29.7851077,34 29.99071,33.8908344 30.1145814,33.708443 C31.110518,32.2412358 33.524869,28.6131958 34.4272645,26.622236 C35.0624576,25.2204474 35.4916457,24.1092735 35.9064739,23.034847 C35.9872654,22.8253998 36.0668491,22.6194524 36.1462985,22.4153895 C36.5124103,21.4757038 37.4001774,20.8684954 38.4077899,20.8684954 L39.334745,20.8684954 C39.7015277,20.8684954 40,20.5691313 40,20.2012526 L40,15.7297704 C40,15.3617571 39.7015277,15.062393 39.334745,15.062393 Z M23.1027639,8.55795379 L18.2516496,8.55795379 C17.6832907,8.55795379 17.2226986,8.09585082 17.2226986,7.52592831 C17.2226986,6.95600579 17.6832907,6.49390282 18.2516496,6.49390282 L23.1027639,6.49390282 C23.6711228,6.49390282 24.1317149,6.95600579 24.1317149,7.52592831 C24.1317149,8.09585082 23.6709886,8.55795379 23.1027639,8.55795379 Z M31.5399745,14.9082689 C31.3475243,15.1000827 31.0828717,15.2105944 30.8124483,15.2105944 C30.5404144,15.2105944 30.275896,15.0999481 30.0847878,14.9082689 C29.8920692,14.7152437 29.7834972,14.4498003 29.7834972,14.1785689 C29.7834972,13.9057222 29.8922034,13.6404134 30.0847878,13.4487343 C30.275896,13.2554398 30.5404144,13.1465434 30.8124483,13.1465434 C31.0828717,13.1465434 31.3475243,13.2555744 31.5399745,13.4487343 C31.7312169,13.6404134 31.8399231,13.9057222 31.8399231,14.1785689 C31.8399231,14.4498003 31.7312169,14.7152437 31.5399745,14.9082689 Z" id="Shape"></path>
                    <path d="M2.05095272,5.22676502 C2.16410327,4.68021163 1.82645378,4.14173473 1.29494224,4.02310298 C0.76188598,3.90486844 0.236810762,4.25202518 0.120956951,4.79977018 C-0.227891747,6.4524057 0.0124405483,9.69253519 3.09569664,11 C3.35469427,10.3749325 3.65758762,9.76866605 4,9.18345143 C1.53295746,8.23347067 1.98607458,5.55088389 2.05095272,5.22676502 Z" id="Path"></path>
                </g>
            </g>
        </g>
    </g>
</svg>