<svg xmlns="http://www.w3.org/2000/svg" width="24" height="24" viewBox="0 0 32 32" fill="#282C43" >
    <g id="pound-symbol-variant" fill="#282C43" fill-rule="nonzero">
        <path d="M22.9696124,25.1707558 L22.9704303,25.1731664 L22.7565565,25.2193712 C22.6408275,25.2374513 22.5463631,25.2639689 22.4596686,25.3049505 L22.3697026,25.3378965 C20.9478303,26.0462358 19.448669,26.4098474 17.9335592,26.4098474 C17.6587539,26.4098474 17.1430849,26.3383304 16.4008652,26.1973054 C15.6598722,26.0723516 14.8534494,25.9321301 13.9901844,25.7790517 C13.1285552,25.6259733 12.2816476,25.4801269 11.4519154,25.3395036 C10.6144135,25.1976751 9.96665802,25.1297741 9.47225377,25.1297741 C9.12302199,25.1297741 8.7692919,25.1462471 8.42006012,25.1787914 L6.92907758,25.318611 L7.94814738,24.2402317 C8.0503815,24.1325545 8.14689052,24.0252791 8.23971911,23.9188072 C8.6965012,23.3940816 9.07517642,22.8400261 9.36511241,22.2703011 C9.65463946,21.7005761 9.86687751,21.0729946 9.99528358,20.4028245 C10.1236896,19.7310472 10.1895284,18.9736906 10.1895284,18.1520491 C10.1895284,17.7771878 10.1449543,17.4051389 10.0562151,17.0451434 L9.88609753,16.3536788 L15.5821743,16.3428308 C15.6831816,16.3343934 15.7698761,16.3118936 15.854526,16.2733227 C16.485924,16.071227 16.8948605,15.5231982 16.8948605,14.9008399 C16.8948605,14.2069647 16.3902328,13.6127311 15.6938139,13.4869737 C15.6431058,13.4761256 15.5973049,13.4700989 15.5510951,13.4688936 L15.5445521,13.4692954 C15.5269678,13.4688936 15.513064,13.4684918 15.5020227,13.4676882 L15.4280052,13.4729114 L9.18231778,13.4729114 L9.05718321,13.0795681 C8.40165797,11.0132101 8.07001046,9.26787484 8.07001046,7.89097247 C8.07001046,7.21758805 8.19800759,6.56871226 8.45073035,5.96242522 C8.70304419,5.35814709 9.05472959,4.81855564 9.49638103,4.35932033 C9.93516991,3.90209392 10.4774197,3.53727707 11.1079998,3.27531607 C11.7365353,3.01456041 12.4497205,2.88197279 13.2266999,2.88197279 C16.3881881,2.88197279 18.0607385,4.35811499 18.3396332,7.39477333 C18.3445404,7.41124634 18.3482209,7.42852291 18.3514924,7.44579948 L18.3625336,7.58320847 L18.3584443,7.6117349 C18.3617158,7.6740109 18.379709,7.76923292 18.4165133,7.88132973 C18.5641393,8.84680869 19.3595209,9.52461269 20.3147966,9.52461269 C21.3036051,9.52461269 22.1198424,8.78533625 22.2220765,7.83994632 L22.2212586,7.83994632 L22.2327088,7.58079779 C22.2331178,7.57677998 22.2290284,7.54544109 22.2273927,7.51048617 L22.2265748,7.46910276 C22.1153441,6.26376073 21.8184561,5.17774756 21.3473613,4.2496342 C20.8762664,3.32513687 20.2526382,2.53965565 19.4952878,1.91569026 C18.7354837,1.28891241 17.8211017,0.807980938 16.7799493,0.486154617 C15.7367523,0.163524735 14.5733279,0 13.3236179,0 C11.970447,0 10.7199191,0.192452944 9.60638495,0.572135682 C8.49121507,0.952220201 7.52162659,1.5010526 6.72542719,2.2017581 C5.92677417,2.9044725 5.29701194,3.77955081 4.85372476,4.80288619 C4.4096197,5.82823048 4.18429568,6.98857307 4.18429568,8.25378042 C4.18429568,8.85002294 4.26608298,9.58487979 4.42761291,10.4374584 C4.55438323,11.1128517 4.7478102,11.892708 5.00339552,12.7561347 L5.21522464,13.4733132 L1.96785976,13.4664829 C1.22400424,13.5355892 0.639633954,14.1527243 0.639633954,14.9016435 C0.639633954,15.6369021 1.20519316,16.2492159 1.95436485,16.3263577 L2.09422114,16.3512682 L6.0580428,16.3544824 L6.15618756,16.7952358 C6.30626726,17.4738434 6.38273839,18.1689239 6.38273839,18.8595849 C6.38273839,19.8756882 6.28418469,20.7881321 6.08993985,21.5691938 C5.89651287,22.3482465 5.61475561,23.0485502 5.25161999,23.648007 C4.88930223,24.2450531 4.439881,24.7746 3.91398864,25.2205766 C3.39095884,25.6653478 2.78368811,26.0655213 2.11139648,26.4078385 C1.02771471,26.7618072 -0.182328445,27.4030492 0.0229576868,28.5252226 C0.190621659,29.4416843 1.07883177,30.1086403 2.02592874,29.9852936 C2.0545543,29.9804722 2.05537217,29.9800704 2.0803173,29.9684188 C4.72818125,28.7823622 7.13272796,28.1841108 9.23956889,28.1841108 C9.51232955,28.1841108 9.89345838,28.2291103 10.3719141,28.3183056 C10.8511877,28.4075009 11.3815784,28.5167852 11.9483644,28.6445515 C12.5188308,28.7711124 13.1093352,28.9109321 13.7182416,29.0644123 C14.327557,29.2170889 14.913972,29.3573104 15.4783044,29.4842731 C16.0426368,29.6116376 16.5574879,29.7241362 17.0240844,29.8193582 C17.4927257,29.914982 17.8542256,29.9615885 18.128213,29.9615885 L18.2116361,29.9615885 C20.3397417,29.9615885 22.599116,29.0873138 22.6948071,29.0499482 C22.9033647,28.9607529 23.5413057,28.7281219 23.5413057,28.7281219 C24.5542414,28.5023211 25.1766428,27.5364404 24.9554082,26.5673454 C24.7546203,25.6874457 23.8856302,25.075132 22.9696124,25.1707558 Z" id="Path"></path>
        <path d="M22.9696124,25.1707558 L22.9704303,25.1731664 L22.7565565,25.2193712 C22.6408275,25.2374513 22.5463631,25.2639689 22.4596686,25.3049505 L22.3697026,25.3378965 C20.9478303,26.0462358 19.448669,26.4098474 17.9335592,26.4098474 C17.6587539,26.4098474 17.1430849,26.3383304 16.4008652,26.1973054 C15.6598722,26.0723516 14.8534494,25.9321301 13.9901844,25.7790517 C13.1285552,25.6259733 12.2816476,25.4801269 11.4519154,25.3395036 C10.6144135,25.1976751 9.96665802,25.1297741 9.47225377,25.1297741 C9.12302199,25.1297741 8.7692919,25.1462471 8.42006012,25.1787914 L6.92907758,25.318611 L7.94814738,24.2402317 C8.0503815,24.1325545 8.14689052,24.0252791 8.23971911,23.9188072 C8.6965012,23.3940816 9.07517642,22.8400261 9.36511241,22.2703011 C9.65463946,21.7005761 9.86687751,21.0729946 9.99528358,20.4028245 C10.1236896,19.7310472 10.1895284,18.9736906 10.1895284,18.1520491 C10.1895284,17.7771878 10.1449543,17.4051389 10.0562151,17.0451434 L9.88609753,16.3536788 L15.5821743,16.3428308 C15.6831816,16.3343934 15.7698761,16.3118936 15.854526,16.2733227 C16.485924,16.071227 16.8948605,15.5231982 16.8948605,14.9008399 C16.8948605,14.2069647 16.3902328,13.6127311 15.6938139,13.4869737 C15.6431058,13.4761256 15.5973049,13.4700989 15.5510951,13.4688936 L15.5445521,13.4692954 C15.5269678,13.4688936 15.513064,13.4684918 15.5020227,13.4676882 L15.4280052,13.4729114 L9.18231778,13.4729114 L9.05718321,13.0795681 C8.40165797,11.0132101 8.07001046,9.26787484 8.07001046,7.89097247 C8.07001046,7.21758805 8.19800759,6.56871226 8.45073035,5.96242522 C8.70304419,5.35814709 9.05472959,4.81855564 9.49638103,4.35932033 C9.93516991,3.90209392 10.4774197,3.53727707 11.1079998,3.27531607 C11.7365353,3.01456041 12.4497205,2.88197279 13.2266999,2.88197279 C16.3881881,2.88197279 18.0607385,4.35811499 18.3396332,7.39477333 C18.3445404,7.41124634 18.3482209,7.42852291 18.3514924,7.44579948 L18.3625336,7.58320847 L18.3584443,7.6117349 C18.3617158,7.6740109 18.379709,7.76923292 18.4165133,7.88132973 C18.5641393,8.84680869 19.3595209,9.52461269 20.3147966,9.52461269 C21.3036051,9.52461269 22.1198424,8.78533625 22.2220765,7.83994632 L22.2212586,7.83994632 L22.2327088,7.58079779 C22.2331178,7.57677998 22.2290284,7.54544109 22.2273927,7.51048617 L22.2265748,7.46910276 C22.1153441,6.26376073 21.8184561,5.17774756 21.3473613,4.2496342 C20.8762664,3.32513687 20.2526382,2.53965565 19.4952878,1.91569026 C18.7354837,1.28891241 17.8211017,0.807980938 16.7799493,0.486154617 C15.7367523,0.163524735 14.5733279,0 13.3236179,0 C11.970447,0 10.7199191,0.192452944 9.60638495,0.572135682 C8.49121507,0.952220201 7.52162659,1.5010526 6.72542719,2.2017581 C5.92677417,2.9044725 5.29701194,3.77955081 4.85372476,4.80288619 C4.4096197,5.82823048 4.18429568,6.98857307 4.18429568,8.25378042 C4.18429568,8.85002294 4.26608298,9.58487979 4.42761291,10.4374584 C4.55438323,11.1128517 4.7478102,11.892708 5.00339552,12.7561347 L5.21522464,13.4733132 L1.96785976,13.4664829 C1.22400424,13.5355892 0.639633954,14.1527243 0.639633954,14.9016435 C0.639633954,15.6369021 1.20519316,16.2492159 1.95436485,16.3263577 L2.09422114,16.3512682 L6.0580428,16.3544824 L6.15618756,16.7952358 C6.30626726,17.4738434 6.38273839,18.1689239 6.38273839,18.8595849 C6.38273839,19.8756882 6.28418469,20.7881321 6.08993985,21.5691938 C5.89651287,22.3482465 5.61475561,23.0485502 5.25161999,23.648007 C4.88930223,24.2450531 4.439881,24.7746 3.91398864,25.2205766 C3.39095884,25.6653478 2.78368811,26.0655213 2.11139648,26.4078385 C1.02771471,26.7618072 -0.182328445,27.4030492 0.0229576868,28.5252226 C0.190621659,29.4416843 1.07883177,30.1086403 2.02592874,29.9852936 C2.0545543,29.9804722 2.05537217,29.9800704 2.0803173,29.9684188 C4.72818125,28.7823622 7.13272796,28.1841108 9.23956889,28.1841108 C9.51232955,28.1841108 9.89345838,28.2291103 10.3719141,28.3183056 C10.8511877,28.4075009 11.3815784,28.5167852 11.9483644,28.6445515 C12.5188308,28.7711124 13.1093352,28.9109321 13.7182416,29.0644123 C14.327557,29.2170889 14.913972,29.3573104 15.4783044,29.4842731 C16.0426368,29.6116376 16.5574879,29.7241362 17.0240844,29.8193582 C17.4927257,29.914982 17.8542256,29.9615885 18.128213,29.9615885 L18.2116361,29.9615885 C20.3397417,29.9615885 22.599116,29.0873138 22.6948071,29.0499482 C22.9033647,28.9607529 23.5413057,28.7281219 23.5413057,28.7281219 C24.5542414,28.5023211 25.1766428,27.5364404 24.9554082,26.5673454 C24.7546203,25.6874457 23.8856302,25.075132 22.9696124,25.1707558 Z" id="Path"></path>
    </g>
</svg>