<svg xmlns="http://www.w3.org/2000/svg" width="16" height="16" viewBox="-5 -5 18 18" fill="#282C43" >
    <g id="pound-symbol-variant" fill="#282C43" fill-rule="nonzero">
        <path d="M10.1066295,10.9073275 L10.1069893,10.9083721 L10.0128849,10.9283942 C9.96196409,10.9362289 9.92039978,10.9477198 9.88225418,10.9654786 L9.84266913,10.9797552 C9.21704533,11.2867022 8.55741437,11.4442672 7.89076606,11.4442672 C7.76985171,11.4442672 7.54295738,11.4132765 7.21638068,11.3521657 C6.89034377,11.298019 6.53551773,11.2372564 6.15568114,11.1709224 C5.77656427,11.1045884 5.40392496,11.0413883 5.0388428,10.9804516 C4.67034192,10.9189925 4.38532953,10.8895688 4.16779166,10.8895688 C4.01412967,10.8895688 3.85848844,10.8967071 3.70482645,10.9108096 L3.04879413,10.9713981 L3.49718485,10.5041004 C3.54216786,10.4574403 3.58463183,10.4109543 3.62547641,10.3648164 C3.82646053,10.1374354 3.99307762,9.89734463 4.12064946,9.65046379 C4.24804136,9.40358296 4.3414261,9.13163101 4.39792477,8.84122394 C4.45442344,8.55012045 4.48339251,8.2219326 4.48339251,7.86588796 C4.48339251,7.70344803 4.46377991,7.54222684 4.42473465,7.3862288 L4.34988291,7.08659416 L6.85615668,7.08189333 C6.9005999,7.07823712 6.9387455,7.06848725 6.97599143,7.05177317 C7.25380655,6.96419838 7.43373861,6.72671921 7.43373861,6.45703063 C7.43373861,6.15635136 7.21170244,5.89885013 6.90527813,5.84435528 C6.88296655,5.83965444 6.86281416,5.83704287 6.84248184,5.83652055 L6.83960293,5.83669466 C6.83186585,5.83652055 6.82574816,5.83634645 6.82088999,5.83599824 L6.78832229,5.8382616 L4.04021982,5.8382616 L3.98516061,5.66781285 C3.69672951,4.77239104 3.5508046,4.0160791 3.5508046,3.4194214 C3.5508046,3.12762149 3.60712334,2.84644198 3.71832136,2.5837176 C3.82933944,2.32186374 3.98408102,2.08804078 4.17840765,1.88903881 C4.37147476,1.69090737 4.61006468,1.53282006 4.88751993,1.41930363 C5.16407552,1.30630951 5.47787704,1.24885487 5.81974797,1.24885487 C7.21080278,1.24885487 7.94672494,1.88851649 8.06943861,3.20440178 C8.07159779,3.21154008 8.07321718,3.21902659 8.07465664,3.22651311 L8.0795148,3.286057 L8.07771548,3.29841846 C8.07915494,3.32540472 8.08707195,3.3666676 8.10326583,3.41524288 C8.16822131,3.8336171 8.51818918,4.12733217 8.93851049,4.12733217 C9.37358623,4.12733217 9.73273064,3.80697904 9.77771365,3.39731007 L9.77735379,3.39731007 L9.78239189,3.28501237 C9.78257182,3.28327132 9.7807725,3.26969114 9.78005277,3.25454401 L9.77969291,3.23661119 C9.73075138,2.71429632 9.6001207,2.24369061 9.39283896,1.84150816 C9.18555722,1.44089264 8.91116082,1.10051745 8.57792663,0.830132446 C8.24361285,0.55852871 7.84128474,0.350125073 7.3831777,0.210667001 C6.924171,0.0708607185 6.41226427,0 5.86239187,0 C5.26699666,0 4.7167644,0.0833962755 4.22680938,0.247925462 C3.73613463,0.412628754 3.3095157,0.650456128 2.95918796,0.954095177 C2.60778064,1.25860475 2.33068525,1.63780535 2.13563889,2.08125068 C1.94023267,2.52556654 1.8410901,3.02838166 1.8410901,3.57663818 C1.8410901,3.83500994 1.87707651,4.15344791 1.94814968,4.52289863 C2.00392862,4.81556907 2.08903649,5.1535068 2.20149403,5.52765836 L2.29469884,5.83843571 L0.865858294,5.83547592 C0.538561864,5.86542198 0.28143894,6.13284719 0.28143894,6.45737884 C0.28143894,6.77599091 0.530284989,7.04132687 0.859920536,7.07475502 L0.921457303,7.08554953 L2.66553883,7.08694237 L2.70872253,7.27793551 C2.7747576,7.57199879 2.80840489,7.87320037 2.80840489,8.17248679 C2.80840489,8.61279824 2.76504126,9.0081906 2.67957353,9.34665064 C2.59446566,9.68424016 2.47049247,9.9877051 2.31071279,10.2474697 C2.15129298,10.5061897 1.95354764,10.73566 1.722155,10.9289165 C1.49202189,11.1216507 1.22482277,11.2950592 0.92901445,11.4433967 C0.452194471,11.5967831 -0.0802245156,11.8746546 0.0101013822,12.3609298 C0.0838735297,12.7580632 0.47468598,13.0470774 0.891408648,12.9936272 C0.904003892,12.991538 0.904363756,12.9913639 0.915339612,12.9863148 C2.08039975,12.472357 3.1384003,12.2131147 4.06541031,12.2131147 C4.185425,12.2131147 4.35312169,12.2326144 4.56364221,12.2712657 C4.77452259,12.309917 5.00789448,12.3572736 5.25728033,12.412639 C5.50828556,12.467482 5.76810747,12.5280706 6.03602631,12.5945787 C6.30412509,12.6607385 6.56214768,12.7215012 6.81045393,12.7765183 C7.05876018,12.8317096 7.28529466,12.880459 7.49059715,12.9217219 C7.69679929,12.9631589 7.85585924,12.983355 7.97641373,12.983355 L8.01311987,12.983355 C8.94948635,12.983355 9.94361102,12.6045026 9.98571512,12.5883109 C10.0774805,12.5496596 10.3581745,12.4488528 10.3581745,12.4488528 C10.8038662,12.3510058 11.0777228,11.9324575 10.9803796,11.5125163 C10.8920329,11.1312265 10.5096773,10.8658905 10.1066295,10.9073275 Z" id="Path"></path>
        <path d="M10.1066295,10.9073275 L10.1069893,10.9083721 L10.0128849,10.9283942 C9.96196409,10.9362289 9.92039978,10.9477198 9.88225418,10.9654786 L9.84266913,10.9797552 C9.21704533,11.2867022 8.55741437,11.4442672 7.89076606,11.4442672 C7.76985171,11.4442672 7.54295738,11.4132765 7.21638068,11.3521657 C6.89034377,11.298019 6.53551773,11.2372564 6.15568114,11.1709224 C5.77656427,11.1045884 5.40392496,11.0413883 5.0388428,10.9804516 C4.67034192,10.9189925 4.38532953,10.8895688 4.16779166,10.8895688 C4.01412967,10.8895688 3.85848844,10.8967071 3.70482645,10.9108096 L3.04879413,10.9713981 L3.49718485,10.5041004 C3.54216786,10.4574403 3.58463183,10.4109543 3.62547641,10.3648164 C3.82646053,10.1374354 3.99307762,9.89734463 4.12064946,9.65046379 C4.24804136,9.40358296 4.3414261,9.13163101 4.39792477,8.84122394 C4.45442344,8.55012045 4.48339251,8.2219326 4.48339251,7.86588796 C4.48339251,7.70344803 4.46377991,7.54222684 4.42473465,7.3862288 L4.34988291,7.08659416 L6.85615668,7.08189333 C6.9005999,7.07823712 6.9387455,7.06848725 6.97599143,7.05177317 C7.25380655,6.96419838 7.43373861,6.72671921 7.43373861,6.45703063 C7.43373861,6.15635136 7.21170244,5.89885013 6.90527813,5.84435528 C6.88296655,5.83965444 6.86281416,5.83704287 6.84248184,5.83652055 L6.83960293,5.83669466 C6.83186585,5.83652055 6.82574816,5.83634645 6.82088999,5.83599824 L6.78832229,5.8382616 L4.04021982,5.8382616 L3.98516061,5.66781285 C3.69672951,4.77239104 3.5508046,4.0160791 3.5508046,3.4194214 C3.5508046,3.12762149 3.60712334,2.84644198 3.71832136,2.5837176 C3.82933944,2.32186374 3.98408102,2.08804078 4.17840765,1.88903881 C4.37147476,1.69090737 4.61006468,1.53282006 4.88751993,1.41930363 C5.16407552,1.30630951 5.47787704,1.24885487 5.81974797,1.24885487 C7.21080278,1.24885487 7.94672494,1.88851649 8.06943861,3.20440178 C8.07159779,3.21154008 8.07321718,3.21902659 8.07465664,3.22651311 L8.0795148,3.286057 L8.07771548,3.29841846 C8.07915494,3.32540472 8.08707195,3.3666676 8.10326583,3.41524288 C8.16822131,3.8336171 8.51818918,4.12733217 8.93851049,4.12733217 C9.37358623,4.12733217 9.73273064,3.80697904 9.77771365,3.39731007 L9.77735379,3.39731007 L9.78239189,3.28501237 C9.78257182,3.28327132 9.7807725,3.26969114 9.78005277,3.25454401 L9.77969291,3.23661119 C9.73075138,2.71429632 9.6001207,2.24369061 9.39283896,1.84150816 C9.18555722,1.44089264 8.91116082,1.10051745 8.57792663,0.830132446 C8.24361285,0.55852871 7.84128474,0.350125073 7.3831777,0.210667001 C6.924171,0.0708607185 6.41226427,0 5.86239187,0 C5.26699666,0 4.7167644,0.0833962755 4.22680938,0.247925462 C3.73613463,0.412628754 3.3095157,0.650456128 2.95918796,0.954095177 C2.60778064,1.25860475 2.33068525,1.63780535 2.13563889,2.08125068 C1.94023267,2.52556654 1.8410901,3.02838166 1.8410901,3.57663818 C1.8410901,3.83500994 1.87707651,4.15344791 1.94814968,4.52289863 C2.00392862,4.81556907 2.08903649,5.1535068 2.20149403,5.52765836 L2.29469884,5.83843571 L0.865858294,5.83547592 C0.538561864,5.86542198 0.28143894,6.13284719 0.28143894,6.45737884 C0.28143894,6.77599091 0.530284989,7.04132687 0.859920536,7.07475502 L0.921457303,7.08554953 L2.66553883,7.08694237 L2.70872253,7.27793551 C2.7747576,7.57199879 2.80840489,7.87320037 2.80840489,8.17248679 C2.80840489,8.61279824 2.76504126,9.0081906 2.67957353,9.34665064 C2.59446566,9.68424016 2.47049247,9.9877051 2.31071279,10.2474697 C2.15129298,10.5061897 1.95354764,10.73566 1.722155,10.9289165 C1.49202189,11.1216507 1.22482277,11.2950592 0.92901445,11.4433967 C0.452194471,11.5967831 -0.0802245156,11.8746546 0.0101013822,12.3609298 C0.0838735297,12.7580632 0.47468598,13.0470774 0.891408648,12.9936272 C0.904003892,12.991538 0.904363756,12.9913639 0.915339612,12.9863148 C2.08039975,12.472357 3.1384003,12.2131147 4.06541031,12.2131147 C4.185425,12.2131147 4.35312169,12.2326144 4.56364221,12.2712657 C4.77452259,12.309917 5.00789448,12.3572736 5.25728033,12.412639 C5.50828556,12.467482 5.76810747,12.5280706 6.03602631,12.5945787 C6.30412509,12.6607385 6.56214768,12.7215012 6.81045393,12.7765183 C7.05876018,12.8317096 7.28529466,12.880459 7.49059715,12.9217219 C7.69679929,12.9631589 7.85585924,12.983355 7.97641373,12.983355 L8.01311987,12.983355 C8.94948635,12.983355 9.94361102,12.6045026 9.98571512,12.5883109 C10.0774805,12.5496596 10.3581745,12.4488528 10.3581745,12.4488528 C10.8038662,12.3510058 11.0777228,11.9324575 10.9803796,11.5125163 C10.8920329,11.1312265 10.5096773,10.8658905 10.1066295,10.9073275 Z" id="Path"></path>
    </g>
</svg>