<svg xmlns="http://www.w3.org/2000/svg" width="24" height="24" viewBox="0 0 23.995 23.98">
  <g id="down" transform="translate(0 -0.007)">
    <path id="Path" d="M2.83,6.263A1.362,1.362,0,0,0,4.074,4.809V1.385l-.09.07a1.23,1.23,0,0,1-.766.276,1.27,1.27,0,0,1-.948-.445A1.7,1.7,0,0,1,1.853.259C1.229.192.609.1,0,0V4.809A1.362,1.362,0,0,0,1.244,6.263Z" transform="translate(17.496 17.724)"/>
    <path id="Path-2" data-name="Path" d="M2.833,7.872A1.362,1.362,0,0,0,4.076,6.417V1.277l-.149-.035C3.293,1.091,2.659.916,2.039.724,1.345.509.662.265,0,0V6.415A1.362,1.362,0,0,0,1.244,7.869H2.833Z" transform="translate(11.781 16.115)"/>
    <path id="Path-3" data-name="Path" d="M2.83,11.1A1.362,1.362,0,0,0,4.074,9.647V2.508c-.1-.047-.2-.1-.293-.145A23.444,23.444,0,0,1,.373.282C.246.189.122.1,0,0V9.647A1.362,1.362,0,0,0,1.244,11.1H2.83Z" transform="translate(6.071 12.886)"/>
    <path id="Path-4" data-name="Path" d="M1.244,18.33H2.83a1.362,1.362,0,0,0,1.244-1.455V5.827c-.167-.16-.331-.32-.49-.483A17.636,17.636,0,0,1,.89,1.807,16.13,16.13,0,0,1,0,0V16.876A1.362,1.362,0,0,0,1.244,18.33Z" transform="translate(0.358 5.657)"/>
    <path id="Path-5" data-name="Path" d="M.532,3.875c.082.273.172.547.271.815.052.14.1.282.162.422,0,.009.007.017.01.026.124.311.264.62.413.925s.308.608.482.908q.325.563.7,1.1c.05.073.1.143.152.215.1.143.206.285.313.425.055.07.107.14.162.209q.328.419.686.82c.179.2.366.4.555.593a19.065,19.065,0,0,0,1.639,1.489c.062.049.124.1.189.151s.127.1.192.151c.129.1.259.2.39.294.192.143.385.279.584.416.264.18.532.358.8.527.067.044.137.084.206.128.343.209.7.413,1.055.605.216.116.433.23.654.34h0c.532.265,1.077.515,1.639.748h0c.09.038.182.073.271.111q.955.38,1.96.7c.3.093.609.183.915.268l.231.061c.231.061.463.119.7.175h0q.809.192,1.639.337h0l.288.049.087.015.216.035.087.015.254.038.042.006.313.044a.02.02,0,0,1,.012,0c.1.012.2.026.3.038l.045.006c.095.012.191.023.286.032l.022,0c.216.023.43.044.647.064v.675a.679.679,0,0,0,.624.727.563.563,0,0,0,.348-.128l.507-.4,2.144-1.7a.8.8,0,0,0,.01-1.2L21.08,12.96a.552.552,0,0,0-.356-.134.679.679,0,0,0-.624.727v.7q-1.317-.122-2.6-.367-.828-.157-1.639-.367c-.405-.1-.806-.218-1.2-.343a23.339,23.339,0,0,1-2.873-1.1q-.847-.388-1.639-.838a19.693,19.693,0,0,1-1.977-1.28,17.25,17.25,0,0,1-2.1-1.815,18.233,18.233,0,0,1-2.161-2.8A11.384,11.384,0,0,1,2.527.759.794.794,0,0,0,1.788,0H.746A.827.827,0,0,0,0,.94a13.268,13.268,0,0,0,.358,2.3C.41,3.447.47,3.663.532,3.875Z" transform="translate(0 0.007)"/>
  </g>
</svg>

