<?xml version="1.0" encoding="UTF-8"?>
<svg width="32px" height="32px" viewBox="0 0 32 32" version="1.1" xmlns="http://www.w3.org/2000/svg" xmlns:xlink="http://www.w3.org/1999/xlink">
    <title>Icon_restaurants</title>
    <g id="Design" stroke="none" stroke-width="1" fill="none" fill-rule="evenodd">
        <g id="List-of-categories" transform="translate(-55.000000, -820.000000)">
            <g id="Icon_restaurants" transform="translate(55.000000, 820.000000)">
                <g id="Group-5" fill="#FF9500">
                    <circle id="Oval" cx="16" cy="16" r="16"></circle>
                </g>
                <g id="cup" transform="translate(11.000000, 7.000000)" fill="#FFFFFF" fill-rule="nonzero">
                    <path d="M5.87204988,13.7414065 C7.57940802,13.2010966 8.8348833,11.6759585 9,9.83583545 L9,1.08799964 C9,0.486741513 8.51215187,0 7.9102298,0 L1.0900644,0 C0.487995228,0 0,0.486741513 0,1.08799964 L0,9.83583545 C0.164785728,11.6694965 1.4118397,13.1905224 3.11040877,13.7356054 C3.59509431,13.8915374 3.92462899,14.3420037 3.92462899,14.8506646 L3.92462899,14.8525003 C3.92462899,15.3921126 3.54691995,15.8554295 3.018142,15.9668987 C1.66885542,16.2520704 0.722578615,16.857918 0.722578615,17.1917014 C0.722578615,17.6382391 2.41375605,18 4.50047807,18 C6.58668524,18 8.27786268,17.6382024 8.27786268,17.1917014 C8.27786268,16.8597538 7.34147816,16.2579449 6.00326066,15.9716717 C5.46308267,15.8554662 5.0759594,15.3791152 5.0759594,14.8277906 C5.07599618,14.3303281 5.39791857,13.8915374 5.87204988,13.7414065 Z M1.2031822,1.20126792 L7.7968178,1.20126792 L7.7968178,8.63460424 L1.2031822,8.63460424 L1.2031822,1.20126792 Z" id="glass-7"></path>
                </g>
            </g>
        </g>
    </g>
</svg>