<?xml version="1.0" encoding="UTF-8"?>
<svg width="32px" height="32px" viewBox="0 0 32 32" version="1.1" xmlns="http://www.w3.org/2000/svg" xmlns:xlink="http://www.w3.org/1999/xlink">
    <title>Icon_retiremenet</title>
    <g id="Design" stroke="none" stroke-width="1" fill="none" fill-rule="evenodd">
        <g id="List-of-categories" transform="translate(-55.000000, -608.000000)">
            <g id="Icon_retiremenet" transform="translate(55.000000, 608.000000)">
                <g id="Group-5" fill="#B8B8BD">
                    <circle id="Oval" cx="16" cy="16" r="16"></circle>
                </g>
                <g id="glasses" transform="translate(7.000000, 8.000000)" fill="#FFFFFF" fill-rule="nonzero">
                    <path d="M17.9991916,7.71314775 C17.995993,7.63444363 17.9777506,7.534861 17.9152906,7.43770114 L13.5734616,0.638969269 C13.2417243,0.119500705 12.6244708,-0.115257756 12.0374455,0.0547274646 C11.4487331,0.225247118 11.0375939,0.77777925 11.0375939,1.39836248 L11.0375939,2.30654174 C11.0375939,2.60169109 11.2736554,2.84097442 11.5648306,2.84097442 C11.8560058,2.84097442 12.0920672,2.60169109 12.0920672,2.30654174 L12.0920672,1.39836248 C12.0920672,1.25246235 12.1887273,1.12252396 12.3271445,1.08244151 C12.4651048,1.04246594 12.6102706,1.09765502 12.6883016,1.2197907 L16.5033509,7.19364355 L11.4571337,7.19364355 C10.3533462,7.19364355 9.45535674,8.10388929 9.45535674,9.22274192 L9.45535674,9.33668296 C9.21806509,9.25480788 8.84035275,9.23275362 8.54464329,9.33579224 L8.54464329,9.22270629 C8.54464329,8.10385366 7.64665382,7.19360792 6.54286631,7.19360792 L1.49657884,7.19360792 L5.31166327,1.21975507 C5.38965915,1.09761939 5.53475467,1.04250157 5.67275008,1.08240588 C5.81116728,1.12248833 5.90782733,1.2523911 5.90782733,1.39832685 L5.90782733,2.30650611 C5.90782733,2.60165547 6.14388876,2.84093879 6.43506399,2.84093879 C6.72623922,2.84093879 6.96230064,2.60165547 6.96230064,2.30650611 L6.96230064,1.39832685 C6.96230064,0.777707992 6.55112635,0.22517586 5.9624139,0.0546918358 C5.37542376,-0.115257756 4.75817023,0.119500705 4.42643293,0.63893364 L0.0846390803,7.43770114 C0.0407026924,7.51173788 0,7.60487168 0,7.72811186 L0,10.8120022 C0,11.9810202 0.454196826,12.8453048 1.35000705,13.3808419 C2.04697876,13.7974856 2.99579384,14 4.25079283,14 L4.29385049,14 C5.54884947,14 6.49766455,13.79745 7.19463626,13.3808419 C8.09041134,12.8453048 8.54464329,11.9810202 8.54464329,10.8120022 L8.54464329,10.6483589 C8.61167264,10.5334915 8.76249747,10.3329011 8.99866435,10.3329011 C9.2354639,10.3329011 9.3875541,10.5338834 9.45535674,10.6492496 L9.45535674,10.8120022 C9.45535674,11.9810202 9.90955354,12.8453048 10.8053638,13.3808419 C11.5023003,13.7974856 12.4511506,14 13.7061495,14 L13.7492072,14 C15.0042062,14 15.9530564,13.79745 16.649993,13.3808419 C17.545768,12.8453048 18,11.9810202 18,10.8120022 L18,7.72811186 C18,7.72305256 17.9993322,7.71817141 17.9991916,7.71314775 L17.9991916,7.71314775 Z M7.49013483,10.8120022 C7.49013483,11.7986362 7.12683363,12.9311346 4.29381534,12.9311346 L4.25075768,12.9311346 C1.41773939,12.9311346 1.05443818,11.7986362 1.05443818,10.8120022 L1.05443818,8.26254454 L6.54279601,8.26254454 C7.06514694,8.26254454 7.49013483,8.69329728 7.49013483,9.22277755 L7.49013483,10.8120022 L7.49013483,10.8120022 Z M16.9454915,10.8120022 C16.9454915,11.7986362 16.5821903,12.9311346 13.749172,12.9311346 L13.7061144,12.9311346 C10.8730961,12.9311346 10.5097949,11.7986362 10.5097949,10.8120022 L10.5097949,9.22281317 C10.5097949,8.69333291 10.9347476,8.26258017 11.4570986,8.26258017 L16.9454915,8.26258017 L16.9454915,10.8120022 L16.9454915,10.8120022 Z" id="Shape"></path>
                </g>
            </g>
        </g>
    </g>
</svg>