<?xml version="1.0" encoding="UTF-8"?>
<svg width="32px" height="32px" viewBox="0 0 32 32" version="1.1" xmlns="http://www.w3.org/2000/svg" xmlns:xlink="http://www.w3.org/1999/xlink">
    <title>Icon_salary</title>
    <g id="Design" stroke="none" stroke-width="1" fill="none" fill-rule="evenodd">
        <g id="List-of-categories" transform="translate(-328.000000, -189.000000)">
            <g id="Icon_salary" transform="translate(328.000000, 189.000000)">
                <g id="Group-5" fill="#007AFF">
                    <circle id="Oval" cx="16" cy="16" r="16"></circle>
                </g>
                <g id="work" transform="translate(7.000000, 8.000000)" fill="#FFFFFF" fill-rule="nonzero">
                    <path d="M10.752,3.2256 C10.3563264,3.2256 10.0352,2.9044736 10.0352,2.5088 L10.0352,1.4336 L7.168,1.4336 L7.168,2.5088 C7.168,2.9044736 6.8468736,3.2256 6.4512,3.2256 C6.0555264,3.2256 5.7344,2.9044736 5.7344,2.5088 L5.7344,1.4336 C5.7344,0.6429696 6.3773696,0 7.168,0 L10.0352,0 C10.8258304,0 11.4688,0.6429696 11.4688,1.4336 L11.4688,2.5088 C11.4688,2.9044736 11.1476736,3.2256 10.752,3.2256 Z" id="Path"></path>
                    <path d="M9.110528,9.590784 C8.981504,9.64096 8.795136,9.6768 8.6016,9.6768 C8.408064,9.6768 8.221696,9.64096 8.049664,9.576448 L0,6.895616 L0,12.3648 C0,13.454336 0.881664,14.336 1.9712,14.336 L15.232,14.336 C16.321536,14.336 17.2032,13.454336 17.2032,12.3648 L17.2032,6.895616 L9.110528,9.590784 Z" id="Path"></path>
                    <path d="M17.2032,4.1216 L17.2032,5.763072 L8.773632,8.572928 C8.716288,8.594432 8.658944,8.6016 8.6016,8.6016 C8.544256,8.6016 8.486912,8.594432 8.429568,8.572928 L0,5.763072 L0,4.1216 C0,3.032064 0.881664,2.1504 1.9712,2.1504 L15.232,2.1504 C16.321536,2.1504 17.2032,3.032064 17.2032,4.1216 Z" id="Path"></path>
                </g>
            </g>
        </g>
    </g>
</svg>