<svg xmlns="http://www.w3.org/2000/svg" width="24" height="24" viewBox="0 0 23.987 23.967">
  <g id="wallet_1_" data-name="wallet (1)" transform="translate(0 -0.024)">
    <path id="Path" d="M1.309,4.562l9.562-2.717L10.365.78A1.324,1.324,0,0,0,8.56.146L0,4.562Z" transform="translate(4.296 0.024)" />
    <path id="Path-2" data-name="Path" d="M9.463,0a1.3,1.3,0,0,0-.356.05L6.861.69,0,2.638H11.181l-.42-1.6A1.354,1.354,0,0,0,9.463,0Z" transform="translate(8.673 1.947)" />
    <path id="Path-3" data-name="Path" d="M21.258,0H1.349A1.326,1.326,0,0,0,.3.527a1.426,1.426,0,0,0-.248.507A1.507,1.507,0,0,0,0,1.4v15.62a1.376,1.376,0,0,0,1.347,1.4H21.255a1.376,1.376,0,0,0,1.347-1.4V13.11H14.61a2.339,2.339,0,0,1-2.29-2.383V7.609a2.424,2.424,0,0,1,.649-1.66,2.235,2.235,0,0,1,1.366-.7,2.188,2.188,0,0,1,.272-.017H22.6V1.4A1.372,1.372,0,0,0,21.258,0Z" transform="translate(0 5.567)" />
    <path id="Shape" d="M9.341,5.925H1.346A1.376,1.376,0,0,1,0,4.523V1.4A1.376,1.376,0,0,1,1.346,0h8.03a1.324,1.324,0,0,1,.436.076,1.344,1.344,0,0,1,.472.292A1.426,1.426,0,0,1,10.724,1.4v3.12a1.422,1.422,0,0,1-.439,1.034,1.282,1.282,0,0,1-.472.292,1.324,1.324,0,0,1-.436.076Z" transform="translate(13.263 11.769)" />
  </g>
</svg>
