<svg id="payments-24px" xmlns="http://www.w3.org/2000/svg" width="18" height="18" viewBox="0 0 18 18">
  <path id="Shape" d="M18,18H0V0H18V18ZM3.75,13.5a.75.75,0,1,0,0,1.5h12a1.5,1.5,0,0,0,1.5-1.5V6a.75.75,0,1,0-1.5,0v7.5ZM3,3A2.253,2.253,0,0,0,.75,5.25v4.5A2.253,2.253,0,0,0,3,12H12.75a1.5,1.5,0,0,0,1.5-1.5V5.25A2.253,2.253,0,0,0,12,3Z" fill="none"/>
  <path id="Shape-2" data-name="Shape" d="M3.091,12a.75.75,0,1,1,0-1.5H15.455V3A.773.773,0,0,1,17,3v7.5A1.528,1.528,0,0,1,15.455,12ZM2.318,9A2.282,2.282,0,0,1,0,6.75V2.25A2.282,2.282,0,0,1,2.318,0h9.273A2.282,2.282,0,0,1,13.91,2.25V7.5A1.528,1.528,0,0,1,12.363,9Z" transform="translate(1 3)" fill="#2548e6"/>
</svg>
