<?xml version="1.0" encoding="UTF-8"?>
<svg width="32px" height="32px" viewBox="0 0 32 32" version="1.1" xmlns="http://www.w3.org/2000/svg" xmlns:xlink="http://www.w3.org/1999/xlink">
    <title>Icon_selling_trade</title>
    <g id="Design" stroke="none" stroke-width="1" fill="none" fill-rule="evenodd">
        <g id="List-of-categories" transform="translate(-327.000000, -242.000000)">
            <g id="Icon_selling_trade" transform="translate(327.000000, 242.000000)">
                <circle id="Oval" fill="#FF3B30" cx="16" cy="16" r="16"></circle>
                <g id="sale" transform="translate(7.000000, 7.000000)" fill="#FFFFFF" fill-rule="nonzero">
                    <polygon id="Path" points="7 12 8 12 7.50201072 11"></polygon>
                    <path d="M16.4956641,7.04177971 L15.9796758,7.04177971 L11.3656641,3 C11.1874219,3.30895279 10.9504687,3.57946283 10.6702734,3.79601194 L14.3757422,7.04177971 L3.65941406,7.04177971 L7.36488281,3.79601194 C7.0846875,3.57946283 6.84773437,3.30860011 6.66984375,3 L2.05586719,7.04177971 L1.50433594,7.04177971 C0.674648437,7.04177971 0,7.71858383 0,8.55092241 L0,14.4908573 C0,15.3231959 0.674648438,16 1.50433594,16 L16.4956641,16 C17.3253516,16 18,15.3231959 18,14.4908573 L18,8.55092241 C18,7.71858383 17.3253516,7.04177971 16.4956641,7.04177971 L16.4956641,7.04177971 Z M5.54695312,12.5722463 C5.31140625,13.8986978 3.42140625,14.1388768 2.45179687,13.0674173 C2.25597656,12.8512208 2.27214844,12.516522 2.48765625,12.3204286 C2.70316406,12.12363 3.03679687,12.1398535 3.23261719,12.3564026 C3.41859375,12.5620184 3.71320312,12.6847531 4.02082031,12.6847531 C4.31753906,12.6847531 4.48734375,12.5069995 4.5084375,12.3867336 C4.53375,12.2456593 4.33054687,12.1172816 4.13226562,12.043923 C3.60457031,11.8492404 3.13558594,11.6400977 3.11589844,11.6312805 C2.76257812,11.47363 2.43738281,10.9777537 2.51648437,10.4229788 C2.68741406,9.22874932 4.2778125,8.95358383 5.25691406,9.76380901 C5.64725391,10.0761476 5.42745703,10.7142973 4.93347656,10.7142973 C4.74595312,10.7142973 4.59783984,10.6002387 4.58894531,10.5823928 C4.19589844,10.2702659 3.59859375,10.3058871 3.560625,10.5728703 C3.55570312,10.6067282 3.55886719,10.6515193 3.59613281,10.6874932 C3.72867187,10.7453337 4.09957031,10.904395 4.49648438,11.0511123 C5.41019531,11.3886327 5.63835938,12.0580304 5.54695312,12.5722463 Z M9.15820312,13.7646772 C8.94515625,13.7646772 8.74476562,13.6341834 8.66496094,13.4225719 L8.47828125,12.9277537 L7.15253906,12.9277537 L6.96375,13.4239826 C6.8596875,13.6969615 6.55523437,13.8338036 6.28277344,13.7297613 C6.01066406,13.6253663 5.87425781,13.3195876 5.97832031,13.0466088 C7.31777344,9.52609875 7.25800781,9.68304395 7.26117187,9.67528486 C7.46929687,9.16600651 8.19316406,9.1787032 8.38511719,9.68868692 L9.65144531,13.0483722 C9.78257812,13.3957678 9.52453125,13.7646772 9.15820312,13.7646772 Z M12.1830469,13.7752577 C11.7594141,13.7773738 10.9961719,13.7847802 10.8945703,13.7674986 C10.6414453,13.7241183 10.4561719,13.5036896 10.4561719,13.246229 L10.4561719,9.82799783 C10.4561719,9.53597396 10.6924219,9.29896907 10.9835156,9.29896907 C11.2749609,9.29896907 11.5108594,9.53597396 11.5108594,9.82799783 L11.5108594,12.719669 C11.8958203,12.7189284 12.1324219,12.7172002 12.1802344,12.7172002 C12.4699219,12.7172002 12.7058203,12.952089 12.7075844,13.2430548 C12.7089844,13.5354314 12.4741406,13.7734943 12.1830469,13.7752577 Z M15.1221094,10.9999729 C15.4135547,10.9999729 15.6494531,11.2366251 15.6494531,11.5290016 C15.6494531,11.8210255 15.4135547,12.0580304 15.1221094,12.0580304 L14.3233594,12.0580304 L14.3233594,12.7009767 L15.2279297,12.7009767 C15.5190234,12.7009767 15.7552734,12.9376289 15.7552734,13.2300054 C15.7552734,13.5220293 15.5190234,13.7590342 15.2279297,13.7590342 L13.7960156,13.7590342 C13.5045703,13.7590342 13.2686719,13.5220293 13.2686719,13.2300054 L13.2686719,9.82799783 C13.2686719,9.53597396 13.5045703,9.29896907 13.7960156,9.29896907 L15.2279297,9.29896907 C15.5190234,9.29896907 15.7552734,9.53597396 15.7552734,9.82799783 C15.7552734,10.1200217 15.5190234,10.3570266 15.2279297,10.3570266 L14.3233594,10.3570266 L14.3233594,10.9999729 L15.1221094,10.9999729 Z" id="Shape"></path>
                    <path d="M7.15494948,2.76813738 C7.70866598,4.15637765 9.63502213,4.46409509 10.5886285,3.21155868 C11.5931284,1.89368181 10.6406256,0 8.99972317,0 C7.58009509,0 6.60717551,1.45255913 7.15494948,2.76813738 L7.15494948,2.76813738 Z" id="Path"></path>
                </g>
            </g>
        </g>
    </g>
</svg>