<svg id="gear" xmlns="http://www.w3.org/2000/svg" width="23" height="23" viewBox="0 0 23 23">
  <path id="Shape" d="M13.8,23H9.2L8.51,20.24a4.111,4.111,0,0,1-.519-.23,4.114,4.114,0,0,0-.516-.23L4.945,21.275l-3.219-3.22,1.495-2.53a4.055,4.055,0,0,1-.46-1.035L0,13.8V9.2L2.76,8.51a4.045,4.045,0,0,1,.231-.521,4.088,4.088,0,0,0,.229-.514L1.725,4.945,4.945,1.725,7.475,3.22A4.139,4.139,0,0,0,8.51,2.76L9.2,0h4.6l.69,2.76a4.068,4.068,0,0,1,.52.231,4.1,4.1,0,0,0,.515.229l2.53-1.495,3.22,3.219L19.78,7.475a4.113,4.113,0,0,1,.46,1.035L23,9.2v4.6l-2.76.69a4.137,4.137,0,0,1-.23.517,4.136,4.136,0,0,0-.23.518l1.495,2.53-3.22,3.22-2.53-1.495a4.12,4.12,0,0,1-1.032.459L13.8,23ZM11.5,8.05A3.375,3.375,0,0,0,8.05,11.5,3.374,3.374,0,0,0,11.5,14.95a3.374,3.374,0,0,0,3.45-3.45A3.374,3.374,0,0,0,11.5,8.05Z"/>
</svg>
