<?xml version="1.0" encoding="UTF-8"?>
<svg width="32px" height="32px" viewBox="0 0 32 32" version="1.1" xmlns="http://www.w3.org/2000/svg" xmlns:xlink="http://www.w3.org/1999/xlink">
    <title>Icon_sport_and_fitness</title>
    <g id="Design" stroke="none" stroke-width="1" fill="none" fill-rule="evenodd">
        <g id="List-of-categories" transform="translate(-55.000000, -714.000000)">
            <g id="Icon_sport_and_fitness" transform="translate(55.000000, 714.000000)">
                <g id="Group-5" fill="#45B0E0">
                    <circle id="Oval" cx="16" cy="16" r="16"></circle>
                </g>
                <g id="exercise" transform="translate(8.000000, 8.000000)" fill="#FFFFFF" fill-rule="nonzero">
                    <path d="M15.2563632,4 L15.8682248,3.38814302 C16.0439251,3.21244409 16.0439251,2.92760067 15.8682248,2.75190174 L14.8762592,1.75994361 L15.8682248,0.768015476 C16.0439251,0.592316546 16.0439251,0.307473128 15.8682248,0.131774198 C15.6925546,-0.0439247326 15.407679,-0.0439247326 15.2319788,0.131774198 L14.2400132,1.12370233 L13.2481076,0.131774198 C13.0724374,-0.0439247326 12.7875618,-0.0439247326 12.6118616,0.131774198 L12,0.743631176 L15.2563632,4 Z" id="Path"></path>
                    <path d="M0.743636752,12 L0.131775186,12.6118593 C-0.043925062,12.7875589 -0.043925062,13.0724033 0.131775186,13.2481029 L1.12374075,14.2400648 L0.131775186,15.2319966 C-0.043925062,15.4076962 -0.043925062,15.6925407 0.131775186,15.8682403 C0.219595317,15.9560901 0.334739265,16 0.449883214,16 C0.565027163,16 0.680171111,15.9560901 0.767991242,15.8682103 L1.75995681,14.8762785 L2.75192238,15.8682103 C2.8397725,15.9560601 2.95491645,16 3.07003041,16 C3.18514436,16 3.3003183,15.9560901 3.38813843,15.8682103 L4,15.256351 L0.743636752,12 Z" id="Path"></path>
                    <path d="M15.704957,5.23166911 L10.7683564,0.295050464 C10.375005,-0.0983333389 9.7348673,-0.0983669701 9.34151589,0.295050464 L8.17158467,1.464978 C7.77819963,1.8583618 7.77819963,2.49843024 8.17158467,2.89181404 L10.2831916,5.00341435 L5.00341752,10.2831718 L2.89181055,8.17157152 C2.49845914,7.77818772 1.85832142,7.77822135 1.46497,8.17157152 L0.295038782,9.34149905 C-0.0983462608,9.73488285 -0.0983462608,10.3749513 0.295038782,10.7683351 L5.23167299,15.7049537 C5.4283487,15.9016625 5.6867378,16 5.94509326,16 C6.20344873,16 6.46183783,15.9016625 6.65851353,15.7049537 L7.82844476,14.5350262 C8.2218298,14.1416424 8.2218298,13.501574 7.82844476,13.1081902 L5.71683779,10.9965899 L10.9966119,5.71683237 L13.1082189,7.82843269 C13.3048946,8.0251414 13.5632837,8.12347894 13.8216392,8.12347894 C14.0800283,8.12347894 14.3383837,8.0251414 14.5350594,7.82843269 L15.7049906,6.65850515 C16.0983421,6.26512135 16.0983421,5.62505291 15.704957,5.23166911 Z" id="Path"></path>
                </g>
            </g>
        </g>
    </g>
</svg>