<?xml version="1.0" encoding="UTF-8"?>
<svg width="32px" height="32px" viewBox="0 0 32 32" version="1.1" xmlns="http://www.w3.org/2000/svg" xmlns:xlink="http://www.w3.org/1999/xlink">
    <title>Icon_transport</title>
    <g id="Design" stroke="none" stroke-width="1" fill="none" fill-rule="evenodd">
        <g id="List-of-categories" transform="translate(-55.000000, -873.000000)">
            <g id="Icon_transport" transform="translate(55.000000, 873.000000)">
                <circle id="Oval" fill="#8261F5" cx="16" cy="16" r="16"></circle>
                <g id="pickup-car" transform="translate(8.000000, 9.000000)" fill="#FFFFFF" fill-rule="nonzero">
                    <path d="M14.7940083,5.16620037 L13.6718785,1.4257801 C13.4160195,0.572753041 12.6459986,0 11.7558587,0 L4.24413952,0 C3.35400262,0 2.58397971,0.572754041 2.32811974,1.4257801 L1.20598986,5.16620037 C0.497432944,5.47412239 0,6.17926044 0,7 L0,11 C0,11.5522468 0.44775395,12 1,12 L1.00006089,12 L1,12.9999399 C1,13.552247 1.44769284,14 2,14 L3.00005966,14 C3.5523056,14 4.00005955,13.552246 4.00005955,13 L3.99963235,12 L12,12 L11.9999405,12.9999389 C11.9999405,13.552246 12.4476334,14 12.9999403,14 L14,14 C14.5523072,14 15,13.552245 15,13 L15,12.0000599 L14.9996339,12 L15,12 C15.5522461,12 16,11.5522448 16,11 L16,7 C16,6.17925844 15.5025641,5.47411839 14.7940101,5.16619837 L14.7940083,5.16620037 Z M4.24410952,2.00000014 L11.7558287,2.00000014 L12.6558526,5.00000014 L3.34408362,5.00000014 L4.24410752,2.00000014 L4.24410952,2.00000014 Z M3.99996866,9.50000054 C3.44766161,9.50000054 2.99996866,9.05224665 2.99996866,8.50000054 C2.99996866,7.94769357 3.44766161,7.50000054 3.99996866,7.50000054 C4.55227549,7.50000054 4.99996866,7.94769357 4.99996866,8.50000054 C4.99996866,9.05224665 4.55227549,9.50000054 3.99996866,9.50000054 Z M11.9999678,9.50000054 C11.4476607,9.50000054 10.9999678,9.05224665 10.9999678,8.50000054 C10.9999678,7.94769357 11.4476607,7.50000054 11.9999678,7.50000054 C12.5522746,7.50000054 12.9999678,7.94769357 12.9999678,8.50000054 C12.9999678,9.05224665 12.5522746,9.50000054 11.9999678,9.50000054 Z" id="Shape"></path>
                </g>
            </g>
        </g>
    </g>
</svg>