<?xml version="1.0" encoding="UTF-8"?>
<svg width="32px" height="32px" viewBox="0 0 32 32" version="1.1" xmlns="http://www.w3.org/2000/svg" xmlns:xlink="http://www.w3.org/1999/xlink">
    <title>Icon_travel</title>
    <g id="Design" stroke="none" stroke-width="1" fill="none" fill-rule="evenodd">
        <g id="List-of-categories" transform="translate(-55.000000, -927.000000)">
            <g id="Icon_travel" transform="translate(55.000000, 927.000000)">
                <g id="Group-5" fill="#4CD964">
                    <circle id="Oval" cx="16" cy="16" r="16"></circle>
                </g>
                <g id="plane-(1)" transform="translate(8.000000, 8.000000)" fill="#FFFFFF" fill-rule="nonzero">
                    <path d="M15.4096502,0.0390390123 L13.7164694,0.809686924 C13.6080391,0.859728997 13.5079496,0.928119829 13.4228736,1.01319135 L10.6637397,3.77384567 L1.1619097,2.63455449 C0.990089388,2.61453766 0.81660092,2.67292008 0.69482536,2.79635719 L0.166019164,3.32513509 C-0.114231439,3.60537069 -0.0274872048,4.07910231 0.334503157,4.24090501 L7.14392554,7.29347141 L5.18884395,9.24844837 L1.77412381,9.24844837 C1.62398956,9.24844837 1.48052794,9.30849885 1.37376581,9.41357053 L1.08851073,9.70047841 C0.804923811,9.98405015 0.898340679,10.462786 1.26533552,10.6196011 L4.14624498,11.8539723 L5.38068216,14.7347109 C5.53748905,15.1016861 6.01791865,15.1951146 6.29985409,14.9115429 L6.58676065,14.624635 C6.69352278,14.5178786 6.75190833,14.3744246 6.75190833,14.2242984 L6.75190833,10.809761 L8.70698991,8.85478407 L11.7597197,15.6655268 C11.921531,16.0274811 12.395288,16.1142207 12.6755219,15.8340018 L13.2043281,15.3052239 C13.3277719,15.1817867 13.3861574,15.0099756 13.3661395,14.8381645 L12.2251192,5.33684307 L14.9859213,2.57618875 C15.071014,2.49111723 15.1393918,2.39270116 15.1894366,2.2826086 L15.9601257,0.589518487 C16.1219705,0.24087537 15.7616316,-0.121095619 15.4096502,0.0390390123 Z" id="Path"></path>
                </g>
            </g>
        </g>
    </g>
</svg>