<?xml version="1.0" encoding="UTF-8"?>
<svg width="30px" height="30px" viewBox="0 0 30 30" version="1.1" xmlns="http://www.w3.org/2000/svg" xmlns:xlink="http://www.w3.org/1999/xlink">
    <title>account_circle-24px</title>
    <g id="Design" stroke="none" stroke-width="1" fill="none" fill-rule="evenodd">
        <g id="01_Dashboard" transform="translate(-1069.000000, -20.000000)">
            <g id="account_circle-24px" transform="translate(1069.000000, 20.000000)">
                <polygon id="Path" points="0 0 30 0 30 30 0 30"></polygon>
                <path d="M15.5,3 C8.6,3 3,8.6 3,15.5 C3,22.4 8.6,28 15.5,28 C22.4,28 28,22.4 28,15.5 C28,8.6 22.4,3 15.5,3 Z M15.5,6.75 C17.575,6.75 19.25,8.425 19.25,10.5 C19.25,12.575 17.575,14.25 15.5,14.25 C13.425,14.25 11.75,12.575 11.75,10.5 C11.75,8.425 13.425,6.75 15.5,6.75 Z M15.5,24.5 C12.375,24.5 9.6125,22.9 8,20.475 C8.0375,17.9875 13,16.625 15.5,16.625 C17.9875,16.625 22.9625,17.9875 23,20.475 C21.3875,22.9 18.625,24.5 15.5,24.5 Z" id="Shape" fill="#264AE7" fill-rule="nonzero"></path>
            </g>
        </g>
    </g>
</svg>