<svg xmlns="http://www.w3.org/2000/svg" width="16" height="16" viewBox="-5 -4 18 18" fill="#282C43" >
    <g id="zloty" fill="#282C43" fill-rule="nonzero">
        <path d="M6.12477978,12.4207804 L2.29477968,12.4207804 L6.90670774,4.14428806 C7.04311631,3.89950085 7.02917206,3.60844097 6.86977591,3.3752351 C6.71043811,3.14197658 6.42851929,3 6.12483812,3 L0.875208768,3 C0.391886035,3 0,3.35354642 0,3.78963615 C0,4.22572587 0.391886035,4.57927229 0.875208768,4.57927229 L4.70526721,4.57927229 L0.0932808023,12.8557119 C-0.0431277624,13.1004991 -0.0291835165,13.391559 0.130212634,13.6247649 C0.28955044,13.8580234 0.571469253,14 0.875208768,14 L6.12483812,14 C6.60816086,14 7,13.6464536 7,13.2103639 C7,12.7743268 6.60816086,12.4207804 6.12477978,12.4207804 Z" id="XMLID_31_"></path>
        <path d="M10.9656247,8.8279548 C10.8491907,8.42044053 10.4715799,8.20016815 10.122411,8.33602353 L9.666585,8.5133096 L9.666585,0.777797943 C9.666585,0.348246066 9.36812273,0 8.99997778,0 C8.63183283,0 8.33337056,0.348246066 8.33337056,0.777797943 L8.33337056,9.03184157 L7.45598213,9.37308745 C7.10672439,9.50894282 6.91798567,9.94943573 7.03437529,10.35695 C7.12752254,10.6828992 7.38754379,10.8889638 7.6667189,10.8889638 C7.73657933,10.8889638 7.8076841,10.8760523 7.87758898,10.8488813 L8.333415,10.6715952 L8.333415,13.2222021 C8.333415,13.6517539 8.63187727,14 9.00002222,14 C9.36816717,14 9.66662944,13.6517539 9.66662944,13.2222021 L9.66662944,10.1530632 L10.5440179,9.81181734 C10.8932756,9.67591012 11.0820143,9.23546907 10.9656247,8.8279548 Z" id="XMLID_71_"></path>
    </g>
</svg>