<svg xmlns="http://www.w3.org/2000/svg" width="24" height="24" viewBox="0 0 32 32" fill="#282C43" >
    <g id="zloty"  fill="#282C43" fill-rule="nonzero">
        <path d="M12.2495596,28.4108644 L4.58955936,28.4108644 L13.8134155,9.60065468 C14.0862326,9.04432012 14.0583441,8.38282039 13.7395518,7.85280704 C13.4208762,7.32267404 12.8570386,7 12.2496762,7 L1.75041754,7 C0.78377207,7 0,7.8035146 0,8.7946276 C0,9.78574061 0.78377207,10.5892552 1.75041754,10.5892552 L9.41053442,10.5892552 L0.186561605,29.3993453 C-0.0862555248,29.9556799 -0.0583670329,30.6171796 0.260425267,31.147193 C0.579100879,31.677326 1.14293851,32 1.75041754,32 L12.2496762,32 C13.2163217,32 14,31.1964854 14,30.2053724 C14,29.214379 13.2163217,28.4108644 12.2495596,28.4108644 Z" id="XMLID_31_"></path>
        <path d="M24.905468,20.1781824 C24.5852743,19.2467212 23.5468447,18.7432415 22.5866303,19.0537681 L21.3331088,19.4589934 L21.3331088,1.77782387 C21.3331088,0.795991007 20.5123375,0 19.4999389,0 C18.4875403,0 17.666769,0.795991007 17.666769,1.77782387 L17.666769,20.6442093 L15.2539509,21.4241999 C14.2934921,21.7347265 13.7744606,22.7415674 14.094532,23.6730286 C14.350687,24.4180553 15.0657454,24.8890601 15.833477,24.8890601 C16.0255932,24.8890601 16.2211313,24.8595482 16.4133697,24.7974429 L17.6668912,24.3922176 L17.6668912,30.2221761 C17.6668912,31.204009 18.4876625,32 19.5000611,32 C20.5124597,32 21.333231,31.204009 21.333231,30.2221761 L21.333231,23.2070017 L23.7460491,22.4270111 C24.7065079,22.116366 25.2255394,21.1096436 24.905468,20.1781824 Z" id="XMLID_71_"></path>
    </g>
</svg>